<?xml version="1.0" standalone="no"?>
<!DOCTYPE svg PUBLIC "-//W3C//DTD SVG 20010904//EN"
 "http://www.w3.org/TR/2001/REC-SVG-20010904/DTD/svg10.dtd">
<svg version="1.0" xmlns="http://www.w3.org/2000/svg"
 width="16.000000pt" height="16.000000pt" viewBox="0 0 16.000000 16.000000"
 preserveAspectRatio="xMidYMid meet">
<metadata>
Created by potrace 1.11, written by Peter Selinger 2001-2013
</metadata>
<g transform="translate(0.000000,16.000000) scale(0.001444,-0.001444)"
fill="#000000" stroke="none">
<path d="M1459 11049 c-10 -20 -9 -351 3 -809 2 -63 2 -121 0 -127 -5 -17 -47
-16 -152 1 -47 8 -103 17 -125 20 -94 12 -306 46 -375 60 -41 8 -111 17 -155
20 -44 3 -91 8 -104 10 -13 3 -54 8 -92 12 -59 5 -70 4 -75 -10 -4 -9 -5 -18
-3 -20 2 -2 42 -7 89 -10 47 -4 94 -8 105 -10 11 -1 47 -6 80 -11 33 -4 69 -9
80 -11 33 -6 86 -13 220 -29 72 -9 141 -18 155 -20 14 -2 52 -7 85 -10 67 -8
90 -10 155 -20 86 -13 104 -16 109 -20 6 -6 9 -407 3 -423 -4 -10 -17 -12 -51
-7 -25 3 -62 9 -81 11 -19 3 -60 9 -90 14 -52 9 -87 13 -177 25 -21 2 -58 7
-83 11 -25 3 -58 7 -75 9 -16 2 -79 10 -140 20 -60 9 -128 18 -150 21 -22 3
-53 7 -70 9 -130 20 -187 16 -166 -9 7 -8 45 -16 93 -19 46 -4 94 -9 108 -11
14 -3 48 -8 75 -11 28 -3 64 -7 80 -10 17 -2 53 -7 80 -10 28 -3 64 -8 80 -10
17 -2 51 -7 78 -10 117 -13 140 -15 180 -20 23 -3 51 -7 62 -9 11 -2 54 -7 95
-12 41 -4 78 -9 83 -10 4 -1 17 -2 30 -3 34 -2 45 -13 50 -51 4 -19 14 -40 23
-47 16 -11 73 -26 154 -38 19 -3 46 -7 60 -10 14 -2 45 -7 70 -10 54 -7 106
-15 130 -20 10 -2 40 -6 67 -10 26 -4 113 -17 193 -31 80 -13 163 -26 185 -29
239 -33 245 -32 245 49 l0 39 63 -6 c34 -4 71 -8 82 -10 11 -3 47 -8 80 -12
33 -4 69 -9 80 -11 11 -1 40 -5 65 -9 25 -3 56 -7 70 -10 14 -2 45 -6 70 -10
74 -11 80 -14 80 -45 0 -49 20 -79 59 -90 135 -36 259 -55 290 -45 14 4 22 19
27 51 3 24 10 47 15 50 5 2 57 -4 116 -15 60 -11 135 -23 168 -26 50 -5 143
-18 366 -49 19 -3 86 -12 149 -21 63 -9 127 -18 141 -20 28 -5 79 -12 147 -20
23 -3 61 -14 85 -24 56 -24 128 -40 205 -45 51 -4 67 -1 81 13 15 15 40 93 56
174 3 10 7 27 10 37 3 10 8 28 10 39 2 12 15 62 29 113 14 51 27 104 30 118 2
14 45 186 95 382 50 196 91 371 91 388 0 46 -17 70 -63 90 -52 22 -180 44
-212 36 -30 -8 -39 -36 -119 -376 -98 -413 -109 -455 -128 -458 -12 -2 -20 7
-26 30 -28 95 -290 834 -308 869 -17 33 -24 36 -158 63 -118 25 -152 24 -159
-4 -6 -23 73 -262 261 -787 23 -65 36 -115 31 -119 -9 -5 -65 0 -129 11 -14 2
-43 7 -65 10 -22 3 -51 7 -65 10 -14 2 -47 7 -75 10 -27 3 -79 10 -115 16 -36
6 -81 12 -100 15 -19 2 -60 9 -90 14 -55 9 -94 14 -199 25 -30 3 -57 8 -60 11
-3 3 -6 213 -6 465 0 507 5 469 -65 489 -19 6 -90 20 -158 31 -113 20 -125 20
-140 6 -14 -14 -16 -71 -19 -469 -2 -249 -6 -458 -8 -465 -4 -12 -10 -11 -135
7 -36 5 -85 12 -110 15 -25 3 -56 8 -70 10 -14 2 -47 7 -75 10 -27 3 -65 8
-82 11 -18 2 -48 6 -65 8 -352 46 -799 114 -808 123 -3 2 -6 57 -7 121 -4 329
-13 696 -18 757 -8 89 -10 90 -150 111 -16 3 -52 9 -78 14 -79 16 -115 13
-128 -11z m531 -1050 c19 -4 60 -10 90 -13 30 -4 125 -15 210 -26 85 -11 178
-22 205 -25 28 -3 61 -8 75 -10 30 -6 29 -6 342 -50 135 -19 253 -38 262 -41
14 -5 16 -33 16 -209 0 -112 -4 -206 -9 -209 -5 -3 -33 -2 -62 3 -30 6 -78 12
-107 15 -28 4 -67 8 -85 11 -17 2 -68 9 -112 14 -228 29 -211 22 -214 97 -2
62 -12 81 -49 95 -24 9 -210 43 -292 54 -25 3 -56 8 -70 10 -14 2 -45 7 -70
10 -84 11 -217 34 -242 41 -26 8 -36 48 -39 152 0 37 -1 73 0 80 1 15 85 15
151 1z m1731 -248 c52 -11 126 -22 164 -25 39 -2 120 -12 180 -21 184 -26 180
-26 326 -45 53 -7 102 -15 108 -20 12 -7 26 -41 101 -252 22 -59 50 -124 64
-144 14 -21 23 -40 21 -44 -2 -4 -30 -3 -62 2 -32 4 -71 10 -88 13 -16 2 -88
14 -160 25 -71 12 -141 23 -155 25 -14 2 -45 6 -70 10 -25 4 -56 8 -70 10 -14
2 -83 13 -155 25 -120 19 -165 27 -205 35 -8 2 -43 6 -77 10 -51 6 -62 11 -67
29 -6 25 -5 368 1 379 7 11 44 8 144 -12z"/>
<path d="M5855 10350 l-30 -5 2 -177 c1 -96 4 -200 7 -229 3 -30 9 -136 12
-237 l7 -183 -49 6 c-27 3 -74 10 -104 15 -30 5 -77 12 -105 15 -27 3 -60 8
-72 10 -12 2 -57 7 -100 10 -43 4 -88 9 -101 10 -12 1 -25 -2 -28 -6 -12 -20
65 -35 341 -64 28 -3 61 -8 75 -10 14 -2 45 -7 70 -10 77 -10 80 -12 81 -58 1
-60 7 -187 14 -295 l6 -93 -43 6 c-24 3 -54 8 -68 10 -14 2 -41 6 -60 9 -66 9
-255 37 -280 41 -156 26 -249 28 -235 5 6 -10 82 -27 150 -34 28 -3 61 -8 75
-10 33 -6 103 -15 165 -21 28 -3 60 -8 71 -10 12 -2 65 -9 119 -15 103 -14
105 -15 119 -81 6 -28 36 -45 91 -53 17 -2 50 -8 75 -12 41 -7 63 -8 90 -5 5
1 16 22 23 49 16 52 11 51 122 39 71 -8 125 -16 143 -22 8 -3 12 -25 12 -64 0
-79 17 -99 100 -116 97 -20 183 -27 200 -16 9 6 15 29 16 63 2 29 3 61 3 71 1
20 3 20 154 1 30 -3 37 12 10 20 -10 2 -40 7 -68 11 -27 3 -61 8 -75 10 l-25
6 -1 177 c-1 97 -3 251 -5 342 -3 102 0 166 6 169 5 2 30 -32 55 -75 52 -88
233 -407 267 -469 112 -205 212 -378 228 -398 25 -30 52 -44 96 -52 19 -3 60
-10 92 -16 154 -27 162 -23 163 90 1 45 3 83 5 85 2 2 47 -2 99 -10 52 -8 113
-16 135 -19 22 -3 65 -10 95 -15 30 -5 75 -11 100 -14 131 -17 163 -27 219
-71 73 -56 151 -98 231 -125 55 -18 87 -22 203 -21 117 0 145 4 186 22 27 11
57 29 66 38 19 22 62 16 70 -9 12 -38 41 -51 109 -52 56 -1 70 2 87 21 12 12
28 20 37 17 9 -3 55 -10 102 -16 46 -6 87 -13 90 -15 18 -11 188 -20 198 -11
18 19 -36 32 -233 60 -136 20 -187 30 -190 40 -2 6 -5 98 -7 203 -4 205 -4
207 44 198 13 -3 43 -7 68 -10 25 -3 56 -8 70 -10 52 -9 107 -15 163 -19 44
-3 57 -1 57 10 0 8 -3 14 -7 15 -5 0 -15 2 -23 4 -13 2 -71 11 -200 30 -14 2
-47 7 -75 11 -72 10 -87 13 -93 19 -3 3 -7 37 -9 77 -3 71 -11 91 -44 109 -17
8 -152 33 -254 45 -22 3 -46 7 -54 10 -8 2 -45 7 -83 10 -95 9 -108 -4 -108
-102 l0 -72 -53 3 c-55 4 -194 21 -257 31 -62 10 -63 14 -58 164 4 133 5 137
42 213 63 127 148 183 266 174 122 -8 207 -69 274 -196 39 -74 53 -85 140
-101 78 -16 127 -15 138 2 5 7 7 38 5 69 -9 102 -103 266 -207 356 -91 79
-221 143 -330 163 -58 10 -208 14 -245 6 -205 -44 -324 -160 -406 -397 -19
-56 -22 -86 -23 -232 l-1 -167 -40 5 c-117 14 -167 17 -161 7 3 -5 32 -13 63
-17 108 -13 128 -17 139 -28 6 -7 30 -71 52 -142 35 -112 58 -159 99 -210 21
-26 53 -74 53 -80 0 -3 -26 -4 -57 0 -74 7 -147 15 -198 20 -22 3 -62 7 -90
10 -91 10 -185 27 -189 33 -10 17 -21 241 -31 612 -4 124 -8 241 -10 260 -2
19 -5 100 -6 180 -1 80 -6 157 -11 172 -10 28 -40 44 -103 53 -22 3 -68 10
-103 16 -105 16 -105 17 -98 -169 3 -87 9 -283 12 -437 8 -321 10 -316 -74
-167 -107 191 -336 600 -364 652 -111 201 -129 227 -168 242 -36 14 -187 38
-243 38 -54 0 -67 -17 -61 -80 4 -45 14 -391 18 -582 1 -81 -1 -153 -5 -159
-6 -10 -33 -8 -121 5 -62 10 -117 22 -123 28 -5 5 -10 21 -11 36 -1 15 -5 95
-8 177 -4 83 -9 166 -11 185 -3 32 -9 126 -21 310 -2 41 -7 83 -10 92 -6 21
-119 57 -191 60 -5 0 -17 4 -28 7 -11 4 -33 5 -50 1z m537 -939 c20 -5 39 -6
43 -3 6 6 7 -6 10 -178 2 -69 4 -153 5 -188 1 -35 0 -65 -3 -68 -2 -2 -35 0
-73 5 -38 6 -91 13 -119 16 -27 3 -51 8 -53 10 -2 1 -5 98 -6 215 l-3 212 81
-7 c45 -3 98 -10 118 -14z m2088 -285 c14 -3 59 -10 100 -16 135 -20 143 -22
165 -36 11 -7 56 -20 100 -29 130 -25 145 -32 145 -67 0 -45 -39 -115 -83
-150 -137 -109 -340 -43 -464 150 -34 53 -73 135 -73 154 0 9 38 7 110 -6z"/>
<path d="M397 9303 c-24 -6 -18 -35 8 -39 11 -1 52 -5 90 -8 39 -3 84 -8 100
-10 17 -3 86 -12 155 -20 69 -9 139 -18 155 -21 17 -2 68 -9 115 -15 141 -17
163 -20 205 -26 22 -3 51 -7 65 -9 14 -2 48 -7 75 -10 28 -3 61 -7 75 -10 14
-2 45 -7 70 -10 25 -3 56 -8 70 -10 14 -2 63 -9 110 -15 131 -17 163 -21 190
-25 14 -2 50 -7 80 -10 30 -3 66 -8 80 -10 73 -10 109 -15 150 -20 25 -3 56
-8 70 -10 14 -2 52 -7 85 -10 33 -3 71 -8 85 -10 45 -8 84 -13 180 -25 52 -6
109 -13 125 -15 130 -20 171 -26 208 -30 23 -3 53 -7 67 -10 14 -3 49 -7 78
-11 29 -3 61 -7 70 -9 10 -2 45 -6 77 -10 33 -4 71 -9 85 -11 14 -2 50 -6 80
-9 30 -4 62 -8 70 -10 8 -2 38 -7 65 -10 28 -3 75 -10 105 -15 30 -5 74 -12
98 -15 88 -11 128 -16 152 -20 31 -5 302 -44 350 -51 19 -2 55 -11 80 -18 25
-8 90 -17 145 -20 55 -3 111 -7 125 -9 14 -3 52 -8 85 -12 33 -4 69 -9 79 -11
17 -3 129 -19 203 -29 47 -6 108 -15 133 -20 14 -3 81 -8 150 -10 113 -4 206
-11 283 -21 90 -11 248 -33 287 -39 14 -3 61 -9 105 -15 44 -6 91 -13 105 -15
78 -11 110 -15 155 -20 28 -4 131 -17 230 -30 99 -14 203 -27 230 -30 28 -3
61 -8 75 -10 14 -2 45 -7 70 -10 25 -3 61 -8 80 -10 19 -3 55 -7 80 -10 25 -3
61 -7 80 -10 19 -3 71 -9 115 -15 44 -5 91 -12 105 -15 14 -3 45 -7 70 -10 25
-3 56 -7 70 -10 54 -9 238 -35 285 -40 28 -3 60 -8 71 -10 12 -2 48 -7 80 -10
33 -4 68 -9 78 -11 11 -2 56 -8 100 -14 45 -6 92 -13 106 -15 14 -2 52 -7 85
-11 33 -3 62 -8 65 -9 3 -2 30 -6 60 -10 48 -5 122 -16 210 -30 14 -2 76 -11
138 -20 62 -9 121 -18 130 -20 9 -1 42 -6 73 -9 31 -4 65 -8 75 -10 11 -2 42
-7 69 -10 28 -4 61 -9 75 -11 14 -2 79 -11 145 -20 66 -8 134 -17 150 -20 299
-45 328 -47 350 -31 17 12 16 14 -16 24 -29 9 -145 28 -289 47 -44 6 -246 35
-280 40 -14 2 -47 7 -75 10 -27 3 -75 10 -105 15 -30 5 -73 12 -96 15 -22 3
-56 10 -75 16 -19 5 -63 12 -99 14 -98 6 -192 15 -220 20 -14 2 -41 7 -60 9
-42 5 -277 37 -305 41 -11 1 -47 6 -80 10 -33 4 -69 9 -80 11 -11 2 -42 6 -70
9 -27 3 -57 8 -65 10 -8 2 -40 7 -70 10 -30 3 -66 8 -80 10 -14 2 -81 11 -150
20 -69 9 -136 18 -150 20 -14 2 -47 6 -75 10 -27 3 -61 8 -75 10 -14 3 -42 7
-62 10 -38 5 -51 7 -183 26 -38 5 -90 12 -115 15 -25 3 -56 7 -70 9 -77 11
-110 15 -155 20 -27 3 -61 7 -75 10 -14 2 -52 7 -84 10 -33 3 -73 8 -90 10
-44 6 -204 25 -246 29 -47 5 -129 16 -160 21 -14 3 -56 7 -95 10 -38 4 -77 8
-85 10 -8 2 -35 7 -60 10 -25 3 -63 8 -85 11 -71 10 -89 12 -145 19 -30 4 -66
8 -80 10 -14 2 -54 6 -90 10 -36 3 -72 8 -80 10 -8 2 -42 7 -75 10 -33 3 -73
8 -90 10 -64 9 -342 47 -375 51 -19 2 -46 6 -60 9 -14 2 -45 7 -70 10 -25 4
-90 15 -145 26 -54 11 -138 22 -185 24 -88 5 -164 13 -190 20 -8 2 -42 6 -75
10 -33 3 -67 8 -75 10 -8 2 -42 7 -75 10 -32 4 -62 8 -65 10 -3 1 -32 6 -65 9
-33 4 -71 9 -85 11 -14 2 -47 7 -75 10 -27 3 -63 7 -80 10 -16 3 -46 7 -65 9
-34 5 -218 31 -290 42 -19 3 -55 7 -80 10 -25 2 -74 9 -110 14 -56 8 -137 19
-270 35 -19 2 -87 11 -150 19 -63 8 -137 18 -165 21 -27 4 -63 8 -80 11 -16 2
-46 6 -65 9 -19 3 -55 7 -80 10 -25 3 -151 19 -280 35 -129 16 -255 32 -280
34 -25 3 -63 8 -85 11 -22 3 -130 17 -240 30 -110 14 -211 28 -225 30 -14 2
-47 6 -75 10 -27 3 -81 10 -120 16 -38 5 -88 12 -110 14 -22 3 -58 8 -80 11
-22 4 -50 8 -62 10 -27 3 -102 14 -123 18 -8 2 -23 1 -33 -1z"/>
<path d="M1888 8675 c-2 -1 -31 -5 -64 -9 -122 -13 -210 -48 -287 -116 -60
-53 -91 -106 -116 -200 -24 -91 -22 -162 9 -256 34 -102 62 -152 125 -222 53
-58 161 -142 183 -142 5 0 15 -7 22 -16 12 -13 8 -14 -36 -9 -27 4 -56 8 -64
10 -8 2 -35 7 -60 10 -46 6 -144 21 -190 29 -14 3 -41 7 -60 10 -19 3 -44 7
-55 10 -11 2 -94 16 -185 30 -91 14 -190 33 -220 41 -30 8 -94 17 -143 19 -48
3 -91 7 -96 10 -18 11 -161 18 -161 8 0 -6 8 -13 18 -16 21 -7 159 -31 267
-46 44 -6 91 -13 105 -15 14 -2 77 -11 140 -20 162 -23 160 -23 208 -30 47 -8
60 -9 152 -20 36 -4 67 -8 70 -10 3 -2 30 -6 60 -9 30 -4 66 -9 80 -11 14 -3
41 -7 60 -10 19 -3 46 -7 60 -10 14 -2 45 -7 70 -10 86 -11 104 -18 334 -131
290 -142 351 -194 363 -307 8 -76 -6 -98 -57 -92 -22 3 -58 7 -79 10 -22 3
-42 1 -46 -4 -6 -11 13 -18 80 -26 56 -7 60 -9 52 -28 -5 -13 -115 -46 -162
-49 -74 -4 -209 32 -291 77 -73 41 -97 65 -65 65 34 0 24 19 -14 26 -57 10
-98 69 -130 186 -12 45 -20 59 -38 62 -59 13 -145 29 -167 31 -14 2 -48 8 -76
14 -108 21 -114 10 -78 -142 9 -37 13 -71 10 -74 -5 -5 -209 22 -321 44 -11 2
-33 5 -50 8 -16 2 -48 7 -70 10 -22 4 -53 8 -70 11 -16 3 -55 9 -85 14 -30 5
-73 11 -95 14 -22 3 -69 10 -105 16 -83 12 -130 13 -130 0 0 -10 51 -26 115
-35 22 -4 51 -8 65 -11 26 -4 109 -15 145 -18 25 -3 124 -17 149 -22 10 -2 44
-6 75 -9 31 -4 63 -8 71 -10 8 -2 41 -7 73 -10 32 -4 66 -8 75 -10 10 -2 45
-6 77 -10 66 -7 115 -23 115 -36 0 -24 92 -158 147 -214 154 -158 320 -232
648 -290 59 -10 172 -6 238 9 164 38 270 116 321 239 33 76 36 77 147 57 30
-5 68 -12 84 -14 17 -3 62 -10 100 -16 39 -7 84 -14 100 -17 17 -2 89 -15 160
-28 72 -13 149 -26 173 -30 29 -5 42 -12 43 -23 0 -10 2 -26 4 -37 2 -11 6
-58 9 -105 16 -219 18 -224 108 -235 35 -5 65 -9 68 -10 3 0 28 -4 55 -9 28
-4 65 -12 83 -17 62 -20 104 33 74 95 -9 18 -14 69 -15 145 l-2 116 25 -1 c26
0 92 -10 132 -18 12 -3 41 -7 63 -10 67 -8 174 -24 305 -45 69 -12 142 -23
164 -27 21 -3 46 -7 55 -9 92 -17 342 -48 347 -42 23 22 -70 50 -246 72 -25 3
-56 8 -70 10 -14 3 -43 7 -65 10 -22 3 -53 8 -70 10 -56 8 -390 65 -415 70
-14 3 -40 8 -59 11 -18 3 -41 7 -50 9 -9 1 -35 6 -58 10 -23 3 -46 12 -51 18
-11 13 -17 64 -27 207 -3 47 -8 105 -10 130 -7 76 -7 76 156 50 79 -12 153
-24 164 -26 11 -2 99 -15 195 -29 96 -14 189 -28 205 -30 17 -3 53 -8 80 -11
28 -4 122 -18 210 -33 88 -15 168 -25 178 -23 29 6 19 21 -20 31 -41 11 -58
14 -178 31 -44 6 -173 27 -287 45 -114 19 -227 37 -250 40 -24 3 -50 7 -58 9
-8 1 -37 6 -65 10 -27 4 -72 11 -100 16 -27 5 -67 12 -87 15 -145 20 -145 20
-152 48 -3 13 -8 75 -11 138 -9 177 -12 218 -20 310 -7 79 -6 88 11 97 13 7
69 1 189 -19 229 -38 258 -41 275 -29 16 10 17 73 5 202 -12 119 -16 124 -100
133 -33 3 -67 8 -75 10 -8 2 -35 7 -60 10 -25 3 -52 8 -60 10 -14 4 -42 8
-127 20 -21 3 -49 8 -63 11 -14 2 -43 7 -65 9 -22 3 -51 7 -65 10 -14 2 -41 7
-60 10 -19 3 -57 10 -85 15 -27 5 -66 12 -85 14 -62 10 -284 45 -310 50 -14 3
-43 7 -65 10 -22 4 -64 11 -94 17 -72 15 -83 3 -86 -88 -1 -37 1 -75 5 -83 4
-8 10 -42 14 -74 3 -32 11 -65 16 -71 6 -7 30 -16 54 -19 23 -4 54 -9 67 -11
13 -2 69 -11 124 -20 210 -32 252 -46 259 -83 3 -15 8 -76 12 -137 3 -60 7
-117 9 -125 10 -58 15 -279 6 -284 -6 -4 -37 -2 -68 3 -32 6 -78 13 -103 16
-25 3 -56 8 -70 10 -14 2 -43 7 -65 10 -22 3 -51 8 -65 10 -36 6 -306 43 -367
51 -36 4 -53 2 -53 -5 0 -6 3 -11 8 -12 16 -2 70 -10 127 -19 33 -5 80 -12
105 -15 25 -3 88 -13 140 -21 52 -9 109 -18 125 -20 17 -3 67 -12 112 -20 45
-8 101 -17 125 -20 55 -7 68 -25 69 -93 2 -60 2 -67 13 -214 9 -121 5 -127
-66 -116 -29 5 -71 11 -93 14 -22 3 -51 7 -65 9 -14 2 -46 7 -71 10 -25 4 -59
9 -75 11 -73 12 -92 15 -139 20 -27 3 -72 10 -100 15 -27 5 -71 11 -97 15 -27
3 -48 9 -48 13 -2 150 -25 293 -56 354 -27 53 -99 150 -141 189 -71 67 -186
130 -463 257 -294 134 -359 174 -390 245 -21 46 -18 118 5 153 39 59 146 83
260 57 178 -40 277 -122 314 -259 6 -23 17 -46 24 -52 7 -6 44 -16 82 -22 39
-6 81 -13 95 -16 14 -2 40 -7 59 -10 19 -3 45 -10 58 -15 39 -15 59 -11 70 14
9 19 4 46 -28 140 -40 121 -77 190 -147 268 -115 129 -303 224 -525 264 -85
16 -173 26 -179 20z"/>
<path d="M5521 8022 c-6 -2 -15 -12 -21 -21 -7 -13 -239 -879 -265 -991 -2 -8
-40 -152 -84 -320 -45 -168 -81 -315 -81 -328 0 -28 24 -38 115 -47 39 -4 98
-13 133 -21 88 -19 98 -18 110 14 9 24 36 131 46 187 9 48 30 121 38 138 10
20 17 19 163 -3 33 -5 80 -12 105 -15 25 -3 56 -7 69 -10 14 -2 47 -7 75 -10
28 -3 58 -8 66 -10 8 -2 40 -7 70 -10 30 -4 60 -13 66 -20 6 -8 42 -93 79
-189 76 -193 73 -190 170 -202 28 -3 57 -8 65 -9 13 -3 113 -16 145 -20 6 -1
18 2 27 7 23 11 18 33 -52 204 -33 81 -60 151 -60 156 0 6 22 8 50 6 63 -6 52
11 -16 23 -27 5 -51 13 -55 17 -8 7 -151 350 -175 415 l-14 38 53 -6 c119 -14
138 -16 244 -30 23 -3 44 -2 47 3 5 8 -110 31 -242 49 -18 3 -53 10 -78 16
l-46 12 -70 165 c-38 91 -94 221 -123 290 -29 69 -85 202 -126 297 l-73 172
-50 11 c-92 18 -293 46 -305 42z m229 -522 c0 -6 9 -30 21 -54 47 -101 137
-341 128 -344 -7 -3 -102 9 -164 22 -11 2 -39 7 -62 11 -24 4 -43 9 -43 11 0
5 61 251 81 327 6 21 16 37 24 37 8 0 15 -5 15 -10z m0 -415 c30 -4 63 -9 74
-11 11 -2 38 -6 61 -10 22 -3 42 -7 43 -9 2 -2 15 -34 28 -70 19 -52 22 -71
13 -81 -6 -8 -14 -12 -18 -10 -3 2 -42 7 -85 11 -43 4 -88 9 -100 11 -12 2
-39 6 -61 9 -97 14 -115 21 -115 48 0 19 13 76 25 113 4 12 25 12 135 -1z"/>
<path d="M7113 7833 c-15 -6 -17 -48 -4 -89 5 -16 12 -76 16 -134 7 -118 11
-170 19 -250 3 -30 8 -97 11 -148 4 -52 8 -101 10 -110 1 -10 6 -73 9 -142 4
-69 9 -145 11 -170 3 -25 7 -70 10 -100 3 -30 8 -75 10 -100 3 -25 7 -72 10
-105 5 -71 16 -216 20 -263 1 -18 6 -37 11 -42 14 -14 291 -63 310 -56 14 5
15 22 10 122 l-6 117 67 -6 c38 -4 93 -11 123 -17 66 -11 78 -13 245 -40 72
-11 141 -22 155 -25 14 -2 68 -11 120 -20 52 -8 106 -17 120 -20 14 -2 41 -7
60 -9 19 -3 103 -17 185 -31 83 -14 160 -28 173 -30 45 -8 62 -17 63 -33 0 -9
2 -26 4 -37 3 -11 7 -60 11 -110 3 -49 9 -93 13 -97 7 -8 156 -40 258 -55 60
-8 77 8 69 67 -3 25 -9 78 -12 118 l-6 74 48 -6 c27 -4 74 -11 104 -16 74 -13
106 -18 160 -25 25 -3 52 -8 60 -10 8 -2 38 -7 66 -10 28 -3 60 -7 71 -9 12
-3 29 1 39 9 17 12 15 14 -23 24 -40 11 -104 24 -183 36 -19 3 -87 14 -150 25
-162 28 -164 28 -177 29 -17 1 -25 53 -39 254 -6 96 1 116 39 112 12 -2 141
-25 285 -51 280 -51 298 -51 296 -3 0 13 -4 60 -9 104 -4 44 -8 89 -9 100 0
11 -12 25 -26 32 -23 10 -301 64 -410 78 -92 12 -174 31 -186 42 -8 8 -14 24
-15 36 0 12 -2 31 -4 42 -4 19 -14 142 -20 230 -5 69 4 71 170 39 50 -9 99
-18 110 -19 11 -2 58 -10 105 -19 47 -8 100 -18 117 -21 18 -3 61 -12 95 -20
85 -19 105 -17 117 16 5 15 8 29 6 31 -2 2 -7 37 -10 78 -11 121 -12 124 -19
146 -5 16 -21 22 -84 33 -81 13 -329 58 -366 66 -11 2 -34 6 -51 9 -28 3 -114
19 -175 31 -14 3 -50 9 -80 15 -30 6 -66 12 -80 15 -208 41 -233 38 -224 -24
2 -14 8 -75 13 -136 6 -60 12 -128 15 -150 6 -53 15 -143 21 -230 3 -38 8
-104 11 -145 9 -96 11 -163 7 -171 -1 -4 -22 -3 -45 1 -24 5 -61 10 -83 13
-68 9 -319 47 -340 51 -23 4 -154 26 -180 30 -26 4 -33 25 -41 122 -3 49 -11
94 -16 101 -5 6 -41 17 -81 23 -40 6 -88 16 -107 20 -19 5 -57 12 -85 15 -69
8 -327 55 -336 61 -13 8 -26 97 -35 251 -6 102 -5 113 11 119 22 9 389 -55
646 -111 29 -6 57 22 54 52 -1 16 -6 64 -10 108 -9 105 -12 126 -24 138 -8 8
-74 23 -181 41 -57 9 -346 62 -392 72 -22 4 -39 7 -118 21 -19 3 -44 7 -55 9
-221 42 -266 48 -292 37z m547 -1058 c14 -3 66 -12 115 -21 132 -22 138 -23
165 -29 14 -3 60 -11 102 -17 67 -10 80 -9 95 4 16 14 42 12 273 -27 242 -41
306 -53 340 -60 8 -2 24 -4 35 -4 37 -2 46 -16 50 -82 2 -35 7 -111 10 -169 4
-58 8 -116 9 -130 1 -25 0 -25 -69 -24 -73 1 -146 8 -230 24 -27 5 -70 12 -95
15 -25 3 -70 10 -100 15 -30 5 -89 15 -130 21 -41 6 -102 14 -135 19 -33 5
-86 12 -118 15 -32 4 -66 8 -75 10 -9 1 -42 6 -72 9 -30 4 -77 11 -105 16 -27
5 -71 12 -97 15 -63 7 -78 14 -79 34 -1 9 -3 30 -4 46 -20 182 -27 304 -21
322 5 13 16 15 59 10 28 -3 63 -9 77 -12z"/>
<path d="M510 6941 c0 -15 34 -27 100 -35 60 -7 243 -34 276 -40 12 -2 45 -7
74 -11 29 -4 61 -8 71 -10 9 -2 39 -6 66 -10 45 -6 71 -10 133 -20 14 -2 48
-6 75 -10 28 -3 62 -8 76 -10 14 -3 41 -7 60 -9 94 -13 195 -28 299 -46 63
-10 138 -22 165 -25 28 -3 73 -10 100 -15 28 -5 68 -12 90 -14 86 -10 141 -17
161 -21 22 -5 137 -22 209 -31 22 -3 65 -9 95 -14 30 -6 71 -12 90 -14 29 -4
143 -21 275 -41 17 -2 48 -7 70 -10 22 -3 81 -12 130 -20 50 -8 110 -16 135
-20 25 -3 70 -10 100 -15 30 -5 73 -11 95 -14 22 -3 69 -9 105 -15 36 -6 83
-13 105 -16 74 -11 90 -14 185 -30 52 -9 106 -18 120 -20 27 -4 262 -40 323
-50 22 -4 58 -13 80 -22 23 -8 83 -16 133 -18 50 -1 100 -5 110 -8 11 -3 39
-8 64 -11 25 -3 56 -8 70 -11 28 -6 125 -22 185 -30 49 -7 141 -23 175 -30 26
-6 97 -11 260 -19 52 -3 140 -13 195 -21 116 -19 147 -23 195 -30 19 -3 44 -7
55 -9 11 -2 45 -7 75 -12 30 -4 57 -8 60 -9 3 -1 30 -5 60 -9 30 -4 66 -9 80
-11 14 -3 57 -9 95 -14 39 -6 87 -13 108 -16 20 -3 54 -7 75 -10 20 -3 48 -7
62 -10 14 -2 41 -6 60 -9 19 -3 130 -19 245 -36 116 -17 230 -33 255 -35 25
-3 54 -7 66 -10 11 -2 43 -7 70 -10 27 -3 56 -8 64 -10 8 -2 39 -7 69 -10 30
-4 63 -9 75 -11 12 -2 82 -14 156 -25 74 -11 146 -22 160 -24 14 -3 72 -12
130 -20 58 -9 143 -22 190 -30 47 -8 105 -17 130 -20 25 -3 70 -10 100 -15 56
-10 69 -12 180 -29 36 -6 81 -13 100 -16 19 -4 100 -8 180 -11 132 -4 143 -4
126 11 -11 8 -31 15 -45 16 -41 2 -185 17 -226 25 -11 2 -42 6 -70 9 -27 3
-61 7 -75 9 -14 3 -74 12 -135 20 -60 9 -121 18 -135 20 -14 3 -72 12 -130 20
-58 9 -116 18 -130 20 -14 3 -61 10 -105 16 -44 7 -88 14 -97 15 -15 3 -189
29 -278 41 -19 3 -42 7 -50 9 -8 2 -35 7 -60 10 -25 3 -88 13 -140 21 -52 8
-112 17 -135 19 -22 3 -51 7 -65 10 -14 2 -45 7 -70 10 -25 3 -106 15 -180 26
-74 11 -146 22 -160 24 -14 2 -47 6 -75 9 -43 6 -158 20 -320 42 -22 3 -51 7
-65 9 -24 4 -173 24 -215 30 -51 6 -132 18 -150 21 -19 4 -54 9 -120 18 -16 2
-59 7 -95 11 -36 4 -68 9 -71 10 -3 2 -34 6 -70 10 -61 5 -93 10 -149 20 -14
2 -45 7 -70 10 -25 3 -70 10 -100 15 -30 5 -75 12 -100 15 -50 7 -248 40 -325
55 -173 33 -217 40 -295 46 -41 2 -88 7 -105 10 -16 3 -41 7 -55 9 -14 2 -101
15 -195 30 -215 33 -205 31 -300 45 -44 7 -87 13 -95 15 -8 1 -35 6 -60 9 -25
4 -85 13 -135 21 -49 8 -108 16 -130 19 -82 12 -113 16 -235 36 -69 11 -143
22 -165 25 -63 9 -107 15 -150 20 -22 3 -51 8 -65 10 -14 3 -59 10 -100 15
-41 5 -91 12 -110 15 -19 3 -66 10 -105 16 -38 6 -82 13 -97 15 -70 10 -87 13
-143 19 -32 4 -66 8 -75 10 -8 1 -40 6 -71 9 -31 4 -66 8 -76 10 -11 3 -44 7
-74 11 -30 3 -61 8 -69 10 -8 2 -33 6 -55 9 -22 3 -121 17 -220 31 -99 14
-198 28 -220 31 -22 3 -78 11 -125 19 -47 7 -105 16 -130 19 -25 3 -56 7 -70
10 -14 2 -46 7 -71 10 -25 4 -57 8 -70 10 -13 3 -44 7 -69 10 -25 3 -64 9 -87
12 -29 4 -43 2 -43 -5z"/>
<path d="M6785 6483 c6 -6 44 -16 85 -22 135 -21 170 -24 170 -13 0 6 -24 13
-52 17 -29 4 -62 9 -73 11 -58 12 -139 16 -130 7z"/>
<path d="M1423 5884 c-9 -23 -9 -261 1 -409 3 -60 9 -182 11 -270 3 -88 7
-210 10 -271 5 -92 3 -113 -10 -124 -14 -11 -14 -14 1 -24 12 -10 17 -34 19
-107 5 -119 8 -300 6 -317 -1 -11 -17 -13 -77 -8 -42 3 -79 8 -83 10 -3 2 -15
0 -26 -4 -15 -5 -8 -10 33 -19 29 -6 67 -11 85 -12 42 -1 70 -12 72 -30 1 -8
5 -43 9 -77 12 -108 17 -113 107 -127 19 -2 81 -12 139 -20 58 -8 116 -17 130
-19 31 -5 99 -14 165 -21 28 -3 82 -10 120 -16 39 -5 90 -12 115 -15 49 -5
249 -33 290 -40 118 -20 209 -21 221 -3 5 8 9 53 9 100 0 47 2 88 5 91 3 2 44
-1 93 -8 48 -7 110 -16 137 -20 28 -3 52 -7 55 -9 3 -1 36 -6 75 -10 38 -4 72
-8 75 -10 3 -2 30 -6 60 -9 30 -3 64 -8 75 -10 11 -2 39 -7 63 -11 23 -4 42
-10 43 -13 0 -4 1 -40 2 -79 3 -85 19 -109 82 -119 22 -3 43 -8 46 -10 3 -1
34 -8 70 -13 35 -6 75 -13 89 -16 48 -10 121 -8 133 4 7 7 14 48 16 92 l3 80
57 -5 c70 -7 156 -18 336 -42 17 -2 64 -8 105 -13 74 -10 367 -48 425 -56 17
-2 53 -7 80 -10 28 -4 61 -9 75 -11 41 -6 120 -17 143 -19 12 0 30 5 39 13 15
12 18 11 31 -15 20 -37 47 -67 74 -82 27 -14 159 -39 233 -45 73 -5 96 5 110
49 l12 36 66 -6 c108 -11 115 -12 162 -18 25 -4 104 -13 175 -22 136 -17 170
-21 245 -30 25 -3 61 -8 80 -10 19 -2 71 -7 115 -11 44 -3 85 -11 92 -18 9 -9
20 -65 22 -113 1 -16 45 -45 74 -49 49 -6 102 -16 110 -21 17 -10 111 -4 123
9 11 11 22 69 23 120 1 19 1 19 176 -2 147 -17 135 -9 136 -93 1 -93 9 -119
40 -134 27 -13 118 -29 219 -38 92 -9 102 0 104 101 2 91 7 104 41 98 13 -2
26 0 30 5 3 6 -10 13 -30 17 -19 3 -37 10 -40 14 -3 4 -7 68 -11 141 -3 74 -7
166 -9 204 -2 39 -7 133 -10 210 -4 77 -8 159 -10 182 -2 24 1 45 6 48 7 5
119 -154 119 -169 0 -2 52 -91 116 -197 153 -256 274 -465 274 -473 0 -4 -41
-4 -90 0 -64 5 -90 3 -90 -5 0 -6 12 -12 28 -12 15 -1 36 -3 47 -4 11 -2 38
-4 60 -6 22 -1 49 -8 61 -15 11 -7 49 -60 82 -118 34 -58 72 -112 85 -120 20
-14 46 -19 137 -30 19 -2 60 -8 90 -12 73 -10 120 -8 131 3 6 6 10 56 10 113
l0 102 42 -6 c23 -4 60 -9 82 -12 22 -3 63 -9 90 -14 28 -5 136 -21 240 -35
249 -33 241 -31 310 -83 70 -52 196 -114 281 -138 34 -9 112 -18 185 -20 140
-4 204 8 274 53 47 31 112 36 127 9 25 -44 50 -56 119 -56 52 0 72 4 93 21 24
19 31 20 95 10 86 -14 138 -14 146 -2 9 16 -28 30 -112 42 -127 19 -120 12
-121 126 -1 54 -4 145 -8 201 l-6 104 110 -7 c70 -4 112 -3 116 4 10 15 -2 19
-115 36 -57 9 -107 20 -110 23 -4 4 -9 60 -12 124 -3 65 -11 127 -17 138 -12
22 -84 46 -165 55 -27 3 -59 8 -70 10 -11 2 -43 7 -71 10 -28 3 -61 8 -75 11
-13 2 -60 7 -105 11 -75 5 -82 4 -102 -17 -19 -21 -21 -32 -17 -105 2 -45 9
-94 15 -109 19 -50 15 -53 -47 -45 -103 13 -158 20 -183 24 -14 2 -56 7 -95
11 -95 9 -101 13 -110 81 -4 31 -9 66 -11 78 -6 28 -6 185 0 214 18 86 81 213
128 258 44 42 138 84 191 86 148 3 274 -80 357 -238 44 -84 76 -99 230 -111
70 -5 90 9 90 65 0 47 -33 152 -67 211 -65 113 -146 201 -243 265 -170 111
-266 140 -470 140 -125 0 -154 -3 -210 -23 -115 -39 -231 -134 -292 -240 -39
-66 -88 -192 -104 -267 -9 -44 -11 -262 -3 -315 4 -25 10 -67 13 -94 l7 -49
-73 7 c-40 4 -84 8 -98 10 -14 2 -50 7 -80 10 -30 3 -68 8 -85 11 -16 3 -43 7
-59 10 -16 2 -30 5 -31 7 -2 2 -6 71 -10 153 -11 237 -15 314 -20 400 -2 44
-7 134 -10 200 -10 208 -19 226 -115 241 -70 11 -80 13 -162 19 -72 7 -77 6
-88 -15 -8 -16 -10 -50 -6 -109 3 -47 9 -153 12 -236 3 -82 7 -163 9 -180 4
-25 12 -194 19 -380 1 -34 -2 -40 -21 -43 -18 -3 -35 20 -109 145 -48 81 -97
164 -109 183 -13 19 -42 69 -66 110 -23 41 -105 180 -181 307 -76 128 -138
237 -138 242 0 4 -19 29 -42 53 -40 43 -48 47 -118 58 -41 6 -86 14 -100 16
-14 2 -53 7 -86 10 -95 8 -98 2 -89 -165 4 -75 9 -181 11 -236 2 -55 6 -152 9
-215 3 -63 7 -181 10 -261 2 -80 6 -152 9 -160 2 -8 7 -108 10 -222 l5 -208
-37 5 c-20 3 -64 8 -97 11 -33 3 -83 11 -111 17 l-52 11 1 101 c1 55 -3 153
-7 216 l-9 115 53 -4 c64 -4 61 14 -5 23 -24 4 -46 10 -49 14 -2 4 -7 45 -10
92 -4 47 -9 108 -12 135 -10 112 -14 154 -19 242 -3 51 -8 100 -9 110 -2 10
-7 68 -11 128 -13 212 -19 252 -41 276 -17 18 -241 62 -294 57 l-35 -3 0 -105
c0 -58 4 -143 8 -190 11 -119 22 -272 32 -442 2 -43 7 -116 10 -164 l7 -86
-44 6 c-23 3 -65 8 -93 11 -51 6 -110 13 -155 20 -14 2 -47 6 -75 10 -100 12
-212 26 -305 40 -14 2 -47 7 -73 11 -38 5 -47 10 -42 23 2 9 9 39 14 66 6 28
37 163 71 300 33 138 63 266 66 285 3 19 9 49 14 65 11 40 22 101 25 150 4 61
-33 97 -115 111 -14 2 -47 9 -73 14 -70 14 -133 12 -150 -5 -13 -13 -29 -66
-41 -135 -2 -14 -18 -86 -34 -160 -17 -74 -33 -146 -35 -160 -3 -14 -26 -117
-52 -230 -26 -113 -49 -215 -51 -227 -8 -44 -25 -76 -34 -67 -4 5 -40 95 -79
199 -247 670 -294 795 -314 835 -23 47 -49 65 -107 75 -19 3 -60 10 -90 15
-152 26 -171 23 -172 -26 0 -16 62 -193 137 -394 76 -201 146 -387 156 -415 9
-27 31 -87 48 -133 17 -46 31 -88 31 -94 0 -9 -85 -5 -150 7 -37 7 -98 16
-135 20 -46 6 -83 11 -180 25 -310 45 -331 48 -405 55 -103 11 -182 24 -188
30 -9 8 -11 101 -13 585 -1 234 -6 439 -10 457 -11 38 -26 44 -199 74 -150 26
-208 28 -221 8 -9 -12 -8 -352 2 -974 2 -102 1 -104 -23 -100 -13 2 -50 6 -83
10 -33 4 -73 8 -90 10 -16 2 -52 7 -80 10 -27 3 -63 8 -80 10 -37 5 -102 13
-175 21 -30 3 -66 7 -79 9 -27 5 -85 12 -151 20 -25 3 -54 7 -66 9 -60 12
-178 17 -169 8 9 -10 35 -15 130 -26 45 -6 105 -14 150 -21 17 -3 53 -7 80
-10 28 -3 61 -8 75 -10 14 -2 48 -7 75 -10 28 -3 61 -8 75 -10 14 -2 44 -7 68
-10 82 -10 128 -16 187 -25 33 -5 80 -12 105 -15 25 -4 46 -8 48 -9 10 -10 16
-201 13 -385 l-1 -33 -57 6 c-32 3 -76 8 -98 11 -165 20 -223 27 -245 31 -14
2 -50 6 -80 10 -122 13 -183 23 -192 32 -5 5 -11 22 -13 38 -5 51 -30 61 -225
89 -14 2 -50 7 -80 10 -30 3 -67 8 -81 11 -15 2 -44 6 -65 9 -22 3 -52 7 -69
9 -16 2 -86 12 -155 21 -69 9 -136 19 -149 22 -47 11 -53 52 -67 403 -2 80 -7
181 -8 225 -2 44 -7 168 -10 275 -4 107 -9 227 -11 265 -3 39 -7 110 -10 159
-3 49 -10 95 -16 103 -13 15 -63 29 -138 37 -29 4 -57 9 -62 11 -4 3 -48 8
-98 12 -83 5 -91 4 -98 -13z m2692 -1448 c22 -3 58 -8 80 -11 21 -2 73 -9 115
-15 42 -6 94 -12 115 -15 97 -11 142 -17 165 -20 14 -2 52 -6 85 -10 33 -3 67
-7 75 -10 8 -2 45 -6 82 -10 88 -8 121 -14 131 -25 11 -10 77 -171 123 -300
19 -52 39 -99 44 -104 6 -6 10 -19 10 -29 0 -15 -5 -18 -22 -13 -33 10 -124
24 -193 31 -33 3 -71 7 -85 10 -14 2 -43 7 -65 9 -87 11 -211 27 -235 31 -14
2 -43 6 -65 9 -120 17 -533 77 -554 81 -13 2 -26 6 -28 9 -6 6 -15 385 -10
400 5 12 64 7 232 -18z m1725 -201 c25 -3 74 -10 110 -15 36 -5 90 -12 120
-15 30 -3 66 -7 80 -10 14 -2 48 -6 75 -9 90 -9 160 -18 184 -21 13 -3 44 -7
68 -11 30 -4 43 -11 44 -23 0 -9 2 -45 4 -81 2 -36 7 -92 10 -125 3 -33 8 -94
12 -136 l5 -75 -138 18 c-77 10 -157 20 -179 23 -22 3 -56 7 -75 10 -118 16
-181 25 -225 30 -27 4 -61 8 -75 11 -14 2 -71 9 -127 16 -89 10 -103 14 -103
30 0 41 78 367 92 385 5 6 23 10 41 7 18 -2 52 -6 77 -9z m2948 -370 c132 -16
153 -19 202 -30 22 -5 30 -21 68 -133 39 -115 50 -136 113 -216 38 -48 66 -92
63 -97 -3 -5 -9 -7 -14 -4 -5 3 -29 7 -52 10 -41 3 -113 12 -168 20 -70 10
-263 35 -320 40 -36 4 -68 9 -71 11 -6 3 -15 120 -25 325 l-5 96 38 -2 c21 -2
98 -10 171 -20z m782 -110 c14 -3 66 -13 115 -23 50 -10 119 -19 155 -21 66
-2 268 -29 281 -37 18 -11 -40 -133 -78 -164 -52 -44 -85 -60 -135 -68 -31 -5
-64 -7 -74 -6 -78 11 -105 19 -156 46 -69 36 -171 141 -216 220 -18 31 -32 59
-32 63 0 7 81 1 140 -10z"/>
<path d="M397 4943 c-21 -5 -18 -25 4 -28 7 -1 48 -5 89 -9 81 -7 146 -14 197
-21 18 -3 54 -7 80 -10 27 -3 80 -10 118 -14 39 -5 74 -5 78 -1 10 9 -17 15
-103 26 -30 3 -63 8 -74 10 -10 2 -44 6 -75 10 -31 3 -58 8 -61 9 -3 2 -33 7
-65 10 -33 4 -62 9 -65 10 -11 7 -106 13 -123 8z"/>
<path d="M1028 4853 c7 -3 16 -2 19 1 4 3 -2 6 -13 5 -11 0 -14 -3 -6 -6z"/>
<path d="M1125 4842 c6 -6 35 -13 65 -16 30 -3 78 -10 107 -14 29 -5 57 -5 64
-1 8 4 -3 10 -27 14 -21 3 -52 8 -69 11 -77 13 -150 16 -140 6z"/>
<path d="M1945 4740 c-3 -5 2 -10 12 -11 10 0 27 -2 38 -4 11 -3 45 -7 75 -10
30 -4 84 -11 120 -16 83 -11 103 -11 96 0 -5 8 -42 16 -131 26 -96 11 -132 16
-167 21 -20 2 -39 0 -43 -6z"/>
<path d="M391 4471 c-19 -13 -2 -19 65 -25 62 -5 77 -7 274 -32 69 -8 145 -18
170 -21 25 -3 72 -8 105 -13 33 -4 64 -4 68 0 9 8 -18 16 -88 25 -22 3 -53 7
-70 10 -16 2 -59 7 -95 10 -36 3 -72 8 -80 10 -14 4 -31 6 -140 20 -25 3 -56
8 -70 10 -67 12 -126 14 -139 6z"/>
<path d="M1130 4382 c0 -14 43 -23 54 -12 7 7 4 10 -6 10 -9 0 -23 3 -32 6 -9
3 -16 2 -16 -4z"/>
<path d="M384 3998 c-9 -14 -3 -16 61 -23 70 -6 136 -14 185 -20 19 -3 161
-21 315 -40 154 -19 300 -38 325 -41 72 -10 92 -12 160 -19 36 -4 76 -8 90
-11 14 -2 81 -11 150 -19 69 -8 139 -17 155 -20 17 -2 91 -11 165 -20 74 -9
149 -18 165 -20 52 -8 188 -24 250 -30 33 -4 71 -8 85 -10 14 -2 43 -7 65 -9
54 -7 109 -14 159 -21 154 -21 185 -25 221 -29 22 -3 60 -8 85 -11 56 -6 351
-43 405 -51 81 -11 226 -30 300 -40 17 -2 44 -6 60 -8 27 -4 223 -31 300 -41
17 -2 46 -6 65 -9 19 -3 58 -8 85 -12 28 -3 62 -12 76 -20 16 -8 76 -15 155
-18 71 -3 138 -7 149 -9 11 -3 47 -8 80 -11 33 -4 71 -9 85 -11 14 -2 63 -9
110 -15 47 -5 96 -12 110 -15 124 -21 286 -38 388 -41 120 -3 201 -8 272 -18
100 -14 190 -26 232 -31 26 -3 62 -7 80 -10 40 -5 181 -24 223 -30 17 -2 57
-7 90 -10 33 -4 71 -8 85 -11 46 -7 151 -21 230 -29 30 -3 69 -7 85 -10 17 -2
50 -7 75 -10 40 -4 241 -29 330 -40 19 -2 71 -9 115 -15 44 -5 103 -12 130
-15 28 -3 64 -7 80 -10 17 -2 57 -7 90 -10 33 -4 92 -11 130 -16 39 -5 90 -12
115 -15 25 -2 54 -6 66 -9 11 -2 43 -7 70 -10 27 -3 60 -8 74 -10 14 -3 50 -7
80 -11 30 -3 65 -7 76 -9 12 -2 48 -6 80 -10 33 -3 74 -8 92 -11 18 -2 54 -7
80 -10 26 -3 58 -7 72 -9 14 -2 63 -9 110 -15 47 -6 96 -13 110 -15 23 -4 46
-7 168 -20 26 -3 74 -10 107 -15 60 -9 103 -16 180 -25 22 -3 51 -7 64 -10 13
-2 49 -7 80 -10 31 -4 63 -8 71 -10 8 -2 42 -7 75 -10 33 -3 67 -8 75 -10 8
-2 128 -18 265 -35 262 -33 301 -38 350 -45 17 -2 53 -7 80 -10 28 -3 61 -8
75 -10 14 -3 48 -7 75 -10 28 -4 57 -8 65 -10 8 -2 47 -7 85 -11 39 -3 73 -8
76 -10 17 -10 159 -14 159 -5 0 6 1 14 3 18 4 11 -57 25 -158 38 -27 3 -61 8
-75 10 -14 2 -46 6 -72 9 -26 3 -62 8 -80 11 -28 4 -138 18 -231 31 -15 2 -44
6 -65 9 -20 2 -57 7 -82 10 -25 3 -61 7 -80 10 -19 2 -73 9 -120 15 -47 6
-128 19 -180 30 -52 10 -142 21 -200 25 -105 6 -127 8 -197 19 -45 7 -100 14
-168 21 -48 5 -114 13 -165 20 -14 2 -52 7 -85 10 -33 4 -86 10 -119 15 -32 5
-61 9 -65 8 -6 -2 -93 10 -134 18 -15 3 -285 37 -387 49 -19 2 -57 7 -85 10
-27 3 -68 8 -90 11 -22 2 -51 7 -65 9 -14 2 -50 7 -80 10 -58 7 -81 9 -145 19
-57 8 -102 14 -255 31 -74 9 -146 18 -160 20 -14 3 -43 7 -65 10 -22 2 -80 9
-130 15 -49 6 -110 13 -135 16 -41 4 -77 8 -165 19 -31 4 -101 12 -190 21 -27
3 -61 7 -75 9 -14 3 -61 7 -105 11 -44 3 -82 8 -85 9 -3 2 -42 7 -85 10 -44 4
-83 9 -86 11 -3 1 -32 6 -65 9 -32 3 -70 8 -84 10 -36 6 -97 13 -160 20 -30 4
-66 8 -80 10 -14 2 -59 6 -100 10 -41 3 -82 8 -90 10 -8 2 -46 6 -85 10 -38 3
-81 8 -95 10 -14 2 -52 7 -85 10 -33 3 -71 8 -85 10 -14 2 -117 16 -230 30
-113 14 -216 28 -230 30 -132 19 -181 27 -220 35 -84 17 -136 23 -305 35 -44
3 -91 7 -105 9 -14 3 -68 10 -120 16 -52 6 -106 13 -120 16 -14 2 -79 11 -145
20 -66 9 -131 17 -145 19 -14 2 -56 7 -95 10 -38 4 -73 9 -76 11 -3 2 -36 6
-73 9 -37 4 -76 8 -88 10 -11 3 -46 7 -77 11 -31 3 -63 8 -71 9 -9 2 -43 6
-75 10 -33 4 -68 9 -79 11 -10 2 -44 6 -75 9 -31 3 -65 8 -76 10 -11 2 -51 6
-90 10 -38 3 -79 8 -90 10 -11 2 -47 7 -80 10 -33 4 -71 8 -85 10 -24 4 -150
19 -250 31 -25 3 -58 7 -75 9 -175 22 -197 25 -230 30 -16 3 -52 7 -80 10 -83
8 -148 15 -185 20 -19 2 -62 7 -95 10 -33 3 -71 8 -85 10 -14 3 -56 7 -95 11
-38 3 -76 7 -85 9 -8 1 -44 6 -80 10 -36 3 -76 8 -90 10 -14 2 -50 7 -80 10
-30 3 -66 8 -80 10 -73 10 -109 15 -145 19 -22 3 -58 7 -80 10 -186 23 -244
26 -251 14z"/>
<path d="M1480 3210 c-24 -6 -25 -9 -24 -76 1 -57 25 -153 142 -559 177 -615
192 -670 192 -690 0 -17 -12 -17 -145 0 -41 6 -110 14 -170 20 -109 12 -151
16 -175 20 -14 2 -59 7 -100 10 -41 3 -86 8 -100 10 -14 2 -55 6 -92 10 -37 3
-75 7 -85 9 -10 2 -49 7 -87 11 -38 4 -79 8 -90 10 -12 2 -52 6 -91 10 -38 4
-72 8 -75 10 -3 2 -49 6 -103 10 -69 5 -97 4 -97 -4 0 -6 6 -11 13 -12 6 0 19
-2 27 -4 9 -1 60 -6 113 -10 54 -3 108 -8 120 -10 12 -2 51 -6 87 -10 97 -9
152 -15 185 -20 17 -2 62 -7 100 -11 39 -3 81 -8 95 -10 14 -2 54 -6 90 -9 36
-3 72 -8 80 -10 8 -2 47 -7 85 -10 39 -4 81 -8 95 -10 14 -2 50 -6 80 -10 120
-13 251 -32 255 -37 5 -6 115 -405 115 -417 0 -12 -69 -11 -175 3 -16 2 -60 7
-96 10 -36 4 -76 8 -90 11 -13 2 -64 6 -113 10 -50 4 -99 9 -110 11 -11 2 -61
6 -111 9 -65 4 -87 3 -79 -5 6 -6 28 -13 50 -15 21 -2 66 -7 99 -10 33 -3 74
-8 90 -10 34 -5 186 -22 255 -30 25 -3 61 -7 80 -10 19 -2 62 -7 95 -10 111
-10 125 -15 131 -44 9 -37 34 -84 53 -98 23 -18 76 -31 150 -38 35 -3 67 -7
71 -10 4 -3 38 -6 74 -7 78 -2 98 11 117 77 9 30 18 42 28 40 9 -1 51 -6 93
-9 42 -4 87 -9 100 -11 13 -3 76 -12 142 -22 65 -9 123 -21 128 -27 5 -6 20
-36 31 -66 24 -61 43 -74 127 -90 133 -25 261 -30 285 -10 8 7 21 33 29 59
l13 46 54 -1 c56 0 188 -11 224 -18 12 -2 52 -7 90 -10 39 -4 84 -9 100 -11
17 -3 51 -7 78 -10 77 -8 140 -17 178 -24 l36 -6 -18 -55 c-42 -130 -23 -159
111 -175 25 -3 54 -8 65 -10 54 -11 126 -19 179 -19 51 0 62 3 81 26 13 15 33
57 45 95 35 111 38 116 80 107 19 -3 44 -8 55 -9 11 -2 43 -6 70 -9 104 -13
123 -16 225 -26 58 -6 123 -13 145 -15 62 -7 114 -13 193 -20 39 -4 76 -13 81
-19 5 -6 26 -60 46 -121 42 -122 65 -161 104 -177 30 -13 31 -13 124 -28 40
-6 83 -14 97 -16 14 -2 53 -7 86 -11 53 -5 64 -3 82 15 26 26 22 69 -18 188
-38 111 -38 113 3 109 17 -2 59 -7 92 -10 172 -17 151 -8 250 -104 109 -105
150 -137 235 -184 146 -79 299 -130 430 -142 30 -2 87 -7 125 -11 49 -4 95 -1
154 11 92 18 117 27 172 62 20 12 50 23 65 25 25 3 34 -4 67 -55 56 -84 72
-91 198 -95 98 -4 109 -2 128 17 20 20 26 47 22 96 0 11 -4 56 -7 99 l-7 79
69 -7 c38 -4 92 -9 119 -12 28 -3 60 -7 71 -9 12 -3 50 -8 85 -11 35 -3 68 -9
72 -13 4 -5 13 -39 19 -77 17 -107 25 -113 198 -129 61 -6 134 -15 165 -22 11
-2 70 -8 130 -13 61 -6 124 -12 140 -14 36 -6 115 -13 215 -21 41 -3 113 -12
160 -19 102 -16 240 -19 259 -7 12 8 16 29 20 119 1 23 8 24 136 7 25 -3 169
-17 185 -17 25 -1 40 4 40 12 0 15 -35 26 -100 34 -30 3 -64 7 -75 10 -11 2
-49 7 -85 11 -103 12 -106 14 -114 84 -10 89 -22 94 -256 116 -79 8 -129 13
-195 20 -91 11 -119 14 -180 20 -33 3 -80 8 -105 10 -25 3 -69 10 -98 16 -68
14 -70 18 -88 203 l-7 69 64 -7 c69 -7 102 -12 189 -26 103 -17 115 -19 216
-25 56 -3 111 -8 124 -10 12 -2 48 -7 79 -10 31 -4 67 -8 81 -10 14 -2 50 -6
80 -10 60 -6 86 -9 205 -24 144 -18 210 -21 224 -12 26 17 -16 29 -154 46 -58
7 -130 16 -155 20 -14 2 -52 6 -85 10 -123 13 -153 16 -301 35 -83 11 -173 22
-200 25 -27 3 -65 7 -84 10 -35 4 -85 9 -210 20 -75 7 -88 15 -85 55 5 57 18
63 125 55 52 -4 97 -8 100 -10 3 -2 39 -6 80 -10 41 -3 82 -8 90 -10 8 -2 49
-7 90 -10 41 -3 83 -8 93 -11 10 -3 51 -7 92 -9 97 -4 107 7 104 102 -3 72
-20 180 -32 200 -13 21 -60 30 -292 58 -27 3 -59 8 -70 10 -11 2 -47 7 -80 10
-230 21 -310 38 -327 69 -19 36 -34 138 -34 232 l1 89 50 0 c49 -1 115 -7 265
-25 220 -27 223 -27 420 -46 58 -6 67 -4 84 14 16 19 18 33 13 109 -6 88 -21
186 -33 204 -13 22 -67 33 -249 54 -27 3 -66 8 -85 10 -19 3 -55 7 -80 10
-124 13 -148 16 -180 20 -19 3 -57 7 -85 10 -48 5 -70 8 -160 19 -22 3 -62 8
-90 11 -27 3 -62 8 -76 11 -15 3 -66 7 -114 9 -77 3 -89 1 -107 -17 -19 -19
-20 -28 -14 -107 4 -47 9 -99 11 -116 3 -16 7 -53 9 -81 7 -82 18 -177 22
-204 2 -14 7 -63 10 -110 4 -47 8 -88 10 -92 2 -3 6 -30 9 -60 3 -29 7 -73 10
-98 2 -25 7 -85 10 -135 4 -49 8 -100 10 -113 5 -33 -4 -51 -23 -47 -9 1 -46
6 -82 9 -140 14 -271 34 -279 41 -2 2 -5 59 -7 126 -4 176 5 169 -279 200 -55
5 -125 12 -155 15 -62 4 -145 14 -175 20 -50 9 -218 12 -240 4 -32 -12 -42
-54 -39 -158 5 -139 26 -175 109 -187 22 -4 50 -8 63 -10 13 -2 53 -7 90 -11
88 -9 82 -8 118 -22 47 -20 56 -48 34 -111 -23 -70 -45 -98 -116 -148 -108
-76 -217 -96 -340 -62 -142 39 -242 105 -346 229 -38 46 -102 165 -113 211 -6
26 -5 27 32 23 79 -7 154 -15 268 -29 108 -13 189 -16 180 -7 -5 6 -41 14 -80
17 -38 3 -81 8 -95 10 -14 2 -50 7 -80 10 -30 3 -71 7 -90 10 -19 3 -55 7 -80
10 -25 3 -52 8 -61 11 -31 9 -49 170 -34 306 4 41 43 143 86 228 80 160 283
258 464 225 59 -11 174 -68 224 -111 24 -21 68 -74 96 -119 29 -44 58 -85 66
-91 20 -16 75 -32 134 -39 28 -3 69 -8 91 -11 23 -3 70 -7 105 -8 89 -4 104
12 96 106 -3 38 -14 91 -23 116 -42 114 -195 295 -314 373 -91 60 -222 118
-326 145 -82 22 -123 26 -244 28 -300 3 -425 -31 -595 -161 -85 -66 -148 -144
-203 -253 -97 -192 -96 -186 -99 -445 l-2 -230 -33 -1 c-46 0 -211 25 -219 34
-6 6 -140 374 -177 485 -20 60 -11 79 47 91 22 5 41 12 41 17 0 4 -30 17 -67
30 -38 12 -71 27 -75 33 -9 14 -57 138 -138 361 -96 262 -100 266 -212 285
-34 5 -74 12 -88 15 -84 15 -146 22 -200 21 -78 -1 -90 -15 -144 -158 -21 -57
-103 -272 -183 -478 -236 -613 -218 -573 -258 -565 -11 2 -63 7 -115 10 -52 4
-97 8 -100 10 -3 1 -32 5 -65 9 -33 3 -69 8 -80 10 -11 2 -47 7 -80 10 -33 4
-73 9 -90 11 -16 2 -46 6 -65 9 -19 2 -57 7 -85 11 -138 17 -139 18 -131 43 3
10 7 35 10 57 3 22 8 51 11 65 5 26 21 113 30 165 3 17 24 122 46 235 23 113
43 216 45 230 3 14 16 83 30 154 33 172 37 240 15 266 -17 21 -104 43 -216 55
-140 16 -162 -2 -180 -150 -4 -27 -8 -57 -10 -65 -2 -8 -6 -28 -9 -45 -3 -16
-12 -73 -21 -125 -9 -52 -18 -106 -20 -120 -3 -22 -50 -306 -60 -367 -6 -40
-27 -178 -30 -198 -4 -36 -16 -65 -25 -60 -8 5 -24 52 -35 105 -5 22 -37 143
-85 320 -107 398 -158 587 -166 615 -4 17 -8 32 -9 35 -1 3 -8 27 -16 54 -26
90 -59 110 -219 131 -179 24 -201 15 -215 -82 -3 -21 -8 -44 -11 -52 -2 -8 -7
-30 -10 -50 -3 -20 -18 -101 -34 -181 -16 -80 -31 -163 -35 -185 -23 -153
-101 -545 -110 -554 -12 -12 -25 30 -94 313 -66 268 -113 447 -193 743 -36
135 -55 158 -131 168 -29 3 -74 10 -102 15 -69 13 -135 17 -165 10z m1208
-1141 c35 -129 66 -249 69 -268 l5 -34 -88 7 c-169 13 -165 11 -153 89 5 29
11 67 14 85 3 18 12 66 20 105 7 40 21 114 31 165 10 57 20 92 27 89 6 -2 40
-109 75 -238z m2476 -193 c54 -162 99 -303 101 -313 4 -27 -12 -41 -43 -37
-110 12 -318 51 -345 66 -27 14 -18 54 51 248 33 91 70 194 82 230 27 77 38
100 49 100 4 0 52 -132 105 -294z m-2465 -146 c35 -5 69 -14 74 -19 6 -6 17
-32 24 -58 7 -27 30 -115 52 -197 l40 -149 -117 7 c-64 3 -130 8 -147 10 -16
3 -54 7 -84 11 -87 9 -101 15 -101 40 0 13 9 65 19 116 10 52 23 119 27 149 9
65 8 59 18 88 7 22 11 23 69 17 34 -3 91 -10 126 -15z m881 -104 c25 -3 72 -8
105 -11 33 -3 74 -8 90 -10 27 -3 64 -7 195 -19 19 -2 62 -7 95 -11 33 -4 74
-8 90 -10 125 -14 151 -18 158 -24 4 -4 -17 -73 -48 -152 -31 -79 -63 -165
-72 -191 -15 -45 -23 -52 -63 -50 -23 1 -163 14 -177 16 -10 2 -49 7 -86 11
-37 3 -76 8 -85 10 -9 1 -42 6 -73 9 -31 4 -65 8 -75 10 -11 2 -63 9 -118 17
-66 9 -100 17 -104 27 -3 8 0 42 7 76 6 33 20 112 31 175 11 63 25 120 31 127
5 7 20 11 32 9 12 -2 42 -6 67 -9z m2335 -241 c115 -11 106 -5 133 -105 32
-117 80 -233 117 -286 19 -27 35 -53 35 -58 0 -11 -199 5 -252 20 -16 5 -28
40 -33 94 -3 36 -15 71 -34 100 -18 26 -72 151 -89 207 -13 38 -6 46 33 39 16
-3 57 -8 90 -11z m-1045 -170 c25 -4 52 -9 61 -10 9 -2 40 -6 70 -10 30 -4 56
-8 59 -10 3 -2 33 -6 65 -10 33 -4 74 -8 90 -10 47 -5 164 -34 185 -45 13 -7
50 -84 50 -106 0 -3 -56 2 -120 10 -30 4 -73 9 -95 12 -22 3 -51 7 -65 9 -14
2 -56 6 -95 10 -38 3 -77 8 -85 10 -8 2 -42 7 -75 10 -32 4 -62 8 -66 11 -4 2
-44 6 -90 8 -81 5 -84 6 -81 28 4 33 30 86 48 96 17 10 76 9 144 -3z m3230
-70 c176 -19 190 -23 191 -44 0 -9 2 -32 4 -51 1 -19 6 -71 9 -116 3 -44 10
-102 15 -127 7 -39 8 -73 2 -98 -1 -6 -38 -5 -126 6 -90 10 -123 13 -200 21
-38 3 -72 8 -75 11 -3 2 -6 34 -7 71 -1 37 -5 124 -9 194 -8 143 -5 161 28
154 13 -3 88 -13 168 -21z"/>
<path d="M5695 2030 c-3 -5 1 -10 10 -10 9 0 13 5 10 10 -3 6 -8 10 -10 10 -2
0 -7 -4 -10 -10z"/>
<path d="M398 1553 c-37 -9 -16 -23 35 -24 28 0 61 -2 72 -4 11 -2 47 -7 80
-10 33 -3 71 -8 85 -10 27 -5 93 -11 230 -21 104 -7 100 11 -5 21 -38 4 -81 8
-95 11 -14 2 -56 6 -95 9 -38 3 -77 8 -85 10 -13 3 -57 8 -180 19 -14 2 -33 1
-42 -1z"/>
<path d="M377 1083 c-10 -15 7 -28 38 -29 71 -4 226 -15 244 -19 11 -2 48 -6
83 -10 35 -3 77 -8 93 -10 17 -3 62 -7 100 -11 39 -3 84 -7 100 -9 17 -2 55
-6 85 -10 30 -3 75 -8 100 -10 88 -9 156 -16 235 -25 44 -5 109 -12 145 -15
36 -3 76 -7 90 -10 14 -2 52 -7 85 -10 33 -3 94 -10 135 -15 41 -5 100 -12
130 -15 30 -4 66 -8 80 -10 14 -2 57 -6 95 -10 39 -3 81 -7 95 -10 14 -2 50
-7 80 -10 30 -3 66 -7 80 -10 14 -2 52 -7 85 -10 33 -3 98 -10 145 -15 47 -6
105 -13 130 -16 25 -2 61 -7 80 -9 19 -3 60 -7 90 -10 30 -4 66 -8 80 -10 14
-2 70 -9 125 -15 101 -11 132 -15 215 -25 25 -3 68 -8 95 -11 76 -8 101 -13
132 -25 15 -6 78 -13 138 -14 61 -2 128 -5 150 -8 22 -3 65 -9 95 -12 30 -4
66 -8 80 -10 54 -8 108 -14 170 -20 36 -3 76 -8 90 -10 14 -2 54 -7 90 -11 36
-3 68 -8 73 -11 4 -2 91 -6 192 -8 102 -2 193 -6 203 -9 9 -3 49 -8 87 -11
127 -12 359 -38 435 -50 14 -2 54 -6 90 -10 36 -3 76 -8 90 -10 14 -2 52 -7
85 -10 33 -3 78 -8 100 -10 22 -3 87 -9 145 -15 58 -6 121 -13 140 -15 19 -2
62 -7 95 -10 33 -4 74 -8 90 -10 17 -2 64 -7 105 -11 41 -3 82 -7 90 -9 8 -2
49 -6 90 -10 41 -3 86 -8 100 -10 14 -2 72 -9 130 -15 150 -16 307 -34 465
-55 17 -2 53 -7 80 -10 28 -3 61 -7 75 -10 14 -2 55 -7 92 -10 37 -3 75 -7 85
-9 10 -2 56 -7 103 -11 47 -4 87 -8 90 -10 3 -2 39 -6 81 -9 42 -4 85 -8 95
-10 11 -2 53 -7 94 -11 41 -4 82 -9 90 -10 8 -2 44 -6 80 -9 36 -3 81 -8 100
-11 584 -72 587 -73 660 -80 76 -8 230 -26 260 -30 14 -2 72 -9 130 -15 163
-17 193 -20 225 -25 17 -2 53 -7 80 -10 57 -7 178 -22 248 -31 51 -6 97 1 97
15 0 21 -106 41 -350 66 -30 3 -91 10 -135 15 -44 6 -102 12 -130 15 -27 3
-102 12 -165 20 -63 8 -140 17 -170 20 -76 9 -177 24 -228 36 -24 5 -91 11
-150 14 -59 3 -120 7 -137 9 -16 2 -64 7 -105 11 -41 4 -86 9 -100 10 -14 1
-61 6 -105 10 -44 4 -82 9 -85 10 -3 2 -45 6 -95 10 -49 4 -92 9 -95 10 -3 2
-33 6 -65 10 -33 3 -76 8 -95 10 -19 3 -57 7 -85 10 -27 4 -67 8 -87 11 -96
11 -117 13 -181 19 -37 4 -76 8 -85 10 -9 1 -51 6 -92 10 -74 6 -85 8 -165 18
-120 17 -168 22 -265 32 -41 4 -86 9 -100 10 -14 2 -63 7 -110 10 -47 4 -93 9
-102 10 -9 2 -48 6 -85 10 -37 3 -79 8 -93 10 -14 3 -52 7 -85 10 -33 3 -73 7
-90 10 -16 2 -66 7 -110 11 -44 3 -96 8 -115 10 -19 2 -64 6 -100 9 -36 3 -87
8 -115 11 -51 6 -66 8 -210 19 -44 3 -87 8 -95 10 -8 2 -46 7 -85 10 -38 3
-81 8 -95 10 -14 2 -54 7 -90 10 -36 4 -72 9 -80 10 -14 3 -129 13 -225 20
-22 2 -62 6 -90 9 -27 3 -72 8 -100 11 -101 12 -121 14 -175 20 -30 3 -71 8
-90 10 -19 2 -64 7 -100 10 -64 6 -102 10 -177 20 -21 2 -58 7 -83 10 -115 14
-144 17 -272 36 -75 11 -169 22 -210 24 -116 7 -210 15 -248 20 -19 2 -60 7
-90 10 -30 3 -89 10 -130 15 -115 14 -161 19 -215 25 -27 3 -63 7 -80 10 -16
2 -57 7 -90 10 -33 3 -71 8 -85 10 -14 2 -56 7 -95 11 -38 3 -79 8 -90 10 -10
2 -49 6 -85 10 -36 3 -73 8 -84 10 -10 2 -44 6 -75 9 -31 3 -69 8 -86 10 -16
2 -57 6 -90 10 -33 3 -78 7 -100 10 -22 3 -62 7 -90 10 -110 11 -142 14 -180
19 -22 3 -69 7 -105 11 -36 3 -76 8 -90 10 -14 2 -54 7 -90 10 -36 3 -76 8
-90 10 -14 2 -52 7 -85 10 -33 3 -76 7 -95 10 -19 3 -66 7 -105 10 -38 3 -88
7 -110 10 -69 8 -128 14 -208 20 -44 4 -86 8 -96 10 -51 10 -209 16 -214 8z"/>
</g>
</svg>
