<svg xmlns="http://www.w3.org/2000/svg" id="Layer_1_xA0_Image_1_" viewBox="0 0 1190.6 1556.2">
  <style>
    .st0{fill-rule:evenodd;clip-rule:evenodd;fill:#FFFFFF;}
  </style>
  <path d="M42.7 1047.1c10.3-.4 20.3 1.6 30.4 2.7 6.7.8 13.3 1.5 20 2.3 7.5.8 14.9 1.7 22.4 2.5 7.5.8 14.9 1.5 22.4 2.3 7.5.8 14.9 1.6 22.4 2.5 7.1.8 14.3 1.7 21.4 2.5.8.1 1.5 0 2.6 0-.2-1.2-.2-2.2-.4-3-2.3-8.5-4.5-17-6.9-25.4-1.4-5.1-3-10.1-4.5-15.2-2.9-10.1-5.7-20.3-8.6-30.4-4-14-8-28-12.1-41.9-1.4-4.6-2.2-9.3-1.9-14.2.2-3 1.2-4.1 4.1-4.1 4.6-.1 9.2-.1 13.8 1.1 3.5.9 7.3.9 10.9 1.4 1.7.2 3.4.7 5.1 1.1 3.2.8 5.2 3 6.3 6.1.6 1.7 1.1 3.3 1.6 5 2.8 11 5.6 22 8.5 33 .7 2.8 1.5 5.6 2.4 8.3 2.6 7.8 3.8 15.8 5.8 23.7 3.5 13.5 6.8 27 10.2 40.5.5 2 .7 4.1 2.4 5.9.4-.6.9-1 1.1-1.6 1.3-4.9 2.2-10 3.1-15 1.7-9.8 3.7-19.5 5.6-29.2.2-1.3.7-2.5.8-3.7 1.5-12.2 4.4-24.2 6.5-36.3 1.1-6.1 2.3-12.2 3.5-18.4.1-.5.1-.9.2-1.4 1.2-5.2 3.2-6.9 8.6-7.1 1.9 0 3.8.3 5.7.5 5.2.7 10.5 1.4 15.7 2.2 1.6.2 3.1.6 4.7 1.1 3.4 1.1 5.9 3.2 7 6.7.9 2.7 2 5.4 2.7 8.2 3 11.1 5.7 22.3 8.9 33.4 3.1 10.9 6 21.9 8.8 32.9 1.5 6 3.4 12 5 18 1.7 6.3 3.2 12.7 4.8 19 .4 1.5 1 3 1.6 4.5.2.5.8.8 1.4 1.4 1.8-3.5 1.8-7.1 2.4-10.5 1.5-9.3 2.6-18.7 4.4-27.9 2.7-13.8 4.2-27.8 6.9-41.6 1.3-6.7 2.2-13.6 3.3-20.3.4-2.7.9-5.4 1.7-8 1.1-3.9 3.6-6 7.6-6 2.5 0 5.1.4 7.6.7 4.3.6 8.5 1.1 12.8 1.8 2.3.4 4.7 1 7 1.7 2.9.9 4.3 3 4.3 6.2 0 4.4-.5 8.6-1.3 12.9-2.6 13.5-5.1 27-7.8 40.5-1.3 6.7-2.8 13.5-4.1 20.2-1.4 7.1-2.6 14.2-3.9 21.2l-2.7 14.6c-.3 1.9-.5 3.8-.8 5.8 3 1.2 5.9 1.3 8.6 1.6 12.2 1.6 24.4 3.1 36.6 4.7 7.9 1 15.8 2.1 23.8 2.9 5.2.6 10.5.8 16 1.1 1.6-3.8 3.2-7.4 4.6-11.1l27.9-72c3.2-8.2 6.2-16.4 9.3-24.7.8-2.1 1.7-4.2 2.5-6.2 2-4.8 5.5-7.2 11.5-6.6 4.9.4 9.8 1.1 14.7 1.8 5.2.8 10.4 1.7 15.6 2.6 1.6.3 3.1.7 4.6 1.3 2.5.9 4.5 2.6 5.6 5 1.4 3 2.8 6.1 4 9.2 5.2 14.1 10.2 28.3 15.5 42.3 3.5 9.3 4 7.7 11.3 10.1 1.9.6 4.1.7 5.7 2 .2 1.2-.6 1.6-1.4 1.7-1.9.4-3.8.6-5.6 1.1-2.5.8-3.3 2.1-3 4.7.2 1.1.5 2.2.9 3.2 2.7 7.5 5.6 15 8.3 22.5 2.7 7.5 5.3 15.1 7.9 22.6.5 1.5 1.1 3 1.8 4.7 8.3 1.3 16.7 2.5 25.3 3.4.2-1.2.5-2.1.4-2.9-1-10.2-.6-20.5-.5-30.7 0-4.3.7-8.6 1.1-12.9.1-.8.3-1.6.5-2.3 4.6-11.9 9.3-23.8 17.5-34 4.5-5.6 9.9-10 15.7-14 11.2-7.7 23.6-11.8 37.2-12.4 2.9-.1 5.7-.5 8.6-.7 8.3-.6 16.6 0 24.9 1.1 4.2.6 8.4 1.8 12.6 2.9 7 1.8 13.4 5 19.9 8.2 10.9 5.4 20.1 13.1 27.8 22.4 3.1 3.7 5.8 7.6 8.4 11.6 4.6 7 6.7 14.8 6.8 23.2 0 6.7-.8 7.5-7.9 7.8-4 .2-8-.3-12-.8-4.9-.5-9.8-1.3-14.7-1.9-5-.6-9.1-2.8-11.8-7.3-1.2-2.1-2.5-4.1-3.7-6.2-5.3-9-13-15.2-22.7-19.1-3.3-1.3-6.6-2.4-10.1-3-7.5-1.5-14.6-.2-21.6 2.5-1.3.5-2.7 1.1-4 1.6-6.6 2.7-11.5 7.4-16.1 12.6-.2.2-.4.5-.6.8-4.4 9-9.8 17.7-11.3 27.9-1.2 8.3-1.1 16.6.4 24.8.3 1.9 1.1 3.7 1.7 5.7 1.6.4 3.1.9 4.6 1.1 6.5.8 13 1.5 19.5 2.2 8.1.9 16.2 1.9 24.3 2.8.8.1 1.7.1 1.8 1.5-.7.1-1.4.3-2.1.3-2.7-.2-5.4-.5-8.1-.8l-20-2.1c-5.2-.6-10.5-1.2-15.7-1.7-.9-.1-1.8.1-3 .2.3 1.2.4 2.1.7 3 4.1 12.1 11.2 22.3 20.8 30.6 8 7 17.3 11.4 27.8 13.4.2 0 .3 0 .5.1 2.8.5 5.7 1.7 8.4 1.5 3.6-.3 7.2-1.6 10.7-2.4 3.1-.8 6-2.1 8.7-4 1.3-.9 2.6-1.9 4-2.7 7.1-4.1 10.3-10.7 11.9-18.3.6-2.7-.5-4.7-2.7-6.1-1.3-.8-2.8-1.5-4.4-1.9-1.8-.5-3.8-.8-5.7-.9-6.6 0-13-1.9-19.5-2.4-1.1-.1-2.2-.4-3.3-.8-3.2-1.1-5.6-3.1-6.2-6.7-.4-2-.8-4.1-.9-6.2-.2-4.3-.1-8.6-.1-13 0-.6 0-1.3.1-1.9.5-4.4 2.3-6.4 6.7-6.6 4.8-.2 9.6-.1 14.4.4 5.7.5 11.4 1.5 17.1 2.3 1.1.1 2.2.2 3.4.2 4.8.1 9.6.4 14.3 1.4 1.6.3 3.2.3 4.8.4 6.2.7 12.4 1.3 18.6 2 .6.1 1.3.2 1.9.4 5 1.7 7.3 3.5 7.4 9.2.1 4 .1 8 .1 12 0 3.2.3 6.3.9 9.3 3.9 1.2 32.4 4.5 38 4.4.1-.8.5-1.7.4-2.6-.4-5.9-.9-11.8-1.4-17.7-.6-6.7-1.3-13.4-1.9-20.1-.1-1.3-.1-2.6-.5-3.8-1.1-3.7-1-7.6-1.3-11.4-.4-4.8-1.1-9.5-1.6-14.3-.8-7-1.5-14-2.2-21-.5-5.1-1.1-10.2-1.5-15.3-.2-2.4-.3-4.8-.1-7.2.3-3 1.7-4.3 4.7-4.4 3.3-.2 6.7-.3 10.1 0 6.2.6 12.4 1.5 18.5 2.3 7.4.9 14.9 1.7 22.4 2.6 5.4.6 10.8 1.4 16.2 2 2.1.3 4.1.4 6.2.6 2.2.2 4.4.5 6.7.8l17.6 2.1c5.1.6 10.1 1.3 15.2 1.9.9.1 1.9.4 2.8.7 2.7.8 4.5 2.6 5 5.3.8 4.4 1.3 8.8 1.9 13.3.3 2.7.5 5.4.6 8.1.1 1.3.1 2.6-.1 3.8-.5 3.2-2.7 5.5-6.3 5.1-4.1-.4-8.3-.8-12.4-1.3l-24.3-2.7c-2.2-.2-4.4-.6-6.7-.8-5.9-.7-11.7-1.3-17.6-2-2.2-.3-4.4-.6-6.6-.8-3.2-.4-6.3-1-9.8.2-.2 1.4-.6 2.8-.6 4.2 0 8.5 1 16.9 2.8 25.2.6 3 2.1 4.8 5.2 5.4 5.3 1 10.5 2.6 16 2.7 2.9.1 5.7.6 8.6.9l14.7 1.8c8.7 1.1 17.5 2 26.2 3.3 6.9 1 8.4 2.7 9.4 9.9.7 4.6 1.2 9.2 1.6 13.8.2 2.2-.2 4.5-.6 6.6-.4 1.9-1.8 2.9-3.8 3-4.5.2-9 .2-13.4-.6-2-.4-4.1-.5-6.2-.8l-15.7-1.8c-5.6-.6-11.1-1.3-16.7-1.8-3.2-.3-6.3-.4-9.5-1.1-2.4-.6-5.1-.1-7.6-.3-2.3-.2-4 1.6-4.1 3.7-.1 2.1 0 4.1 0 6.5 1.5.3 2.7.7 3.9.8 6.7.6 13.4 1.1 20.1 1.8 3.3.3 6.7.8 10 1.2 12.4 1.5 24.7 3.1 37.1 4.6 6.8.8 13.7 1.4 20.5 2.2 5.7.7 11.4 1.5 17.1 2.2l11.9 1.5c2.1.3 4.1.7 6.1 1.2.7.2 1.3.8 1.7 1.1.1 1.2-.7 1.4-1.2 1.4-1.4.2-2.9.4-4.3.3-8.6-.4-17.2-1.5-25.8-2.6-7.1-.9-14.3-1.7-21.4-2.6-6.5-.8-13-1.6-19.5-2.3-3.5-.4-7-.8-10.5-.8-4.8 0-9.5-.6-14.3-1.5-6.9-1.3-13.9-2.1-20.8-3.2-2.2-.3-4.4-.7-6.6-.9-.7-.1-1.5.1-2.5.2-.1 1-.3 1.8-.2 2.5.6 5.9 1.3 11.8 2 17.6.1.9.5 1.9.7 2.8.4 2.2 1.8 3.3 3.8 3.7 3.6.7 7.2 1.4 10.9 1.8 11.3 1.2 22.6 2.1 33.9 3.5 5.9.7 11.7 1.5 17.6 1.8 5.2.3 10.5 1.3 15.7 2 .8.1 1.6.4 2.4.5 3.1.5 4.8 2.3 5.2 5.4l.9 6.2c.2 1.2.3 2.5.5 3.9 4.1 1.5 8.3 1.6 12.4 2.1 6.6 1 13.3 1.8 19.9 2.8 1.2.2 2.5.6 3.6 1.2.5.3.6 1.2.9 1.9-2.1 1-4 .9-5.9.7-5.1-.5-10.2-1.1-15.3-1.7-4-.4-7.9-.9-11.9-1.3-.9-.1-1.9 0-3.1 0-.2 1.2-.4 2.2-.5 3.3-.1 2.4.1 4.8-.1 7.2-.1 2.5-1.5 4-3.9 4-4.6.1-9.3 0-13.9-.2-3-.1-6-.6-9-1s-6-.9-9-1.4l-2.8-.3c-2.5-.3-5.1-.7-7.6-.7-12.2-.3-24.1-3.1-36.3-3.3-2.4 0-4.7-.7-7.1-1-5.5-.8-11.1-1.6-16.6-2.3-2.5-.3-5.1-.3-7.7-.5-2.4-.2-4.8-.5-7.1-1-3.6-.8-6-3-6.6-6.7-.5-3-.9-6-1.3-9-.1-1.1-.3-2.2-.4-3.2-.6-.3-1-.6-1.5-.7-.8-.2-1.6-.3-2.4-.4-12.5-1.2-25-3.4-37.7-4.4-.2 1.1-.5 2-.5 2.9-.3 4.5.1 8.9 1.1 13.3.6 2.7.4 5.4-.3 8.1-.9 3.4-2.5 4.9-6.1 5-5.3.1-10.6.1-15.8-.2-4.7-.3-8.5-2.7-11-6.8-1.2-1.9-2.2-3.9-3.3-5.8-1.6-2.8-3.9-3.5-6.9-2.4-.9.3-1.7.9-2.5 1.4-5.9 4.1-12.4 6.4-19.5 7.4-4.4.7-8.8 1.8-13.3 1.4-1.4-.1-2.8-.4-4.2-.7-1.3-.2-2.5-.5-3.8-.5-13 0-25.3-3.2-37.1-8.4-4.8-2.1-9.5-4.5-14.2-7-5.8-3.1-10.9-7.3-15.8-11.6-2.3-2-4.2-4.2-6.4-6.3-2.1-2.2-4.3-4.3-6.4-6.5-1-1.1-2-1.9-3.6-2.1-8.4-.8-16.8-1.8-25.3-2.6-.5 0-.9.1-1.3.2-1 1.1-.4 2.2-.1 3.2 1.3 3.8 2.7 7.5 4 11.3.8 2.4 1.5 4.9 2 7.4.3 1.5.4 3.2.2 4.8-.2 3-1.6 4.4-4.5 4.6-2.4.1-4.8.1-7.2-.2-7.9-1.1-15.8-2.6-23.7-3.7-6.4-.9-10.5-4.4-12.5-10.4-2.2-6.2-4.2-12.4-6.3-18.6-.4-1.1-.8-2.1-1.3-3.3-2.8-.4-5.6-.8-8.5-1.1-13.3-1.4-26.7-2.7-40-4.2-8.1-.9-16.2-1.8-24.3-2.9-2.7-.3-5.3-1-8.1-1.6-.5 1.3-1.1 2.4-1.5 3.6-1.3 3.9-2.6 7.9-3.9 11.8l-.3.9c-3.3 7.6-4.9 7.5-11.1 7.5-4.5 0-8.9-.6-13.3-1.4-5.2-1-10.4-1.6-15.6-2.3-9.2-1.2-8.9-5.5-8-11.6.3-2 1.2-4 1.9-5.9.6-1.6 1.3-3.2 1.5-5-3.7-1.1-68.6-8.5-75.3-8.7-1.2 1-1.1 2.5-1.6 3.8-.5 1.7-1 3.4-1.6 5-1 2.5-2.9 3.8-5.6 3.8-3 .1-6.1.2-9.1-.1-6-.7-12-1.7-18-2.6-1.3-.2-2.5-.6-3.7-.9-3-.8-5-2.8-6-5.7-1.1-3-2.1-6-3.2-8.9-5.1-1.7-42.4-6.8-48.3-6.6-.4 1.4-.9 2.9-1.3 4.4-1.6 6-5.1 8.3-11.3 7.5l-13.3-1.8c-3.8-.5-7.6-.6-11.4-1.4-4.7-1-7.7-3.6-9.1-8.1-.7-2.3-1.5-4.5-2.3-7-1.9-.3-3.7-.8-5.6-1-9.7-1.1-19.4-2-29.1-3.1-5.2-.6-10.5-1.4-15.7-2-5.1-.6-10.2-1.1-15.2-1.6-3.7-.4-7.3-.8-11-1.1-1.3-.1-2.5-.3-3.5-1.8.6-.2 1.1-.7 1.7-.6 2.2.1 4.5.3 6.7.5l35.3 3.3c10.2 1 20.3 2.3 30.5 3.3 1.4.1 2.8 0 4.5 0-.2-1.3-.2-2.4-.5-3.4-2.7-9.5-5.5-19.1-8.2-28.6-1-3.5-1.9-7.1-2.9-10.8-1.3-.4-2.5-1-3.7-1.1-8.7-1.1-17.5-2.1-26.2-3.1-9.8-1.2-19.7-2.3-29.5-3.4-6.8-.8-13.7-1.5-20.5-2.3-7.9-.9-15.9-1.7-23.8-2.6-7.6-.8-15.3-1.6-22.9-2.3-4-.4-8-.5-11.9-.9-1.6-.1-3.1-.6-4.7-.9.2-.2.2-.8.2-1.5zm379.5 87.4c1.1-2.8 2.1-5.5 3.2-8.2l10.8-28.2c.4-1 .5-2.1.8-3.3-1.2-.3-2.1-.7-3-.8-4.1-.5-8.3-.9-12.4-1.4-7.3-.8-14.6-1.7-21.9-2.4-7.6-.8-15.3-1.5-22.9-2.3l-21.4-2.4c-.7-.1-1.5.2-2.5.3-.7 2.6-1.5 5-1.9 7.5-1.4 9.8-3.5 19.5-5.3 29.2-.2.9-.1 1.8-.1 2.6 7.5 2 71.2 9.8 76.6 9.4zm372.9-1.7c-.1 1.2-.4 2.3-.4 3.4.2 4.5.1 9 .7 13.4.8 5.6.9 11.1.9 16.7 0 1.9-.1 3.8 0 5.7 0 .9.4 1.8.6 2.8 4.6.4 9.1.7 13.5 1.2 4.6.5 9.2 1.2 13.8 1.4 4.4.2 8.7 1.7 13.3 1.1.4-2.7.2-5-.2-7.4-.5-3.9-1.2-7.9-1.6-11.8-.5-5.2-.8-10.5-1.2-15.7-.2-2.2 0-4.5-1.3-6.8-11.8-2.2-23.9-2.7-35.9-4.3-.5 0-1.3.2-2.2.3zM293.3 1118c.1-.3.4-.6.3-.8-3.4-12.6-6.7-25.3-10.1-37.9-.2-.7-.6-1.4-.9-2-7.4-1.7-23-3.5-26.9-3.1-2 6.3-2.2 13.1-3.6 19.6-1.4 6.7-2.9 13.3-3.2 20.1 7.3 1.9 37.7 4.7 44.4 4.1zm237.9-22c1-2.7.1-4.8-.6-6.9l-9.9-30c-2.7-8.2-5.5-16.4-8.2-24.5-.4-1.1-.6-2.3-2-3.3-1.8 3-2.9 6-3.9 9-4.9 13.7-9.7 27.4-14.5 41.1-.6 1.6-1 3.4-1.2 5.1-.3 2.4.2 3.2 2.5 3.9 2.3.7 4.6 1.3 7 1.7 7.4 1.3 14.8 2.6 22.2 3.7 2.6.5 5.5 1.3 8.6.2zm94.2 60.4c.2-2.1-1.3-3.1-2.2-4.3-2.5-3.5-5.1-7-6.6-11.1-3.2-8.7-6.7-17.3-8.5-26.4-.2-1-.7-2-1.1-3-2.3-.2-4.4-.4-6.4-.7-5.1-.6-10.2-1.2-15.2-1.7-.7-.1-1.4.2-2.3.3.2 1 .3 1.6.5 2.2 1.3 3.9 2.5 7.9 4.2 11.7 1.9 4.4 3.9 8.8 6.4 12.8 1.5 2.4 2.6 4.7 2.4 7.6-.2 2.6.4 5.1 1.2 7.5.5 1.5 1.4 2.4 3.1 2.6 6 .6 12.1 1.3 18.1 1.9 2 .2 4.2.4 6.4.6zm-78.8-18.8c-.5-.3-.7-.6-1-.7-5.8-2.3-12-3-18.1-4.4-.5-.1-1 0-1.4-.1-3.8-.4-7.7-.5-11.4-1.3-8.7-2-17.7-2.2-26.4-4.2-2.9-.6-6-.3-9.1-.3-1.3 0-2.6.5-3.2 1.7-1.7 3.4-3.5 6.7-3.9 10.8 1 .1 1.8.2 2.6.2 6.1-.2 12.1.7 18.1 1.7 6 1 12 1.5 18 2.3l10.9 1.2c8.5 1.1 17.1 2.2 25.6 3.2.9.1 1.8-.1 3-.2-1.4-3.5-2.6-6.8-3.7-9.9zm-281-120.1c-.4 1.6-.9 3-1.2 4.6-.9 4.7-1.6 9.4-2.5 14.1-1.3 7.4-2.7 14.7-4.1 22.1-.5 3-1 6-1.3 9-.1.9.2 1.8.2 2.6 16 2.3 20.7 2.7 24.6 1.9 0-2.2-.7-4.3-1.3-6.4-2.8-10.1-5.5-20.3-8.3-30.5-1.2-4.5-2.3-9-3.6-13.4-.3-1.4-.3-3.2-2.5-4zM159.8 141.8c.8.9 1.9.9 3.1 1.1l16.5 2.7c.5.1 1 .1 1.4.2 4.1.9 5.3 2.3 5.6 6.6.1 1.6 0 3.2.1 4.8.2 4.5.5 8.9.7 13.4.1 2.9.2 5.8.2 8.6 0 5.9-.1 11.8 0 17.8.1 3.2.4 6.4.6 9.6.1 1.6.2 3.2.2 4.8l.3 28.8c0 1 .1 1.9.1 2.7 1.1 1.5 2.5 1.5 4 1.7 4.4.6 8.9 1.1 13.3 1.8 9.3 1.4 18.6 2.9 27.9 4.3 6.6 1 13.3 1.7 20 2.6 3.5.5 6.9 1.2 10.4 1.7 2.4.3 4.8.4 7.1.7 13.5 1.8 26.9 3.7 40.4 5.5 3 .4 6 .9 9 1.3.9.1 1.8 0 2.7 0 1.1-1.6.7-3.2.7-4.8v-33.1l.3-33.1.3-17.3v-1c.3-5.2 1.9-6.8 6.9-5.9 8 1.3 16.1 2.8 24 4.5 6.3 1.4 7.3 2.7 7.3 9.2.1 13.8.6 27.5-.2 41.3-.8 13.4-.4 26.8-.7 40.3 0 1.3.1 2.6.1 3.8 0 .3.2.6.5 1.1 2.6.8 5.5.9 8.3 1.2 3.5.4 7 .7 10.5 1.2 8.2 1.2 16.4 2.5 24.6 3.7 10.3 1.5 20.6 2.9 30.8 4.4 5.1.7 10.1 1.5 15.2 2.2.4.1.9-.1 1.5-.2.4-1.3-.2-2.5-.6-3.6-4.2-11.7-8.4-23.5-12.5-35.2-5.2-14.9-10.4-29.9-15.5-44.8-.7-2.1-1.1-4.3-1.3-6.5-.2-2.3.9-3.2 3.1-3.4 1-.1 1.9-.1 2.9.1 6.6 1.2 13.2 2.5 19.8 3.8 3 .6 5.2 2.2 6.4 5.2 1.2 3 2.5 5.9 3.5 8.9 6.3 17.8 12.5 35.6 18.7 53.4 2.7 7.8 5.4 15.7 8 23.6.4 1.1.7 2.2 1.3 3.1.3.4 1.1.7 1.7.7.5 0 1.2-.5 1.5-.9.4-.7.5-1.5.7-2.3 4.6-18.9 9.3-37.9 13.9-56.8 1.2-5 2.2-10 3.4-15 .5-2 1.1-4 1.8-6 .8-2.2 2.6-3.3 4.8-3.4 1.4-.1 2.9.1 4.3.4 3.9.7 7.9 1.4 11.8 2.3 1.5.3 3.1.9 4.5 1.5 3.9 1.7 6 4.6 5.3 9.1-.2 1.6-.2 3.2-.6 4.7-3.5 14.6-6.9 29.2-10.9 43.7-2 7.2-3.7 14.6-5.5 21.9-2.1 8.2-4.1 16.4-6.2 24.6l-6 23.7c-.4 1.4-.7 2.8-1.2 4.2-.8 2.4-2.3 3.8-4.9 3.7-2.9-.1-5.8-.1-8.6-.4-3.5-.5-6.9-1.2-10.4-2-2.5-.5-4.9-1.3-7.1-2.7-1.3-.8-2.9-1.3-4.4-1.6-4.7-.7-9.5-1.2-14.2-1.9-5.4-.7-10.8-1.6-16.1-2.3-8.4-1.2-16.8-2.3-25.2-3.5l-23.2-3.3c-3.5-.5-7-1-10.5-1.3-5.4-.4-10.7-1.6-16-2.7-2.3-.5-4.7-.9-7.2-1.3-.3 1.2-.6 2.1-.8 3-.2 1.3-.2 2.6-.4 3.8-.5 3.5-1.4 4.5-5 4.4-3.3-.1-6.7-.4-10-1.1-5.2-1-10.3-2.3-15.4-3.4l-2.3-.6c-2.8-.8-4.3-2.7-4.6-5.5-.2-1.9-.2-3.8-.4-5.8-1.4-1.1-3-1.2-4.5-1.4l-26.1-3.9c-8.4-1.2-16.8-2.4-25.2-3.5-.8-.1-1.5 0-2.3 0-1.1 1.5-.6 3.2-.7 4.8-.3 5.3-1.4 6.6-6.7 6.2-5.2-.3-10.5-1.2-15.7-1.9-8-1.2-16.1-2.6-24.1-3.9-8.5-1.3-17-2.6-25.6-3.9-8.4-1.3-16.7-2.5-25.1-3.8-3.3-.5-6.6-1.1-9.9-1.9-4-.9-5.3-2.4-5.8-6.6-.1-1.1-.2-2.2-.3-3.5-1.1-.4-2.1-.9-3.2-1-8.1-1.1-16.2-2.1-24.2-3.1-12.7-1.5-25.4-3-38.1-4.6-10-1.2-20-2.6-29.9-3.9-1.3-.2-2.6-.2-3.8-.3-3.3-.3-6.7-.5-10-.8v-2.9c3.3-.9 6.5-.8 9.9-.1 3.3.7 6.6.8 10 1.3 5.8.8 11.7 1.6 17.5 2.5 4.9.7 9.8 1.5 14.7 2.2 8.4 1.1 16.8 2 25.2 3.2 9.5 1.3 18.9 2.8 28.4 4.2.9.1 1.8 0 2.9 0 .1-1.2.2-2.2.2-3.1v-17.3c0-6.7-.1-13.4-.2-20.1 0-1.1-.4-2.1-.6-3.2-.9-.2-1.5-.4-2.1-.5l-19.9-2.7-17.1-2.1c-6.8-.8-13.6-1.6-20.4-2.5-4.9-.6-9.8-1.4-14.7-2.1-6.6-.9-13.3-1.8-19.9-2.6-4.6-.5-9.2-.8-13.8-1.2v-2.9c2.2-.4 4.3-1 6.6-.6 2.8.5 5.7 1 8.5 1.3 6.2.8 12.3 1.8 18.6 1.7 2.7 0 5.3.8 8 1.3 3.8.7 7.5 1.6 11.3 2.2 8 1.3 16.1 2.4 24.2 3.6 8.4 1.3 16.7 2.6 25.1 3.8 1.9.3 3.8.7 5.9 0 .1-.7.4-1.4.4-2.2 0-7.7 0-15.3-.1-23 0-1.1-.3-2.2-.3-3.3-.3-4-.8-8-.9-11.9-.1-16 0-32 0-48 0-1.3.1-2.6 0-3.8-.1-2 .8-3.3 2.2-4.5 2.4-.4 5-.4 7.5-.4zm29.5 105.9c-.3.8-.6 1.4-.6 2 .1 4.8 0 9.6.5 14.4.8 8.3 1.4 8.2 9.2 9.5 7.6 1.3 15.1 2.4 22.7 3.5 9.5 1.4 19 2.7 28.4 4.2 3.8.6 7.5 1.7 11.2 2.5 2.5.6 3.8 2.3 4.2 4.7.3 1.9.2 3.8.3 5.7.1 1.9-.2 3.8.5 5.9 1.1.2 2.1.6 3.2.7l53.7 6.9c.3 0 .6-.2 1.3-.5.5-3.2.2-6.7.2-10.2v-10.1c0-3.5.1-7 0-10.6-.1-3.5.5-7-.4-10.5-1.3-.3-2.5-.8-3.8-1-7.4-1.1-14.9-2.1-22.3-3.1l-18.5-2.7c-7.1-1-14.2-2.1-21.3-3-11.6-1.5-23.2-2.8-34.7-4.3-8.2-1-16.5-2.3-24.7-3.3-2.9-.3-6-.4-9.1-.7zm173.4 65c7.5.6 14.8 1.6 21.9 3.2 3.1.7 6.3 1.2 9.4 1.7 9.8 1.4 19.6 2.8 29.4 4.3 14.8 2.3 29.6 4.8 44.4 7.1 1.9.3 3.8.6 5.6.1.1-.4.3-.8.2-1-.1-.4-.3-.9-.6-1.3-3-3-4.4-7-5.9-10.9-3.6-9.9-7.1-19.8-10.7-29.7-.2-.4-.5-.8-.8-1.3-.7-.2-1.5-.6-2.2-.7-5.9-.8-11.7-1.5-17.6-2.3-6-.8-12-1.7-18-2.5-9.6-1.3-19.2-3.3-29-3.3-1.3 0-2.5-.3-3.8-.5-4.5-.9-9-2.1-13.6-2.8-2.9-.5-5.8-1.1-8.8-.9-.5 4-.6 35.7.1 40.8zm-320 535.7c6.6-.5 13 .9 19.5 1.5 7 .6 14 1.6 20.9 2.5 9 1.1 18.1 2.3 27.1 3.4 6.3.8 12.7 1.6 19 2.3l32.4 3.6c9 1 18.1 2 27.1 3.1 7.9 1 15.8 2.1 23.8 3.1l12.8 1.5c12.5 1.5 25 3.1 37.6 4.6 9.4 1.1 18.7 2.1 28.1 3.3 7.6 1 15.2 2.1 22.8 3.1 7 .9 14 1.7 20.9 2.6l17.1 2.1c6.3.8 12.7 1.6 19 2.5l17.6 2.4c6.5.9 13 1.7 19.5 2.5 3 .4 6 .8 9 1 4.3.3 8.6.5 12.9.7 4.8.3 9.5.9 14.2 1.9 5.8 1.2 11.6 2.1 17.5 3 5.8.9 11.7 1.7 17.6 2.5l19 2.4c5.9.8 11.7 1.6 17.6 2.3 6.7.8 13.3 1.7 20 2.4l21.4 2.4 14.3 1.5c5.6.6 11.1 1.3 16.7 2l14.7 1.8c6.8.9 13.6 1.8 20.4 2.6 7.1.8 14.3 1.5 21.4 2.3 6.4.7 12.7 1.5 19 2.2 4.1.5 8.3.9 12.4 1.4l30.5 3.6c2.7.3 5.4.5 8.1.9 6 .8 12 1.8 18 2.5 5.4.7 10.8 1 16.2 1.7 8.6 1.1 17.1 2.4 25.6 3.5 5.9.8 11.7 1.5 17.6 2.2l19.5 2.4c7.1.9 14.3 1.6 21.4 2.6 7.4 1 14.9 2.1 22.3 3.1 7.1.9 14.3 1.7 21.4 2.6 5.9.7 11.7 1.5 17.6 2.2l29.5 3.6c4.1.5 8.2 1.2 12.4 1.5 3.7.3 7.3.5 11 .6 4 .1 7.9.5 11.9 1.5 7.6 1.9 15.4 3 23.1 3.9 6.7.8 13.3 1.6 20 2.5 10.8 1.4 21.5 2.9 32.3 4.3 11.6 1.5 23.1 3 34.7 4.6 2.5.3 4.9 1.3 7.4 1.9v2.9c-3.7.6-7.4.3-11-.2-10.9-1.4-21.9-2.9-32.8-4.4-5.5-.7-11.1-1.4-16.6-2.2l-31.8-4.2c-6.8-.9-13.6-1.6-20.5-2.5-8.1-1-16.2-2.1-24.2-3.2l-25.6-3.6-26.1-3.6c-5.9-.8-11.7-1.4-17.6-2.2-8.7-1.1-17.4-2.4-26.1-3.5-6-.8-12-1.5-18.1-2.3-16.5-2-33-3.9-49.4-6.5-8.8-1.4-17.8-2.2-26.6-3.2-8.7-1.1-17.4-2.1-26.2-3.2-6.7-.8-13.3-1.7-20-2.5l-20-2.4c-6.2-.8-12.4-1.6-18.5-2.3-9-1.1-18.1-2.1-27.1-3.3-9-1.1-18.1-2.3-27.1-3.5-5.9-.8-11.7-1.7-17.6-2.4-9.4-1.2-18.7-2.1-28.1-3.5-8.9-1.3-17.9-1.1-26.8-1.1-6.1 0-12.1-1.3-18.1-2.1-6.2-.8-12.4-1.7-18.5-2.5-8.2-1.1-16.5-2.3-24.7-3.3-11.1-1.3-22.1-3.5-33.4-2.5-2.4.2-4.8-.3-6.9-1.4-2.7-1.4-5.7-2-8.7-2.4-9.8-1.3-19.6-2.5-29.5-3.9-8.2-1.1-16.4-2.4-24.7-3.5-8.1-1.1-16.2-2.1-24.2-3.2-8.9-1.2-17.7-2.3-26.6-3.5-9.2-1.1-18.4-2.1-27.6-3.3-13-1.7-26-3.5-39-5.2-7.1-.9-14.3-1.7-21.4-2.5-8.6-1-17.1-2.1-25.7-3.2-6.7-.8-13.3-1.7-20-2.5l-29-3.6c-8.6-1-17.1-2-25.7-3.1-11.1-1.4-22.2-2.9-33.3-4.3-6-.8-12-1.6-18.1-2.3-7-.9-13.9-1.8-20.9-2.6-4.8-.5-9.5-.8-14.3-1.3-1.9-.2-3.8-.6-5.6-.9-.1-.3-.1-1.2-.1-2.2zm0 291.8c5.1-.7 10.1.2 15.2.7 6.8.8 13.7 1.4 20.5 2 9.7.9 19.4 1.9 29.1 2.8 7.5.7 14.9 1.5 22.4 2.3 6.4.7 12.7 1.5 19.1 2.2 5.1.6 10.2 1 15.3 1.6 7.6.8 15.2 1.6 22.9 2.5 4.1.4 8.3.9 12.4 1.3 7.5.8 15 1.4 22.4 2.3 6.8.8 13.6 1.8 20.4 2.6 11.9 1.4 23.8 2.6 35.7 4 14.9 1.7 29.8 3.6 44.7 5.4 7 .8 14 1.4 21 2.2 6.8.8 13.7 1.1 20.6 1.3 5.1.2 10.1 1.2 15.2 1.9 5.7.8 11.4 1.8 17.1 2.5 10 1.3 20 2.4 30 3.6 10.3 1.2 20.7 2.2 31 3.3 10.6 1.2 21.3 2.4 31.9 3.5 5.4.6 10.8.8 16.2 1.3 6 .6 12.1 1.3 18.1 2 9.2 1.1 18.4 2.2 27.6 3.2 5.1.6 10.2.8 15.3 1.3 7.5.7 14.9 1.5 22.4 2.2l15.7 1.5 25.3 2.4c4.1.4 8.3.9 12.4 1.4 6.5.7 13 1.5 19.5 2.2 4.4.5 8.9.9 13.4 1.3 7.8.8 15.6 1.4 23.4 2.3 9 1 18.1 2.3 27.1 3.4 6.7.8 13.3 1.5 20 2.2 7.8.8 15.6 1.6 23.4 2.5 9.5 1.1 19 2.3 28.6 3.4l31.9 3.6c10.5 1.1 21 2 31.5 3.2 6.8.8 13.7 1.1 20.6 1.2 2.4 0 4.8.3 7.1.9 10.1 2.5 20.5 3.4 30.8 4.6 12.4 1.5 24.7 2.9 37.1 4.4 6.7.8 13.3 1.5 20 2.3 8.1.9 16.2 1.8 24.3 2.9 2 .3 4 1.1 5.9 1.8.5.2 1 .9 1 1.4 0 .4-.7 1.1-1.2 1.2-1.7.6-3.3.9-5.2.7-14-1.8-27.9-3.5-41.9-5.2-7-.8-14-1.4-21-2.2-6.5-.7-13-1.7-19.5-2.4l-22.4-2.4c-3.5-.4-7-.7-10.5-1.2-8.7-1.1-17.4-2.3-26.2-3.4-13.8-1.7-27.6-3.3-41.4-4.9-12.5-1.4-25.1-2.7-37.6-4.1-14.3-1.6-28.6-3.1-42.9-4.8-8.9-1-17.7-2.4-26.6-3.5-6.7-.8-13.3-1.4-20-2.2L667 1210c-7.2-.8-14.3-1.4-21.5-2.2-7.8-.8-15.6-1.7-23.4-2.6-7-.7-14-1.4-21-2.2-7.9-.8-15.9-1.7-23.8-2.5-7-.8-14-1.5-21-2.3-6.5-.7-13-1.5-19.5-2.3-3.8-.5-7.6-1.1-11.4-1.5-10.3-1.1-20.7-2.1-31-3.3-7.3-.8-14.7-.8-22-.5-3 .2-6.1 0-9.1-.4-13.6-2.1-27.3-3.2-40.9-4.8-5.6-.6-11.1-1.5-16.6-2.2-6.8-.8-13.7-1.5-20.5-2.1-1.6-.1-3.2.2-4.8.4-3.7.4-7.2.4-10.7-1.3-2.8-1.3-6.1-1.8-9.3-2.2-9.4-1.2-18.7-2.1-28.1-3.2-9.4-1.1-18.7-2.3-28.1-3.4-15.6-1.8-31.1-3.5-46.7-5.3-9.8-1.1-19.7-2.4-29.5-3.5-6.3-.7-12.7-1.3-19.1-2.1-6.5-.7-13-1.6-19.5-2.3-7.5-.9-14.9-1.7-22.4-2.5-8.1-.9-16.2-1.8-24.3-2.6-7.3-.8-14.6-1.5-21.9-2.2l-22.4-2.4-22.4-2.4c-3.7-.4-7.3-.9-11-1.2-5.3-.5-10.5-.8-15.8-1.2-2.2-.2-4.5-.2-6.7-.3.1-.6.1-1.9.1-3.2zm0-820.8c2.3-1.1 4.7-.9 7.1-.5 8.1 1.2 16.1 2.4 24.2 3.5l33.7 4.5c8.4 1.1 16.8 2.1 25.2 3.2l25.7 3.3c12.2 1.5 24.4 2.9 36.6 4.4 5.9.7 11.7 1.5 17.6 2.3l18.5 2.4c6.2.8 12.3 1.7 18.5 2.5 6.3.8 12.7 1.5 19 2.3 8.6 1.1 17.1 2.2 25.7 3.4l25.7 3.3c5.2.7 10.4 1.6 15.6 2.3 6 .9 12 1.7 18 2.5s12.1 1.5 18.1 2.3c13.3 1.8 26.6 3.7 39.9 5.6 3.5.5 7 1.1 10.4 1.4 3.3.3 6.7.5 10.1.5 4 0 8 .5 11.9 1.4 9.8 2.4 19.8 3.7 29.7 5.1 10.8 1.5 21.5 3.1 32.3 4.5 6 .8 12.1 1.5 18.1 2.2 6.3.8 12.7 1.6 19 2.3 3.8.5 7.6.8 11.4 1.3 11.6 1.5 23.1 3.2 34.7 4.7 3.3.4 6.7.7 10 1.1 10 1.2 20 2.6 30 3.8 3.5.4 7 .6 10.5 1.1l29 3.6c11.3 1.4 22.5 2.8 33.7 4.4 7.6 1 15.2 2.3 22.8 3.3 5.7.8 11.4 1.5 17.1 2.3 8.9 1.2 17.7 2.3 26.6 3.5 12.8 1.7 25.6 3.6 38.5 5.3 13.5 1.8 26.9 3.7 40.4 5.4 8.7 1.1 17.4 2.7 26.2 2.4 2.2-.1 4.5.5 6.6 1 8.7 2.3 17.5 3.5 26.4 4.6 9.5 1.2 19 2.7 28.5 4l26.1 3.6c4.1.6 8.2 1.2 12.3 1.9 1.4.2 2.7.9 4 1.4.3.1.7.8.6 1.2-.1.5-.6 1.4-1 1.4-1.9.2-3.8.5-5.7.3-10-1.3-19.9-2.9-29.9-4.3-7.8-1.1-15.5-2.1-23.3-3.1l-14.7-2.1c-5.7-.8-11.4-1.5-17.1-2.3-9-1.3-18-2.7-27-4l-28.9-4.2-32.3-4.5c-12.8-1.7-25.7-3.4-38.5-5.2-12-1.7-24-3.5-36.1-5.2-8.5-1.2-17.1-2.2-25.7-3.4-6-.8-12-1.5-18.1-2.3-8.7-1.1-17.4-2.3-26.1-3.4-8.9-1.2-17.7-2.3-26.6-3.5-8.4-1.1-16.8-2.1-25.2-3.3-8.1-1.1-16.1-2.3-24.2-3.5-4.7-.7-9.5-1.4-14.2-2-6.7-.8-13.3-1.7-20-2.3-4.3-.4-8.6-.4-12.9-.3-7.2.1-14.3-.7-21.4-2-5.2-.9-10.4-1.5-15.7-2.2-7.9-1.1-15.8-2.3-23.7-3.4-6-.8-12-1.6-18.1-2.3-1.7-.2-3.5-.1-5.3.1-3.2.3-6.4.1-9.4-1.3-4-1.9-8.4-2-12.6-2.6-9.6-1.5-19.3-2.9-28.9-4.3-5.9-.9-11.7-1.6-17.6-2.4l-16.1-2.4c-6-.9-12-1.7-18-2.5l-26.2-3.3c-5.7-.7-11.4-1.6-17.1-2.4-5.4-.8-10.7-1.6-16.1-2.3-6.3-.9-12.7-1.7-19-2.5l-25.2-3.3-18.5-2.4c-8.9-1.2-17.7-2.4-26.6-3.5-8.7-1.1-17.4-2.2-26.2-3.4-4.8-.6-9.5-1.4-14.2-2.1-8.7-1.2-17.4-2.4-26.1-3.5-9-1.2-18.1-2.4-27.1-3.5-8.2-1.1-16.5-2.2-24.7-3.2-6-.8-12.1-1.5-18.1-2.3-1.7-.2-3.5-.5-5.2-.6-3.8-.3-7.6-.6-11.4-.8v-3zm0 482.9c2.9-1.5 5.9-1.1 8.9-.7 10.6 1.4 21.2 3 31.8 4.4 8.4 1.1 16.8 2.1 25.2 3.1 1.6.2 3.1.3 4.3 1.4-.1 1-.7 1-1.4.9-3.2-.3-6.4-.4-9.5-.8l-42.8-5.4c-3.2-.4-6.4-.7-9.6-.8-2.4 0-4.7-.6-7-1.2.1-.2.1-.6.1-.9zm0-47c3-1.6 6.2-1.1 9.4-.6 11.7 1.7 23.3 3.6 35 5.3 3.5.5 7 .8 10.5 1.2 1.6.2 3.2.3 4.5 1.3-.5 1.4-1.8 1.2-2.8 1.1-2.9-.3-5.7-.6-8.5-1-7.1-.9-14.2-1.7-21.4-2.6-3.6-.4-7.3-.9-10.9-1.2-3.2-.3-6.3-.5-9.5-.9-2.1-.2-4.1-.5-6.1-.7-.2-.6-.2-1.3-.2-1.9zm0 338.9c2.6-1.1 5.3-.9 8-.6l24.8 2.7c6.7.7 13.3 1.5 20 2.3 1.9.2 3.8.3 5.7.6.7.1 1.3.5 1.9.7-.1 1.3-.9 1.3-1.4 1.2-7.5-.6-15-1.1-22.5-1.8-8.9-.9-17.8-2.1-26.7-3.1-.8-.1-1.6-.1-2.4-.1-2.6.1-5.1 0-7.5-1 .1-.3.1-.6.1-.9z" class="st0"/>
  <path d="M577.3 1046.1c-.8.6-1.4 1.2-2 1.4-.2.1-1.1-.8-1.1-1.2 0-1 .9-1.2 1.7-1.1.4.1.7.4 1.4.9zM349.8 837.9c.2-1.2.4-2.2.4-3.1.3-10.3-.2-34.5-.8-38-3.5-1.5-7.4-1.5-11.1-2.1-8.4-1.3-16.8-2.4-25.2-3.5-13.5-1.8-26.9-3.5-40.4-5.3-7.1-.9-14.3-1.9-21.4-2.9-.9-.1-2-.1-2.2-1.7 3-.6 6-.1 8.9.3 14.1 1.7 28.2 3.6 42.3 5.3l39 4.8c3.1.4 6.3.7 9.7 1 .1-1 .3-1.8.3-2.6 0-5.9.2-11.9-.2-17.8-.7-10.4-.7-20.8-.8-31.2-.1-9-.1-17.9-.2-26.9 0-7.4-.1-14.7-.1-22.1 0-1.4 0-2.9.1-4.3.3-3.1 1.4-4.2 4.6-4.4 1.7-.1 3.5 0 5.3.3 8.8 1.5 17.6 3 26.4 4.6.9.2 1.9.5 2.8.8 2 .6 3.3 2 3.7 4 .4 2.3.8 4.7.8 7.1.2 9.6.2 19.2.3 28.8 0 15.4-.1 30.7 0 46.1 0 6.9.4 13.7.6 20.6 0 .6.3 1.2.4 2 1.1.3 2.1.6 3.2.8 10.5 1.3 20.9 2.5 31.4 3.9 7.8 1 15.5 2.3 23.2 3.4 7.9 1.1 15.8 2.1 23.7 3.2 5.9.8 11.7 1.7 17.5 2.5 2.3.3 4.7.8 7.3.1-.2-.9-.4-1.7-.6-2.4-3.5-9.4-7-18.9-10.5-28.3-5.4-14.4-10.7-28.7-16.1-43.1-2.9-7.6-5.7-15.3-8.6-22.9-.7-1.9-1.3-4-1.8-6-.4-1.8-.3-3.5 1-5.1 2.2-.8 4.7-.7 7-.3 7.1 1.1 14.2 2.5 21.2 3.6 4 .7 6.6 2.8 8 6.6 1.7 4.6 3.7 9.2 5.4 13.8 5.5 14.8 10.9 29.7 16.4 44.6 5 13.5 10 27 15.1 40.4.7 1.9 1.2 3.9 2.5 5.5 1.3.1 1.4-.8 1.6-1.5 1.3-5.3 2.6-10.6 3.8-15.9l12-53.8c1.5-6.7 2.8-13.5 4.2-20.2.3-1.4.7-2.8 1-4.2.8-3.1 2.8-4.5 5.9-4.5 2.1 0 4.2 0 6.2.3 4.6.7 9.1 1.5 13.7 2.4 1.5.3 3.1.9 4.5 1.6 4.8 2.6 6.3 5.2 5.4 10.6-1.1 6.5-2.4 12.9-3.8 19.3-3.9 18.1-8.6 36.1-12.8 54.1-1 4.5-1.9 9-2.8 13.8 26.3 3.4 52.1 7.1 78.4 10 .1-1.1.4-2 .3-2.9l-1.8-28.7c-.8-11.6-1.5-23.3-2.3-34.9 0-.5 0-1-.1-1.4-1.4-7.6-1.4-15.3-1.8-22.9-.1-1.7-.1-3.5.1-5.3.2-1.8 1-2.7 2.8-2.8 2.5-.1 5.1-.2 7.6.2 6.5 1.1 12.9 2.4 19.3 3.8 3.9.8 5.1 2.1 5.8 6 .9 5.5 1.5 11.1 1.7 16.7.3 7.5.8 15 1.7 22.5.8 6.2.8 12.4 1.2 18.7.2 2.2.5 4.4.7 6.7.4 3.7.8 7.3 1.1 11 .4 5.6.7 11.2 1.1 16.8 0 .6.3 1.2.5 1.9 3.4 1.6 7.6.6 10.9 2.7-.4.5-.6.9-.8.9-3-.1-6-.2-9.2-.4-.1 1.1-.3 2-.4 2.9-.2 6.3.6 12.5 1.3 18.7.6 5.4.7 10.8.1 16.3-.2 1.7-.6 3.5 0 5.4 9.7 2.3 19.5 3.1 29.6 3.9.1-1.1.4-2 .2-2.9-1.1-9.7-1.1-19.5-1.1-29.2 0-2.2-.1-4.5-.2-6.7 0-.8-.3-1.6-.1-2.4.4-2-2.9-3.3-.8-5.5 0-1.9.1-3.8 0-5.7-.4-8.5-.9-16.9-1.3-25.4-.1-1.6-.2-3.2-.2-4.8-.3-9.3-.7-18.5-1-27.8 0-1.3-.1-2.6-.2-3.8-.1-4.3-.3-8.6-.8-12.9-.5-4.7-.5-9.6-.4-14.4.1-4.1 1.5-5.3 5.7-5.3 1.6 0 3.2.2 4.8.4 6.8 1 13.6 2.1 20.4 3 4.9.6 8.2 3.1 10.6 7.3 5.6 9.7 11.4 19.3 17.1 28.9 3.5 5.9 7 11.8 10.5 17.8 8.5 14.5 17 29 25.5 43.4 1.9 3.2 3.8 6.3 5.7 9.4 1.8 2.9 1.8 2.9 6.1 3 .1-1 .5-2.1.3-3.1-1.3-8.3-.8-16.6-1.1-24.9-.1-3.5-.6-7-.9-10.5-.3-4.1-.7-8.3-.9-12.4-.4-8.5-.6-16.9-.9-25.4-.1-3.2-.6-6.4-.8-9.6-.1-2.1-.2-4.2-.2-6.2.2-3.9 1.4-5.3 5.3-5.2 3.5.1 7 .6 10.5 1 3.8.5 7.6 1.1 11.4 1.7 5.9 1 8 1 9.1 8.9.2 1.4.6 2.9.6 4.3 0 7.4.8 14.7 1.2 22 .4 7.7.5 15.3 1.3 23 .2 2.2.2 4.5.2 6.7 0 5.9.4 11.8 1 17.7.4 3.8.2 7.7.4 11.5.1 1.7-.3 3.5.6 5.4 9.9 1.8 20.1 2.8 30.2 4 3.9.5 7.8 1.5 11.6 1.1 1-1.2.4-2.1.3-3-1-6.8-2.5-13.5-2-20.5 0-.5.1-1-.1-1.4-1.2-4.6-.4-9.2.1-13.8.8-6.3 1-12.8 4.4-18.4 1.3-5.1 3.5-9.9 5.9-14.6.6-1.1 1.1-2.3 1.9-3.3 7.1-9 15.2-16.9 26.3-20.9 5-1.8 10.1-2.9 15.4-3.1 5.4-.2 10.8-.5 16.3 0 11.8 1.1 22.8 4.6 32.9 10.9l5.7 3.6c5.3 3.4 10 7.4 13.9 12.4 3.9 4.9 8 9.6 10.7 15.3 2 4.1 3.7 8.2 4.9 12.5 1.1 4.2 1.5 8.5.1 12.6-1.5 1.2-3.2 1.2-4.7 1.2-6.3 0-12.4-1-18.5-2.5-2.4-.6-4.3-2.1-5.6-4.3-.8-1.4-1.5-2.8-2.2-4.3-3.6-7.5-8.4-14.1-15.6-18.4-10.9-6.6-22.3-7.8-33.6-1.3-5.4 3.1-9.8 7.7-12.4 13.6-.4.9-.7 1.8-1.1 2.6-6.2 11.2-6.4 23.2-5 35.5.4 3 .7 6 1.2 9 .2 1.3.6 2.5.9 3.7.4 1.6 1.5 2.3 3.1 2.5 6.4.6 12.7 1.3 19.1 2 1.6.2 3.2.5 4.7.7 5.2.7 10.5 1.4 15.7 2 .5.1.9-.1 1.5-.1-2.7-6.5-3.5-13.2-3.4-20 0-1.1.1-2.3.3-3.3.8-3.5 2.4-4.9 6-5.1 2.1-.1 4.2 0 6.2.2 6.3.8 12.7 1.4 19 2.5 7.9 1.4 15.9 1.6 23.6 3.8 3.9 1.1 6.5 2.4 6.9 7.9.4 4.9.6 9.9.9 14.8.1 2.2 0 4.5 0 6.9 1.2.4 2.2 1 3.3 1.1 4.7.7 9.5 1.3 14.2 2 1.7.3 3.4.8 5.1 1.3.5.2.8.8 1.2 1.2-1 1.5-2.4 1.4-3.6 1.3-3.7-.1-7.3-.4-11-.7-2.7-.2-5.3-.8-8.3-.3-.2 4.6.4 9 .7 13.4.3 4.6.3 9.3.5 13.9.2 4.4-.3 8.9.4 13.6 3.1.5 5.9 1 8.7 1.4 3.5.6 6.9 1.1 10.4 1.7.9.2 1.9.4 2.7.9.6.3 1.3 1 1.4 1.7.1 1-.8 1.3-1.6 1.3-1.6.1-3.2.1-4.8 0-4.1-.4-8.3-1-12.4-1.5-1.3-.2-2.5-.3-3.7-.4-1.2 1.1-2.2 2.6-3.6 3.2-1.5.7-3.4.8-5.1.9-2.1.1-4.2 0-6.2 0-3.3-.1-5.8-1.5-7.3-4.6-.6-1.3-1.3-2.7-3-2.8-2-.2-4.1-.2-6.2-.2-.5 0-1 .7-1.5 1.1-6.6 4.6-13.8 7.3-21.9 7.3h-9.1c-10.1.2-19.6-2.2-28.8-6.2-7.5-3.2-14.7-7.1-20.7-12.8-1.6-1.5-3.3-2.3-5.5-2.5-11.1-1.4-22.2-3-33.2-4.5-5.1-.7-10.1-1.5-15.2-2.3l-16.6-2.4c-.6-.1-1.3 0-2.1 0-.2 1-.5 1.9-.5 2.8.1 2.9.4 5.7.4 8.6 0 2.7-.1 5.4-.2 8.1-.1 1.4-1 2.4-2.5 2.5-1.4.2-2.9.4-4.3.2-8.6-1-17.1-2.2-25.7-3.3-2.8-.4-5.1-1.8-6.8-4.1-1.1-1.6-2.2-3.2-3.1-4.8-2.8-4.8-5.7-9.6-8.4-14.5-1.1-2-2.6-3-4.9-3.2-4-.3-8-.7-11.9-1.1-2.2-.2-4.4-.3-6.4-1.8 2.7-1 2.7-1 6.1-.7 2.2.2 4.4.6 6.7.8 2 .2 4.1.4 6.5.6-.3-1-.3-1.6-.6-2.1-4.2-7.3-8.4-14.7-12.7-22-6.7-11.3-13.5-22.5-20.2-33.8-2.5-4.3-4.9-8.6-7.5-12.9-2.8-4.7-5.7-9.2-8.6-13.8-.3-.5-.9-.8-1.2-1-1.2.3-1.1 1.1-1.1 1.6-.1 1.4-.1 2.9.1 4.3 1.1 7.6.5 15.3 1 23 .2 3.7.8 7.3.9 11 .4 8.9.6 17.9 1 26.8.2 4.3.5 8.6.7 12.9 2.7 1.5 5.9.6 8.6 2.7-2.6 1.4-5.2 0-7.8.9-.2.8-.5 1.7-.5 2.6-.1 3.5 0 7 0 10.6 0 1.1 0 2.3-.2 3.3-.3 2.1-1.5 3.1-3.5 3.4-1.3.1-2.6.2-3.8.1-7.5-.7-15-1.5-22.3-3.1-4.2-.9-5.7-2.6-6.2-6.9-.2-2.2-.2-4.5-.2-6.7 0-2.1 0-4.2-.1-6.2 0-.5-.2-.9-.3-1.7-1.1-.3-2.2-.9-3.4-1.1l-25.2-3c-.5-.1-.9.1-1.7.1-.3 1-.7 2-.8 3-.2 2.1-.2 4.2-.4 6.2-.4 4.2-1.9 5.6-6.2 5.8-1.3 0-2.6 0-3.8-.2-5-.8-10.1-1.7-15.1-2.6-.8-.1-1.6-.3-2.3-.5-2.7-.7-4.5-2.3-5-5.2-.4-2.5-.6-5.1-1-7.6-.1-.9-.2-1.9-.4-2.9-.8-.3-1.5-.8-2.3-.9-30.7-2.8-61.2-7.4-92-10.7l-1.6 5.1c-.7 2.5-2.3 3.8-4.9 3.7-3.5-.1-7.1-.1-10.5-.5-4.9-.7-9.8-1.6-14.6-2.6-4.9-1-8.2-4.1-10.5-8.4-.7-1.4-1.1-3-2.9-3.9-1.3 2.5-3.6 2.6-6.1 2.3-6.8-1-13.6-1.9-20.4-2.8-9-1.2-18.1-2.3-27.1-3.5l-24.7-3.3c-6.3-.8-12.7-1.7-19-2.5-9.3-1.2-18.7-2.4-28.1-3.5-.5-.1-.9 0-1.6.1-.1.9-.3 1.9-.3 2.8 0 2.6.1 5.1.1 7.7 0 1.1 0 2.3-.2 3.3-.6 3.5-1.9 4.8-5.5 4.7-3.7-.1-7.3-.5-11-1.1-6.1-1-12.2-2.4-18.4-3.5-6.3-1.2-8.2-2.7-8.6-9.9-.1-2.1.1-4.2.1-6.2 0-1.4-.1-2.8-.1-4.4-11.4-2.3-22.6-3.4-33.8-5.1-11.2-1.7-22.4-3.2-33.9-4.8-.3 1.1-.7 1.9-.7 2.8-.1 4 0 8-.1 12-.1 5.6-.9 6.5-6.6 6.1-6.5-.5-13-1.3-19.5-2.2-8.9-1.3-17.7-2.8-26.6-3.6-1.6-.1-3.2-.5-4.7-.7-10.8-1.4-21.6-2.7-32.3-4.1-4.1-.5-8.2-1.3-12.3-1.9l-19.5-2.7c-1.1-.2-2.2-.5-3.2-.8-2.1-.8-3.5-2.2-3.8-4.5-.2-1.7-.5-3.5-.7-5.2-.5-3.8-.9-7.6-1.4-11.5-7.1-1.6-14.3-1.2-21-3.8 3.5-1.7 6.8 0 10.2 0 3.5 0 6.9 1.3 10.6.9.2-1 .4-1.7.4-2.5-.1-6.1-.2-12.2-.4-18.2-.1-5.3-.3-10.6-.5-15.8 0-1.3-.1-2.6-.2-3.8-.2-2.9-.2-2.9-3-4.6.1-1.4 1.6-.8 2.5-2 0-.9.2-2.3.1-3.7-.5-10.5-1-21.1-1.4-31.6-.1-3.4-.1-6.7-.2-10.1-.2-6.7.1-13.5-.8-20.1-1.6-11.8-.7-23.6-1-35.5 0-1.1 0-2.2.1-3.4.2-2.6 1.2-3.8 3.8-4 1.9-.1 3.9-.1 5.7.1 4.4.6 8.8 1.3 13.3 2 3.6.5 7.3 1 10.9 1.6 6.8 1.1 7.8 2.5 8.1 9.5.3 8.1.9 16.3 1.4 24.4l.3 7.2c.4 11 .7 22.1 1.1 33.1.1 2.2.2 4.5.2 6.7 0 4.5-.1 8.9.8 13.4.4 1.9.3 3.8.4 5.7.2 9.7.5 19.5.6 29.2.1 4.2.9 8.2 1.8 12.3.5 2.4 1.9 3.6 4.1 4.1 1.9.5 3.8.8 5.7 1.1 6.6.9 13.3 1.7 20 2.6 10 1.4 19.9 3 29.9 4.1 6.8.7 13.6 1.6 20.4 3.1.8.2 1.6.3 2.3.5 2 .6 3.4 1.8 3.8 3.9.4 1.9.6 3.8 1 5.9.7.3 1.6.8 2.5.9l17.1 2.1c6.5.8 13 1.6 19.5 2.5l20 2.4c1.3.2 2.5.4 3.8.5 1.3-.1 2.9 0 4.7.1zm170 23.6c-.3-.7-.6-1.3-.8-1.8-1.6-3.5-3.5-6.9-4.6-10.5-3.1-10.6-8.3-20.4-11.8-30.8-.6-1.7-1.7-2.5-3.5-2.7-3.8-.4-7.6-.9-11.4-1.3-6.3-.8-12.7-1.7-19-2.4-9-1.1-18.1-2-27.1-3.2-13-1.7-25.9-3.5-38.9-5.3-1.6-.2-3.2-.3-4.8-.5-1.5-.2-3.1-.8-4.8-.1-.7 3.4 0 6.7 0 10 0 3.5.1 7 .2 10.5.1 3.4.1 6.7.3 10.1.2 3.4-.6 7 .7 10.6 3.3.5 6.6 1.1 9.9 1.6 6.2.9 12.3 1.7 18.5 2.6 7.3 1 14.5 2.1 21.8 3.2 8.2 1.2 16.4 2.3 24.7 3.4 8.5 1.1 17.1 2.3 25.6 3.3 7.9.9 15.9 1.5 23.6 3.7.3 0 .8-.3 1.4-.4zm48 3.9c30 4 59.8 8 89.7 11.9.7.1 1.5-.1 2.6-.1.3-3.7-.5-7.2-.7-10.6-.3-3.7-.8-7.3-1.1-10.9-.3-3.5-.2-7-.6-10.5-.5-3.6.2-7.3-1-11.1-4.4-.6-8.8-1.3-13.3-1.9-12-1.5-24.1-2.9-36.1-4.3-8.7-1.1-17.4-2.3-26.1-3.4-1.4-.2-2.8 0-4.4 0-3.5 13.1-6.2 26-9.2 38.9-.1.4.1 1.1.2 2zm361.6 44.4c-4-5.2-7.8-10.1-11.7-15-1.9-2.4-3.3-5-4.3-8-2.1-6.7-4.5-13.3-6.7-20-.1-.3-.3-.5-.7-1-4.5-1.2-9.2-1.6-14-2.3-4.9-.6-9.8-1.3-14.7-1.8-4.7-.5-9.3-1.7-14.3-1.3l.3 10.3c.1 2.1 0 4.2.2 6.2.9 7.5 1.8 14.9 1.6 22.5 0 .9.2 1.9.3 2.8.6.3 1 .6 1.4.7 20.5 1.7 40.8 5.3 61.3 7.5.4-.1.7-.3 1.3-.6zm88.2-28.5c-5.4-.8-10.1-1.5-14.8-2.3-4.9-.8-9.8-1-14.8-1.1-3.2-.1-6.4-.3-9.5-1.1-7.4-1.9-15.1-2.9-22.6-4.2-2.5-.4-5-.8-7.9-.5.5 1.3.7 2.4 1.2 3.3 2.7 5.1 5.9 9.9 9.7 14.2 5.4 6 11.3 11.1 19.2 13.9 6.4 2.2 12.8 2.4 19.4 1.3 1.9-.3 3.7-1 5.4-2 6.8-4.1 11.8-9.7 14.1-17.5.2-1.1.3-2.4.6-4zm-191.9-22.7c.6-3.6.5-3.7-1.9-3 .5.8.9 1.5 1.9 3zm-88-531.7c.3-2 .5-2.9.5-3.8-.1-9.9-.2-19.8-.5-29.7-.3-11.3-.8-22.7-1.2-34-.2-4.8-.5-9.6-.7-14.4-.1-1.3 0-2.6 0-3.8.1-2.2.9-3.2 3.1-3.7 1.2-.3 2.6-.4 3.8-.2 5.8.9 11.7 1.9 17.5 2.8.6.1 1.2.4 1.8.5 3.3.7 4.9 2.8 5.3 6 .3 2.2.5 4.5.5 6.7.2 8.3.4 16.6.5 24.9 0 1 0 1.9.1 2.9 1.3 7.9.9 15.9 1.1 23.9.2 9 .5 17.9.7 26.8.1 2.6.2 5.1.2 7.7 0 4.3.2 8.6.8 12.9.5 3.1.5 6.4.6 9.6.1 1.7.1 3.5.2 5.2 1 .4 1.7.8 2.5 1 8.3 1.5 48.5 5.9 52.1 5.7-.3-.6-.4-1.2-.8-1.6-3.1-4.2-6.4-8.4-9.4-12.7-1.2-1.8-2.1-3.9-2.8-6-2.5-7.7-4.8-15.5-7.4-23.8-.7-.2-1.9-.6-3.1-.8l-15.7-2.1c-.9-.1-1.8-.5-2.6-.8-.1-1.4.7-1.5 1.5-1.4l16.7 2.1c.8.1 1.6.2 2.7.3.1-1.2.5-2.3.3-3.2-.8-4.3-1.2-8.5-.7-12.9.1-.8-.1-1.6-.2-2.4-.1-1.1-.2-2.3-.1-3.4.5-4.9 1.1-9.8 1.7-14.7.1-.8.3-1.6.6-2.3 2.2-5.2 4-10.5 6.6-15.4 7-13.3 17.9-21.9 32.7-25.1 6.9-1.5 14-1.1 21-.5 14.8 1.2 27.2 7.9 38.4 17 2.5 2 4.6 4.4 6.7 6.9 4.6 5.5 8.8 11.3 11.4 18.2 1.3 3.5 2.6 6.9 3 10.6.2 2.6.3 5.1-1 7.5-1.8 1.2-4 1.2-6 .9-4.4-.6-8.8-1.4-13.2-2.3-3-.6-5.1-2.5-6.5-5.2-.8-1.6-1.5-3.2-2.3-4.8-2.3-4.5-5.2-8.4-9-11.8-5.4-4.8-11.8-6.9-18.8-7.5-2.3-.2-4.8.1-7.1.8-7.9 2.3-13.9 7.1-17.5 14.5-.4.7-.7 1.5-1.1 2.1-4.2 7.2-5 15.1-4.7 23.2.1 2.9.1 5.8.2 8.6.1 1.9 0 3.8 1 5.5 6.6 1.6 31.7 4.7 35.9 4.3.1-.9.2-1.8.2-2.6-.1-2.7-.4-5.4-.3-8.1.4-5.8 1.9-7.3 7.9-7 4.3.2 8.6 1.1 12.8 1.7 7.9 1.2 15.8 2.4 23.7 3.7 1.7.3 3.4.8 5.1 1.4 3 1.1 4.7 3.3 4.8 6.5.1 2.7.1 5.4.2 8.2 0 1.3.1 2.5.2 3.6 1.1 1.4 2.5 1.3 3.7 1.4l32.7 4.8c1.4.2 2.8.8 4.1 1.2.2.1.5.6.4.8-.1.4-.4 1-.7 1.1-1.9.2-3.8.6-5.7.3-7.8-1-15.5-2.1-23.3-3.2-3-.4-6-.9-9-1.2-.6-.1-1.2.1-1.8.1-.2.4-.5.7-.6.9-.1.8-.3 1.6-.2 2.4 1.6 12.4.4 24.9 1 37.6 1.8.4 3.5.8 5.2 1.1 10.7 1.7 21.5 3.3 32.2 5 1.6.2 3.1.7 4.6 1.3.5.2.7.9 1 1.2-.7 1.5-2 1.5-3 1.4-2.7-.1-5.4-.2-8.1-.6-9.8-1.4-19.6-2.9-29.4-4.3-.6-.1-1.2 0-2 0-.5 1.1-.9 2-1.4 3.3-.9.2-1.8.5-2.7.5-2.9.1-5.8 0-8.6.1-3.3.1-5.5-1.2-6.8-4.2-.4-.9-.9-1.7-1.4-2.6-1.4-.3-2.8-.7-4.3-1l-2.7 2.1c-4.2 3.4-9.1 5.5-14.5 5.6-6.6.2-13.1.1-19.7 0-5.5-.1-10.7-1.9-15.7-4-7.7-3.3-15-7.2-21-13.2-1.4-1.4-3-2.1-5-2.4-7.6-1.1-15.2-2.4-22.7-3.5-7.7-1.2-15.5-2.3-23.2-3.4-3.2-.5-6.3-.9-9.5-1.3-.4-.1-.9.2-1.6.3-.1 1.2-.4 2.4-.4 3.7 0 2.2.2 4.5.2 6.7 0 1.4.1 2.9-.1 4.3-.4 2.9-1.5 3.9-4.4 4-1.8.1-3.5.1-5.3-.2-5.2-.8-10.4-1.9-15.6-2.5-5.8-.7-9.5-3.7-12.3-8.7-6.1-11.2-12.4-22.4-18.7-33.5-6.9-12.3-13.9-24.5-20.8-36.7-1.7-2.9-3.2-5.9-4.8-8.8-2.2-3.9-4.5-7.7-6.8-11.6-.4-.6-1-1.1-1.4-1.6-1.2.5-1.2 1.4-1.2 2.1.3 11 .7 22.1.9 33.1.2 7.5.2 15 .3 22.6.1 4 .2 8 .2 12.2 1.3.4 2.5.9 3.7 1 3.5.5 7 .8 10.5 1.3 2.7.3 2.9.4 5.1 1.8-2.3.8-2.9.9-5.8.5l-6.6-.9c-2-.3-4.1-.5-6.3-.8-.3 1.2-.6 2.1-.6 3-.1 3 0 6.1-.2 9.1-.2 2.9-1.3 3.9-4.2 4.1-1.1.1-2.3.1-3.4-.1-5.4-.8-10.7-1.7-16.1-2.6-.3-.1-.6-.1-.9-.1-4.6-1-6.2-2.8-6.7-7.5-.2-2.4-.2-4.8-.3-7.2 0-.8-.2-1.6-.3-2.4-2.6-1.7-5.7-1.1-8.4-1.7-2.9-.7-6-1-9-1.2-2.8-.2-5.6-1.1-8.7-.6-.5 2.1-.8 4.1-1.3 6.1-.7 2.7-1.5 3.5-4.2 3.8-.9.1-1.9.2-2.9 0l-15.6-2.7c-.5-.1-.9-.2-1.4-.4-2.1-.7-3.5-2.1-3.9-4.4-.3-2-.7-4.1-1.1-6.3-2.5-.4-4.8-.9-7.1-1.2l-26.2-3.3c-9.7-1.2-19.3-2.5-29-3.9-1.6-.2-3.1-.7-4.7-1.1-.7-.2-1.2-.8-2.1-1.4 1.9-1.4 3.6-1.6 5.3-1.5 3.5.2 7 .6 10.5 1.1l28.4 4.2c7.4 1.1 14.9 2.2 22.3 3.2.7.1 1.5 0 2.6 0 .8-3.7-.9-7-.8-10.5.1-3.7-.3-7.3-.5-11-.2-3.5-.3-7-.5-10.5l-.6-10.7c-1-.3-1.9-.8-2.8-.9-8.2-1.1-16.5-2.2-24.7-3.2-7.6-.9-15.2-1.8-22.8-2.8-2.3-.3-4.8-.4-6.8-2.7.7-.3 1.2-.8 1.7-.8 1.8 0 3.5-.1 5.3.1 8.1.9 16.2 1.7 24.3 2.8 5.1.6 10.1 1.6 15.2 2.3 3.1.5 6.3.8 9.2 1.2 1.3-1.3 1-2.7 1-3.9-.3-8-.5-16-.9-24-.4-7.5-1.1-15-1.5-22.5-.5-9.1-.7-18.2-1.1-27.3 0-.8 0-1.6.1-2.4.3-2.2 1.2-3 3.5-3.2 3.6-.3 7 .6 10.4 1.2 3.8.7 7.5 1.7 11.2 2.5 4.5 1 5.9 2.5 6.2 7.2.5 6.9.6 13.7 1 20.6.3 5.4.8 10.8 1.3 16.2.1 1.6.4 3.2.4 4.8.4 9.4.8 18.8 1.3 28.3.1 2.2-.1 4.5 1.1 6.9 8 1.4 16.1 3.1 24.6 3.9.3-1 .6-1.9.7-2.8.1-1.8-.1-3.5-.1-5.3l-.3-23c-.3-11.5-.6-23-1-34.5-.1-3.5-.6-7-.8-10.5-.1-1.6.3-3.2.6-4.7.2-1.4 1.2-2.4 2.6-2.5 2-.2 4.1-.4 6.2-.2 3.2.3 6.3 1 9.5 1.5 3.1.5 6.3 1.2 9.4 1.7 3.8.6 6.4 2.6 8.2 5.9 1.9 3.5 4 6.9 6 10.4 7.5 13.5 15 27.1 22.6 40.7 7.8 13.9 15.7 27.8 23.6 41.7l2.6 3.2zm104.6 7.8c.1 1.4-.1 2.4.3 3.2 1.2 3.1 2.4 6.3 4 9.2 3.4 6.4 8.1 11.9 13.4 16.8 1.2 1.1 2.5 2.1 3.9 2.7 3.3 1.5 6.6 3.2 10.1 4.2 13.5 3.7 26.3-3.9 30.1-17.4.3-.9.2-1.9.2-2.8 0-1.6-.7-2.8-2.2-3.3-2.1-.7-4.3-1.4-6.4-1.8-4.1-.8-8.2-1.3-12.2-2.1-1.2-.2-2.6-.6-3.4-1.4-1.6-1.7-3.6-1.9-5.6-2.3-1.4-.3-2.8-.4-4.3-.6-9.2-1.5-18.2-2.9-27.9-4.4zm-193.4-26.1c-6.6-1.5-21.5-2.9-24.9-2.4.2 6.2.3 12.4.8 18.6.4 5.8.6 11.5-.1 17.2-.2 2-.6 4.1-.1 6.2.6.3 1.2.7 1.8.8l23.2 3c1.3-2.2.8-4.3.7-6.3-.2-4-.6-8-.7-11.9-.1-5.6 0-11.2-.1-16.8-.1-2.8-.4-5.5-.6-8.4zM404.7 563c-1 2.3-.6 4.1-.6 5.8.1 3.8.3 7.7.4 11.5 0 3.4.3 6.7 2.2 9.7.6 1 .7 2.4.7 3.7-.1 4.3-2.7 6.4-6.9 5.9-.3 0-.7 0-.9-.2-6.1-2.3-12.5-2.3-18.8-3.6-2.5-.5-5.1-.7-7.6-1.1-2.4-.4-3.3-1.3-3.7-3.7-1-7-2.2-13.9-2.3-20.9-.1-4.4-.7-8.9-1.1-13.2-.6-.4-1-.8-1.4-.9-3.7-.7-69.7-12.3-75.9-12.4-.4.7-.9 1.4-1.3 2.3-.5 1.2-.9 2.4-1.4 3.6-4 11-11.9 18-22.6 22-4.5 1.7-9.1 3.2-13.8 3.9-4.5.7-9.2 1.3-13.8.8-11-1.2-21.7-3.4-32.4-6.4-12.1-3.4-22.7-9.4-32.4-17.1-8.6-6.9-15.4-15.3-20.1-25.3-.6-1.3-1.3-2.6-2-3.9-4.1-1.6-8.5-1.6-12.7-2.2-11.5-1.7-23.1-3.1-34.7-4.7-12.3-1.7-24.7-3.4-37-5.2-3-.4-6-1.1-8.9-1.9-.8-.2-1.4-1-1.9-1.4.4-1.2 1.1-1.1 1.7-1.1 2.4 0 4.8 0 7.2.3 8.1 1.2 16.1 2.5 24.2 3.7l22.7 3.6 34.1 5.4c1.2.2 2.5.7 3.8-.2-1.1-4.5-2.3-8.9-3.4-13.4-.4-2-.6-4.1-.6-6.2 0-1.9 1.1-2.8 3.1-2.9 1.1 0 2.3 0 3.3.2 8.7 1.5 17.3 3.1 26 4.6.3.1.6.1.9.1 2.7.3 3.7 1.9 4.2 4.5.6 3.1 1.8 6.1 2.6 9.2 1.1 4 4 6.8 6.5 9.9.6.8 1.9 1 3 1.3 1.2.4 2.5.5 3.7.8.4.1.8.4 1.3.8-.7 1.9-2.7.5-3.7 1.6.6 1.7 2.2 2.6 3.6 3.6 7.6 5.4 16 8.5 25.3 9.6 1 .1 1.9.2 2.9.4 3 .7 6 .7 9-.1 3.1-.8 6.2-1.4 9.3-2.3 1.8-.6 3.6-1.3 4.6-3.5-2.4-1.5-5.2-1.1-7.7-1.7-2.6-.6-5.5-.2-8.3-2.1 1.2-.5 2.1-1.1 2.8-1 3.5.3 7 .8 10.5 1.2 1.6.2 3.1.3 4.6.5 1.7-2.3 2.3-4.7 2.2-7-.2-5-1.6-9.8-5-13.7-4.3-4.8-9.2-8.8-15.1-11.7-13.1-6.3-26.2-12.7-39.3-18.9-1.4-.7-3-1.3-4.5-1.4-8.3-.5-16.4-2.5-24.7-3.6-8.6-1.1-17.1-2.3-25.6-3.5-10.1-1.4-20.2-2.9-30.4-4.4-5.4-.8-10.8-1.4-16.1-2.2l-31.7-4.8c-1.7-.3-3.4-.7-5.1-1.2-.7-.2-1.2-.9-2.2-1.7 1-.4 1.6-.8 2.1-.8 2.9.1 5.8.1 8.6.6 7.3 1.1 14.5 2.6 21.9 2.3 1.9-.1 3.8.4 5.6 1.1 3.9 1.4 8 2.3 12.1 2.7 10.6 1.2 21.1 3.4 31.7 5.2 6.8 1.2 13.5 2.3 20.3 3.3 8.4 1.3 16.8 2.4 25.2 3.6.3 0 .6-.1 1.2-.2-.5-.5-.9-1.1-1.4-1.4-1.4-.8-2.8-1.5-4.2-2.3-8.1-4.2-14.5-10.4-20.1-17.6-3.9-5.1-6.8-10.8-8.3-17.1-.3-1.1-.5-2.2-.9-3.2-2.4-5-2.1-10.3-2-15.5v-.5c1.9-8.6 3.8-17.2 10.1-23.9 4.6-4.8 9.7-8.9 16-11 3-1 6-2.1 9.1-2.9 1.8-.5 3.8-.5 5.7-.8 2.2-.3 4.4-.5 6.6-.7 1.7-.2 3.5-.5 5.2-.3 10.3 1.2 20.5 2.9 30.4 6.2 15.8 5.3 29.6 13.5 39.9 27 4.7 6.2 8.2 12.9 10.3 20.4.9 3.1 1.5 6.2 3 9.1 1 1.9 1.1 4 .4 6.1-.6 1.8-1.6 2.7-3.4 2.7-.9 0-2-.1-2.8-.4-4.3-1.9-9-2.2-13.5-3.1-4.5-.9-9.1-1.5-13.7-2.1-2.7-.4-4.3-1.7-5-4.4-.5-2-1.1-4-1.8-6-2.1-6.1-5.6-11-11.1-14.6-7.4-4.9-15.6-7.2-24.1-8.7-4.6-.8-8.9-.5-13.2 1.1-.9.3-1.8.7-2.6 1.1-4.3 2-6.7 5.3-7.3 10-.7 6 .5 11.3 5.3 15.6 3.7 3.4 7.8 6.1 12.3 8.2 13.2 6.1 26.4 12.1 39.6 18.4 6.2 2.9 12.4 6 18.4 9.4 9.2 5.2 16.3 12.8 22.1 21.6 4.3 6.5 6.6 13.8 7.4 21.6.2 1.7.6 3.5.8 5.2.4 4.1.8 8.3.1 12.4-.1.6 0 1.2 0 2 3.8 1.7 7.9 1.7 11.8 2.4 5.5.9 11.1 1.6 16.6 2.3 8.1 1.2 16.1 2.3 24.2 3.5 5.7.8 11.4 1.6 17.1 2.5 2 .3 4 .7 6.4.3.4-4.7.1-9.3-.4-13.9-.5-4.4-.3-9-.8-13.4-.5-4.6 0-9.3-1.3-14-1.5-.3-2.8-.7-4.2-1-12.6-2.2-25.2-4.3-37.8-6.4-5-.8-10.1-1.5-15.2-2.2-6.6-1-13.3-2-19.9-2.9-1.3-.2-2.5-.4-3.3-1.5.3-1.1 1.1-1.1 1.9-1 2.7.3 5.4.6 8.1 1 15.5 2.2 31 4.5 46.5 6.7 7 1 13.9 2.1 20.9 3.1.8.1 1.5.1 2.5.1.9-3 .3-5.8.2-8.7-.2-3.8-.6-7.6-.8-11.5-.6-8.3-1.1-16.6-1.7-24.9-.1-2.2-.2-4.5-.4-6.7l-.3-2.4c-.3-2.9-1.8-4.6-4.7-5.2-5-1-10-2.1-15.1-2.9-7.1-1.2-14.2-2.2-21.3-3.4-2.4-.4-4.7-.9-7.1-1.3-2-.3-3.2-1.5-3.6-3.4-.3-1.5-.5-3.2-.5-4.7 0-2.9 0-5.8-1.6-8.4-.8-1.3-.9-2.8-.3-4.2 1-2.2.8-4.3.3-6.6-.1-.6-.3-1.3-.3-1.9-.1-2.6 1.4-4.2 4-4.4.9-.1 2-.1 2.9.2 6 1.8 12.3 2.1 18.4 3.2 7.1 1.3 14.1 2.7 21.3 3.6 8.3 1 16.4 2.9 24.6 4.1 11.2 1.7 22.4 3.4 33.6 5.2 6.6 1 13.2 2.2 19.9 3.3 3.3.5 6.6.9 10 1.4 3.6.6 4 1.1 4.4 4.5.3 2.9.7 5.7 1 8.6.1 1.3.3 2.5.3 3.8 0 3.5-.1 7 .9 10.5.2.7.2 1.6.1 2.4-.2 2.1-1.7 3.6-3.7 3.7-1.4.1-2.9 0-4.3-.2-12.1-1.9-24.3-3.9-36.4-5.9-1.6-.3-3.2-.5-4.6.6-1 1.2-.7 2.6-.8 4.1-.3 5.5 1 10.8 1.6 16.2.1.8.5 1.6.4 2.3-.9 5.1.4 10.2.3 15.3-.1 5.1.6 10.2 1.1 15.3.1 1.1.4 2.2.7 3.3 2.7 1.5 5.6 1.5 8.4 1.9 11.8 2 23.7 3.7 35.5 5.6 10.9 1.7 21.8 3.4 32.7 5.2 3.5.6 6.9 1.3 10.4 1.8 8.7 1.3 17.4 2.5 26.1 3.8 1.9.3 3.8.7 5.6 1.3.8.3 1.6.9 2.2 1.3-.1 1.4-.8 1.7-1.6 1.8-1.4 0-2.9 0-4.3-.2-9.8-1.6-19.5-3.3-29.3-4.8-7.9-1.2-15.8-2.2-23.7-3.4-7.9-1.1-15.8-2.3-23.7-3.5-10.6-1.6-21.2-3.3-31.7-5-1.9-.3-3.8-.3-5.9-.4-.2 1.2-.5 2.1-.5 3 .2 4.5.5 8.9.8 13.4.5 6.7 1 13.4 1.7 20.1.5 4.9.6 5 5.6 5.9 5.5 1 11 1.8 16.5 2.8l18.9 3.3c7.7 1.3 15.4 2.6 23.2 3.8 10.9 1.7 21.8 3.2 32.7 4.9 3.3.5 6.6 1.2 9.9 2 1.4.4 3.2.6 3.8 2.5-.5 1.4-1.8 1.3-2.8 1.3-2.1 0-4.1-.3-6.2-.6-8.4-1.2-16.7-2.5-25.1-3.8-10.3-1.6-20.5-3.4-30.7-5-8-1.3-16.1-2.3-24.2-3.5-5.1-.7-10.1-1.6-15.1-2.4-2.3-.5-3.9-.6-5.6-.8zm483 20.7c-.1-2.7-.2-4.6-.3-6.5l-2.4-32c-.3-4-.6-8-1-11.9-.5-5.2-1.2-10.5-1.7-15.7-.2-1.9-.2-3.8-.2-5.7 0-3.1-.2-6-1.3-8.9-.6-1.6-.6-3.5-.4-5.2.2-2.3 1.5-3.3 3.9-3.4 1.1 0 2.2 0 3.3.2 14.4 2.7 28.9 5.5 43.3 8.1 13 2.4 26.1 4.7 39.2 7 4.2.7 8.5 1.4 12.8 2.2 1.1.2 2.1.6 3.4 1 .3 1.2.7 2.4.9 3.6l2.1 20.5c.4 4.6-1.6 6.6-6.2 5.7-4.7-.8-9.4-2-14.1-2.9-14.9-2.8-29.9-5.4-44.8-8.1-.3-.1-.6-.1-.9-.1-5.4-.7-6.3 0-6 5.4.3 5.4.9 10.8 1.4 16.2.2 2.5.6 5.1.7 7.6.1 2.6.5 5.1 1.6 7.6 2.5 1.8 5.6 1.9 8.5 2.4 12.1 2.1 24.3 3.9 36.4 6 5 .9 10 2 15 3.1 1.8.4 2.5 1.4 2.7 3.5.3 3.5.5 7 .8 10.5.2 3 .5 6 1.4 9 .9 3.1-1 5.2-4.3 5.3-.6 0-1.3-.1-1.9-.2-11-2-22-4-33-6.1l-16.5-3c-.9-.2-1.9-.3-2.8-.4-3.4-.2-4.7.9-4.6 4.4.1 1.9.5 3.8.7 5.7.6 7.6 1.2 15.3 1.9 23 .1.8.2 1.6.2 2.5.9.4 1.7.9 2.6 1l35.4 6c3.9.7 7.9 1.2 11.8 2.1 2.2.5 4.4.8 6.2 2.2.3 1.4-.6 1.9-1.6 1.9-1.6.1-3.2.2-4.8 0-11.2-1.7-22.4-3.5-33.6-5.2-4.6-.7-9.2-1.4-13.7-2.1-.4-.1-.9.1-1.6.2-.6 1.7-.1 3.4-.1 5.1.1 1.8.3 3.5.5 5.2.4 3.6 1 7.3 1.3 10.9.3 3.7-1.6 5.4-5.3 4.7-6.8-1.2-13.5-2.5-20.3-3.8-1.6-.3-3.2-.4-4.7-.7-3-.5-3.9-1.4-3.8-4.5.4-6.8-1-13.4-1.3-20.1 0-.8-.3-1.6-.5-2.5-3-1.7-6.4-1.9-9.6-2.5-9.3-1.8-18.5-3.3-27.8-4.9l-42.6-6.9-25.5-4.2-21.3-3.3c-1.2-.2-2.5 0-3.6 0-.3.4-.6.7-.6 1 .3 5.3.5 10.5.8 15.8.1 1.3.4 2.5.4 3.8 0 .9-.2 1.9-.3 2.7-1.6 1.2-3.2 1.6-5.1 1.1-7.5-2.2-15.4-2.9-23-4.5-5.3-1.1-5.1-1.5-5.3-6.2-.2-3.8-.7-7.6-1-11.5l-.9-11.9c-.3-3.7-.4-7.3-.9-11-1.1-8.4-1.1-16.9-2.6-25.2-.1-.6-.1-1.3-.1-1.9-.1-12.5-1.6-24.9-2.5-37.3-.8-10.8-1.6-21.7-2.5-32.5-.1-1.1-.1-2.3-.4-3.3-.7-3-.8-6-.6-9.1.2-2.9 0-5.8-1.2-8.5-1-2.3-.9-4.7-.5-7.1.2-1.2 1-2.1 2.3-2.1 1.7-.1 3.5-.1 5.2.2 15.6 2.8 31.1 5.6 46.7 8.5l39.1 7.2 8.5 1.5c3.6.6 4.1 1.1 4.4 4.5.6 6.7 1.3 13.4 1.9 20 .1.8.2 1.6.2 2.4 0 2.7-1.4 4.2-4 4.3-.9 0-1.9-.2-2.8-.4-4.8-1-9.7-2.1-14.5-3.1-11.6-2.2-23.2-4.4-34.9-6.5-3.6-.7-7.3-1.1-10.9-1.6-.8-.1-1.6-.1-2.4 0-1.3.1-2.1.9-2.2 2.1-.1 1.1-.1 2.2 0 3.3l1.8 23.9c.1 1.1.3 2.2.5 3.3.8 4.6 1.3 5.2 6 6 8.8 1.6 17.6 3.5 26.4 4.5 8.9 1 17.5 3.4 26.4 4.6l1.4.3c2.6.7 3.2 1.3 3.4 3.9l.9 11.9c.2 2.4.4 4.8 1.5 7.3 21.9 4.2 44.4 7 67.5 10.6zm-67.4-7.4c-1.8 2.3-4 3.2-6.8 2.7-7.1-1.3-14.2-2.5-21.2-3.7-9.6-1.7-19.2-3.5-28.8-5.2-1.4-.2-2.9-.2-4.3-.2-1.1 0-1.9.7-2 1.7-.2 1.9-.4 3.8-.2 5.7.5 6 1.2 12.1 1.7 18.1.4 4.5.7 8.9 1.1 13.4 0 .4.4.9.7 1.5 6.2 1 12.5 2.1 18.8 3 10.6 1.5 21.2 2.7 31.8 4.2 10 1.4 19.9 3 29.8 4.5 8.2 1.2 16.4 2.5 24.6 3.7 7.4 1.1 14.8 2.4 22.4 2.1.9 0 1.8-.2 2.7-.3 0-1.2.1-2.2 0-3.1-.3-3.5-1-7-.9-10.5.2-8-1.8-15.9-1.5-23.9.1-1.6-.7-2.3-2.3-2.6-6-1.1-12-2.1-17.9-3.1l-31.6-5.4c-5.3-1-10.6-1.7-16.1-2.6zM632 544.8c12.5 3 24.8 4.3 37 6.6-.5 1.7-1.4 1.6-2.1 1.5-4.6-.5-9.2-1.1-13.8-1.7-5.9-.7-11.7-1.5-17.6-2.2-.3 0-.6.1-1.2.3.1.7.2 1.4.4 2.1 5.3 12.8 10.7 25.7 16 38.5.7 1.6 1.5 3.1 2.2 4.5 4.1 2 8.7 1 12.9 3.9-4 1.3-7.3-1.4-10.9-.2.1.8.1 1.6.4 2.3 1.6 4.2 3.3 8.3 5 12.5 2.1 5.2 4.2 10.3 6.4 15.5.8 2 1.3 4 .6 6.1-1.5 1.4-3.2 1.1-5 .9l-16.6-2.4c-1.9-.3-3.8-.4-5.7-.7-1.6-.2-3.1-.6-4.7-.9-1.5-.3-2.5-1.3-3.2-2.7-.6-1.3-1.2-2.6-1.7-4-3.6-9.2-7.2-18.4-10.9-27.7-.3-.7-.6-1.5-.9-2.2-.6-1.6-1.8-2.5-3.5-2.8-7-.9-13.9-1.9-20.9-2.9-10.1-1.5-20.2-3-30.3-4.4-2.2-.3-4.4-.5-6.3-.6-1.8 1.2-2.1 2.8-2.5 4.4-2.2 9.2-4.6 18.3-6.4 27.5-1 4.8-2.4 5.2-7 4.8-.2 0-.3 0-.5-.1-7.1-2.6-14.7-2.6-22.1-3.8-2-.3-4.1-.7-5.7-1-1.5-1.7-1.3-3.4-1.2-4.9.1-1.6.5-3.2.9-4.7 4.3-16.4 8.6-32.8 12.9-49.1 5-19 10.1-38 15.1-57 4.3-16.2 8.6-32.4 12.8-48.6 1.3-4.8 2.5-5.6 7.5-4.7 3.3.5 6.6 1.2 9.9 1.7 5.8.9 11.7 1.7 17.6 2.4 2.4.3 3.8 1.2 4.7 3.4 2.8 6.5 5.6 12.9 8.4 19.4 4.5 10.7 8.7 21.7 13.6 32.2 3.2 7 5.5 14.3 8.7 21.2 2.7 5.6 5.1 11.5 7.7 17.6zm-64-9.9c2.6.4 4.6.6 6.6 1 6.1 1.1 12.2 2.2 18.3 3.2.8.1 1.7-.1 2.9-.2-.4-1.3-.7-2.2-1-3-2.6-6.7-5.1-13.4-7.8-20-2.1-5.3-4.4-10.6-6.6-15.9-.4-1-.8-2.3-2.2-2.1-1.1.1-1.2 1.3-1.6 2.2-.2.6-.3 1.2-.5 1.9-2.4 9.2-4.8 18.5-7.1 27.8-.4 1.4-.6 2.9-1 5.1zm29.7 8.5c-11.7-2.4-26.9-4.4-31-4-1.1 4.7-3.4 9.4-2.5 14.6 1.8 1 3.5 1.4 5.2 1.6 6 .9 12 1.8 18 2.6 4.3.5 8.6.9 12.8 1.2 2.1.1 3-1 2.4-3-1.2-4.3-2.7-8.7-4.9-13zm287.9 132.1c-1.4.3-2.2.6-3.1.6-12.7.5-25.2-.6-37.7-2.9-7.2-1.3-14.5-2.3-21.8-3.5-9.3-1.4-18.6-2.8-28-4.3-9.5-1.5-18.9-2.9-28.4-4.4-11.2-1.7-22.4-3.5-33.6-5.2-7.7-1.2-15.5-2.3-23.2-3.4l-23.3-3.3c-10.6-1.5-21.2-3.1-31.8-4.6l-28.5-4.2c-10.1-1.5-20.2-2.9-30.4-4.4-4.1-.6-8.2-1.4-12.3-2-10.4-1.6-20.9-3.1-31.3-4.8-5.1-.8-10.2-1.1-15.3-.9-7.4.3-14.7-.7-21.9-2-7.4-1.3-14.8-2.4-22.2-3.6-7.3-1.2-14.5-2.4-21.8-3.5-5.1-.8-10.1-1.4-15.2-2-1.4-.2-2.9.1-4.3.3-2.3.3-4.6.2-6.6-.8-6.2-3-12.9-3.4-19.5-4.5s-13.3-2.1-19.9-3.1l-22.7-3.6c-4.6-.7-9.1-1.6-13.7-2.3l-24.7-3.6c-9.6-1.4-19.3-2.9-28.9-4.3l-47.9-7.2c-14.5-2.2-29.1-4.3-43.6-6.4-12-1.7-24.1-3.3-36.1-5.1-8.8-1.3-17.6-2.9-26.5-4.3-7.6-1.2-15.2-2.2-22.8-3.3-7.6-1.1-15.2-2.1-22.8-3.2-7.7-1.1-15.5-2.4-23.2-3.5-10.7-1.6-21.5-3.1-32.3-4.7-1.7-.3-3.4-.5-5-2.2.9-.5 1.5-1.1 2.1-1.1 1.4-.1 2.9.1 4.3.3 12 1.7 24 3.4 36.1 5.2 9.6 1.4 19.3 2.9 28.9 4.3 10.1 1.5 20.3 2.8 30.4 4.3 9.3 1.3 18.7 2.7 28 4.1 6.5.9 13 1.7 19.5 2.6 7.6 1 15.2 2 22.8 3.1 7.9 1.1 15.8 2.5 23.7 3.6 11.9 1.7 23.7 3.2 35.6 5 9.5 1.4 18.9 3 28.4 4.4 5.4.8 10.8 1.4 16.1 2.2 9.3 1.4 18.6 3.1 27.9 4.5 9.2 1.4 18.3 2.6 27.5 4s18.3 2.9 27.5 4.3c7.9 1.2 15.7 2.7 23.8 2.7 4.3 0 8.5 1.2 12.8 2 9.9 1.8 19.8 3.8 29.7 5.4 9.9 1.7 19.9 3.1 29.8 4.6 5.2.8 10.4 1.4 15.7 2.2l23.7 3.3c4 .5 7.9.9 11.9 1.4 9.5 1.4 19 2.9 28.4 4.2 6.2.9 12.3 1.7 18.5 2.5 6.2.8 12.3 1.7 18.5 2.5l19 2.4c4.9.6 9.8 1.3 14.7 2 8.1 1.2 16.1 2.5 24.2 3.6 11.1 1.6 22.1 3.1 33.2 4.8 7 1 13.9 2.3 20.8 3.3 10.1 1.5 20.2 2.9 30.3 4.5 8.5 1.3 17 2.7 25.6 4 7.7 1.2 15.5 2.4 23.2 3.5 7.7 1.2 15.5 2.3 23.2 3.4 9.7 1.3 19.3 2.7 29 3.9 2.5.3 5.1.1 7.7.4 1.9.2 3.7.8 5.6 1.3.9.2 1.3.8 2.2 1.5z" class="st0"/>
  <path d="M198.2 775c2.9-1.1 5.1-.6 7.2-.3 9.4 1.5 19 1.6 28.3 4 .2 0 .3.5.4.8-.3.8-1 .7-1.5.6-10.9-1.3-21.8-2.7-32.6-4-.4 0-.8-.4-1.8-1.1zm511.6-171.2c-1 1.8-2.2 1.4-3.2 1.3-4.9-.7-9.8-1.5-14.7-2.2-2.5-.4-5-.8-7.6-1.3-.5-.1-1-.5-1.7-1 1.2-1.1 2.3-1 3.3-.8 7.6 1.1 15.1 2.3 22.7 3.5.5 0 .9.4 1.2.5zM141.7 768.3c-.7.1-1.5.3-2.2.2-7.6-1-15.1-2-22.7-3.1-.2 0-.3-.5-.5-.7.2-.2.3-.6.5-.6.9-.1 1.9-.2 2.8-.1l19.4 2.4c.9.1 1.8.6 2.6.9.1.3.1.7.1 1zm-19 44.4c-1.6-.2-3.2-.4-4.7-.7-.2 0-.5-.5-.5-.7.2-.4.6-.9.8-.9 1.7.1 3.4.4 5.1.7.2 0 .6.5.5.6-.2.3-.5.6-.8.9-.1.1-.3.1-.4.1zm-14-50.2c.3.1.6.1.9.2.2.2.5.4.5.7 0 .2-.2.7-.4.7-.6.2-1.2.3-1.8.2-.3-.1-.6-.6-.7-1 0-.2.3-.5.5-.7.4-.1.7 0 1-.1zm135 18.2c-1 .3-1.5.6-2 .5-.3 0-.8-.6-.8-.8.1-.8.8-.9 1.4-.8.3.1.6.5 1.4 1.1zm582 77.9c-1-1.5-1.4-2.2-1.9-3 2.4-.7 2.5-.6 1.9 3z" class="st0"/>
</svg>
