<svg width="1035" height="1108" viewBox="0 0 1035 1108">
  <g fill="#FFF" fill-rule="evenodd">
    <path d="M.7 906.1C11 905.7 21 907.7 31.1 908.8 37.8 909.6 44.4 910.3 51.1 911.1 58.6 911.9 66 912.8 73.5 913.6 81 914.4 88.4 915.1 95.9 915.9 103.4 916.7 110.8 917.5 118.3 918.4 125.4 919.2 132.6 920.1 139.7 920.9 140.5 921 141.2 920.9 142.3 920.9 142.1 919.7 142.1 918.7 141.9 917.9 139.6 909.4 137.4 900.9 135 892.5 133.6 887.4 132 882.4 130.5 877.3 127.6 867.2 124.8 857 121.9 846.9 117.9 832.9 113.9 818.9 109.8 805 108.4 800.4 107.6 795.7 107.9 790.8 108.1 787.8 109.1 786.7 112 786.7 116.6 786.6 121.2 786.6 125.8 787.8 129.3 788.7 133.1 788.7 136.7 789.2 138.4 789.4 140.1 789.9 141.8 790.3 145 791.1 147 793.3 148.1 796.4 148.7 798.1 149.2 799.7 149.7 801.4 152.5 812.4 155.3 823.4 158.2 834.4 158.9 837.2 159.7 840 160.6 842.7 163.2 850.5 164.4 858.5 166.4 866.4 169.9 879.9 173.2 893.4 176.6 906.9 177.1 908.9 177.3 911 179 912.8 179.4 912.2 179.9 911.8 180.1 911.2 181.4 906.3 182.3 901.2 183.2 896.2 184.9 886.4 186.9 876.7 188.8 867 189 865.7 189.5 864.5 189.6 863.3 191.1 851.1 194 839.1 196.1 827 197.2 820.9 198.4 814.8 199.6 808.6 199.7 808.1 199.7 807.7 199.8 807.2 201 802 203 800.3 208.4 800.1 210.3 800.1 212.2 800.4 214.1 800.6 219.3 801.3 224.6 802 229.8 802.8 231.4 803 232.9 803.4 234.5 803.9 237.9 805 240.4 807.1 241.5 810.6 242.4 813.3 243.5 816 244.2 818.8 247.2 829.9 249.9 841.1 253.1 852.2 256.2 863.1 259.1 874.1 261.9 885.1 263.4 891.1 265.3 897.1 266.9 903.1 268.6 909.4 270.1 915.8 271.7 922.1 272.1 923.6 272.7 925.1 273.3 926.6 273.5 927.1 274.1 927.4 274.7 928 276.5 924.5 276.5 920.9 277.1 917.5 278.6 908.2 279.7 898.8 281.5 889.6 284.2 875.8 285.7 861.8 288.4 848 289.7 841.3 290.6 834.4 291.7 827.7 292.1 825 292.6 822.3 293.4 819.7 294.5 815.8 297 813.7 301 813.7 303.5 813.7 306.1 814.1 308.6 814.4 312.9 815 317.1 815.5 321.4 816.2 323.7 816.6 326.1 817.2 328.4 817.9 331.3 818.8 332.7 820.9 332.7 824.1 332.7 828.5 332.2 832.7 331.4 837 328.8 850.5 326.3 864 323.6 877.5 322.3 884.2 320.8 891 319.5 897.7 318.1 904.8 316.9 911.9 315.6 918.9 314.7 923.8 313.8 928.6 312.9 933.5 312.6 935.4 312.4 937.3 312.1 939.3 315.1 940.5 318 940.6 320.7 940.9 332.9 942.5 345.1 944 357.3 945.6 365.2 946.6 373.1 947.7 381.1 948.5 386.3 949.1 391.6 949.3 397.1 949.6 398.7 945.8 400.3 942.2 401.7 938.5 411 914.5 420.3 890.5 429.6 866.5 432.8 858.3 435.8 850.1 438.9 841.8 439.7 839.7 440.6 837.6 441.4 835.6 443.4 830.8 446.9 828.4 452.9 829 457.8 829.4 462.7 830.1 467.6 830.8 472.8 831.6 478 832.5 483.2 833.4 484.8 833.7 486.3 834.1 487.8 834.7 490.3 835.6 492.3 837.3 493.4 839.7 494.8 842.7 496.2 845.8 497.4 848.9 502.6 863 507.6 877.2 512.9 891.2 516.4 900.5 516.9 898.9 524.2 901.3 526.1 901.9 528.3 902 529.9 903.3 530.1 904.5 529.3 904.9 528.5 905 526.6 905.4 524.7 905.6 522.9 906.1 520.4 906.9 519.6 908.2 519.9 910.8 520.1 911.9 520.4 913 520.8 914 523.5 921.5 526.4 929 529.1 936.5 531.8 944 534.4 951.6 537 959.1 537.5 960.6 538.1 962.1 538.8 963.8 547.1 965.1 555.5 966.3 564.1 967.2 564.3 966 564.6 965.1 564.5 964.3 563.5 954.1 563.9 943.8 564 933.6 564 929.3 564.7 925 565.1 920.7 565.2 919.9 565.4 919.1 565.6 918.4 570.2 906.5 574.9 894.6 583.1 884.4 587.6 878.8 593 874.4 598.8 870.4 610 862.7 622.4 858.6 636 858 638.9 857.9 641.7 857.5 644.6 857.3 652.9 856.7 661.2 857.3 669.5 858.4 673.7 859 677.9 860.2 682.1 861.3 689.1 863.1 695.5 866.3 702 869.5 712.9 874.9 722.1 882.6 729.8 891.9 732.9 895.6 735.6 899.5 738.2 903.5 742.8 910.5 744.9 918.3 745 926.7 745 933.4 744.2 934.2 737.1 934.5 733.1 934.7 729.1 934.2 725.1 933.7 720.2 933.2 715.3 932.4 710.4 931.8 705.4 931.2 701.3 929 698.6 924.5 697.4 922.4 696.1 920.4 694.9 918.3 689.6 909.3 681.9 903.1 672.2 899.2 668.9 897.9 665.6 896.8 662.1 896.2 654.6 894.7 647.5 896 640.5 898.7 639.2 899.2 637.8 899.8 636.5 900.3 629.9 903 625 907.7 620.4 912.9 620.2 913.1 620 913.4 619.8 913.7 615.4 922.7 610 931.4 608.5 941.6 607.3 949.9 607.4 958.2 608.9 966.4 609.2 968.3 610 970.1 610.6 972.1 612.2 972.5 613.7 973 615.2 973.2 621.7 974 628.2 974.7 634.7 975.4 642.8 976.3 650.9 977.3 659 978.2 659.8 978.3 660.7 978.3 660.8 979.7 660.1 979.8 659.4 980 658.7 980 656 979.8 653.3 979.5 650.6 979.2 643.9 978.5 637.2 977.8 630.6 977.1 625.4 976.5 620.1 975.9 614.9 975.4 614 975.3 613.1 975.5 611.9 975.6 612.2 976.8 612.3 977.7 612.6 978.6 616.7 990.7 623.8 1000.9 633.4 1009.2 641.4 1016.2 650.7 1020.6 661.2 1022.6 661.4 1022.6 661.5 1022.6 661.7 1022.7 664.5 1023.2 667.4 1024.4 670.1 1024.2 673.7 1023.9 677.3 1022.6 680.8 1021.8 683.9 1021 686.8 1019.7 689.5 1017.8 690.8 1016.9 692.1 1015.9 693.5 1015.1 700.6 1011 703.8 1004.4 705.4 996.8 706 994.1 704.9 992.1 702.7 990.7 701.4 989.9 699.9 989.2 698.3 988.8 696.5 988.3 694.5 988 692.6 987.9 686 987.9 679.6 986 673.1 985.5 672 985.4 670.9 985.1 669.8 984.7 666.6 983.6 664.2 981.6 663.6 978 663.2 976 662.8 973.9 662.7 971.8 662.5 967.5 662.6 963.2 662.6 958.8 662.6 958.2 662.6 957.5 662.7 956.9 663.2 952.5 665 950.5 669.4 950.3 674.2 950.1 679 950.2 683.8 950.7 689.5 951.2 695.2 952.2 700.9 953 702 953.1 703.1 953.2 704.3 953.2 709.1 953.3 713.9 953.6 718.6 954.6 720.2 954.9 721.8 954.9 723.4 955 729.6 955.7 735.8 956.3 742 957 742.6 957.1 743.3 957.2 743.9 957.4 748.9 959.1 751.2 960.9 751.3 966.6 751.4 970.6 751.4 974.6 751.4 978.6 751.4 981.8 751.7 984.9 752.3 987.9 756.2 989.1 784.7 992.4 790.3 992.3 790.4 991.5 790.8 990.6 790.7 989.7 790.3 983.8 789.8 977.9 789.3 972 788.7 965.3 788 958.6 787.4 951.9 787.3 950.6 787.3 949.3 786.9 948.1 785.8 944.4 785.9 940.5 785.6 936.7 785.2 931.9 784.5 927.2 784 922.4 783.2 915.4 782.5 908.4 781.8 901.4 781.3 896.3 780.7 891.2 780.3 886.1 780.1 883.7 780 881.3 780.2 878.9 780.5 875.9 781.9 874.6 784.9 874.5 788.2 874.3 791.6 874.2 795 874.5 801.2 875.1 807.4 876 813.5 876.8 820.9 877.7 828.4 878.5 835.9 879.4 841.3 880 846.7 880.8 852.1 881.4 854.2 881.7 856.2 881.8 858.3 882 860.5 882.2 862.7 882.5 865 882.8 870.9 883.5 876.8 884.2 882.6 884.9 887.7 885.5 892.7 886.2 897.8 886.8 898.7 886.9 899.7 887.2 900.6 887.5 903.3 888.3 905.1 890.1 905.6 892.8 906.4 897.2 906.9 901.6 907.5 906.1 907.8 908.8 908 911.5 908.1 914.2 908.2 915.5 908.2 916.8 908 918 907.5 921.2 905.3 923.5 901.7 923.1 897.6 922.7 893.4 922.3 889.3 921.8 881.2 920.9 873.1 920 865 919.1 862.8 918.9 860.6 918.5 858.3 918.3 852.4 917.6 846.6 917 840.7 916.3 838.5 916 836.3 915.7 834.1 915.5 830.9 915.1 827.8 914.5 824.3 915.7 824.1 917.1 823.7 918.5 823.7 919.9 823.7 928.4 824.7 936.8 826.5 945.1 827.1 948.1 828.6 949.9 831.7 950.5 837 951.5 842.2 953.1 847.7 953.2 850.6 953.3 853.4 953.8 856.3 954.1 861.2 954.7 866.1 955.3 871 955.9 879.7 957 888.5 957.9 897.2 959.2 904.1 960.2 905.6 961.9 906.6 969.1 907.3 973.7 907.8 978.3 908.2 982.9 908.4 985.1 908 987.4 907.6 989.5 907.2 991.4 905.8 992.4 903.8 992.5 899.3 992.7 894.8 992.7 890.4 991.9 888.4 991.5 886.3 991.4 884.2 991.1 879 990.5 873.7 989.9 868.5 989.3 862.9 988.7 857.4 988 851.8 987.5 848.6 987.2 845.5 987.1 842.3 986.4 839.9 985.8 837.2 986.3 834.7 986.1 832.4 985.9 830.7 987.7 830.6 989.8 830.5 991.9 830.6 993.9 830.6 996.3 832.1 996.6 833.3 997 834.5 997.1 841.2 997.7 847.9 998.2 854.6 998.9 857.9 999.2 861.3 999.7 864.6 1000.1 877 1001.6 889.3 1003.2 901.7 1004.7 908.5 1005.5 915.4 1006.1 922.2 1006.9 927.9 1007.6 933.6 1008.4 939.3 1009.1 943.3 1009.6 947.2 1010.1 951.2 1010.6 953.3 1010.9 955.3 1011.3 957.3 1011.8 958 1012 958.6 1012.6 959 1012.9 959.1 1014.1 958.3 1014.3 957.8 1014.3 956.4 1014.5 954.9 1014.7 953.5 1014.6 944.9 1014.2 936.3 1013.1 927.7 1012 920.6 1011.1 913.4 1010.3 906.3 1009.4 899.8 1008.6 893.3 1007.8 886.8 1007.1 883.3 1006.7 879.8 1006.3 876.3 1006.3 871.5 1006.3 866.8 1005.7 862 1004.8 855.1 1003.5 848.1 1002.7 841.2 1001.6 839 1001.3 836.8 1000.9 834.6 1000.7 833.9 1000.6 833.1 1000.8 832.1 1000.9 832 1001.9 831.8 1002.7 831.9 1003.4 832.5 1009.3 833.2 1015.2 833.9 1021 834 1021.9 834.4 1022.9 834.6 1023.8 835 1026 836.4 1027.1 838.4 1027.5 842 1028.2 845.6 1028.9 849.3 1029.3 860.6 1030.5 871.9 1031.4 883.2 1032.8 889.1 1033.5 894.9 1034.3 900.8 1034.6 906 1034.9 911.3 1035.9 916.5 1036.6 917.3 1036.7 918.1 1037 918.9 1037.1 922 1037.6 923.7 1039.4 924.1 1042.5 924.4 1044.6 924.7 1046.6 925 1048.7 925.2 1049.9 925.3 1051.2 925.5 1052.6 929.6 1054.1 933.8 1054.2 937.9 1054.7 944.5 1055.7 951.2 1056.5 957.8 1057.5 959 1057.7 960.3 1058.1 961.4 1058.7 961.9 1059 962 1059.9 962.3 1060.6 960.2 1061.6 958.3 1061.5 956.4 1061.3 951.3 1060.8 946.2 1060.2 941.1 1059.6 937.1 1059.2 933.2 1058.7 929.2 1058.3 928.3 1058.2 927.3 1058.3 926.1 1058.3 925.9 1059.5 925.7 1060.5 925.6 1061.6 925.5 1064 925.7 1066.4 925.5 1068.8 925.4 1071.3 924 1072.8 921.6 1072.8 917 1072.9 912.3 1072.8 907.7 1072.6 904.7 1072.5 901.7 1072 898.7 1071.6 895.7 1071.2 892.7 1070.7 889.7 1070.2 888.8 1070.1 887.8 1070 886.9 1069.9 884.4 1069.6 881.8 1069.2 879.3 1069.2 867.1 1068.9 855.2 1066.1 843 1065.9 840.6 1065.9 838.3 1065.2 835.9 1064.9 830.4 1064.1 824.8 1063.3 819.3 1062.6 816.8 1062.3 814.2 1062.3 811.6 1062.1 809.2 1061.9 806.8 1061.6 804.5 1061.1 800.9 1060.3 798.5 1058.1 797.9 1054.4 797.4 1051.4 797 1048.4 796.6 1045.4 796.5 1044.3 796.3 1043.2 796.2 1042.2 795.6 1041.9 795.2 1041.6 794.7 1041.5 793.9 1041.3 793.1 1041.2 792.3 1041.1 779.8 1039.9 767.3 1037.7 754.6 1036.7 754.4 1037.8 754.1 1038.7 754.1 1039.6 753.8 1044.1 754.2 1048.5 755.2 1052.9 755.8 1055.6 755.6 1058.3 754.9 1061 754 1064.4 752.4 1065.9 748.8 1066 743.5 1066.1 738.2 1066.1 733 1065.8 728.3 1065.5 724.5 1063.1 722 1059 720.8 1057.1 719.8 1055.1 718.7 1053.2 717.1 1050.4 714.8 1049.7 711.8 1050.8 710.9 1051.1 710.1 1051.7 709.3 1052.2 703.4 1056.3 696.9 1058.6 689.8 1059.6 685.4 1060.3 681 1061.4 676.5 1061 675.1 1060.9 673.7 1060.6 672.3 1060.3 671 1060.1 669.8 1059.8 668.5 1059.8 655.5 1059.8 643.2 1056.6 631.4 1051.4 626.6 1049.3 621.9 1046.9 617.2 1044.4 611.4 1041.3 606.3 1037.1 601.4 1032.8 599.1 1030.8 597.2 1028.6 595 1026.5 592.9 1024.3 590.7 1022.2 588.6 1020 587.6 1018.9 586.6 1018.1 585 1017.9 576.6 1017.1 568.2 1016.1 559.7 1015.3 559.2 1015.3 558.8 1015.4 558.4 1015.5 557.4 1016.6 558 1017.7 558.3 1018.7 559.6 1022.5 561 1026.2 562.3 1030 563.1 1032.4 563.8 1034.9 564.3 1037.4 564.6 1038.9 564.7 1040.6 564.5 1042.2 564.3 1045.2 562.9 1046.6 560 1046.8 557.6 1046.9 555.2 1046.9 552.8 1046.6 544.9 1045.5 537 1044 529.1 1042.9 522.7 1042 518.6 1038.5 516.6 1032.5 514.4 1026.3 512.4 1020.1 510.3 1013.9 509.9 1012.8 509.5 1011.8 509 1010.6 506.2 1010.2 503.4 1009.8 500.5 1009.5 487.2 1008.1 473.8 1006.8 460.5 1005.3 452.4 1004.4 444.3 1003.5 436.2 1002.4 433.5 1002.1 430.9 1001.4 428.1 1000.8 427.6 1002.1 427 1003.2 426.6 1004.4 425.3 1008.3 424 1012.3 422.7 1016.2 422.6 1016.5 422.5 1016.8 422.4 1017.1 419.1 1024.7 417.5 1024.6 411.3 1024.6 406.8 1024.6 402.4 1024 398 1023.2 392.8 1022.2 387.6 1021.6 382.4 1020.9 373.2 1019.7 373.5 1015.4 374.4 1009.3 374.7 1007.3 375.6 1005.3 376.3 1003.4 376.9 1001.8 377.6 1000.2 377.8 998.4 374.1 997.3 309.2 989.9 302.5 989.7 301.3 990.7 301.4 992.2 300.9 993.5 300.4 995.2 299.9 996.9 299.3 998.5 298.3 1001 296.4 1002.3 293.7 1002.3 290.7 1002.4 287.6 1002.5 284.6 1002.2 278.6 1001.5 272.6 1000.5 266.6 999.6 265.3 999.4 264.1 999 262.9 998.7 259.9 997.9 257.9 995.9 256.9 993 255.8 990 254.8 987 253.7 984.1 248.6 982.4 211.3 977.3 205.4 977.5 205 978.9 204.5 980.4 204.1 981.9 202.5 987.9 199 990.2 192.8 989.4 188.4 988.8 183.9 988.2 179.5 987.6 175.7 987.1 171.9 987 168.1 986.2 163.4 985.2 160.4 982.6 159 978.1 158.3 975.8 157.5 973.6 156.7 971.1 154.8 970.8 153 970.3 151.1 970.1 141.4 969 131.7 968.1 122 967 116.8 966.4 111.5 965.6 106.3 965 101.2 964.4 96.1 963.9 91.1 963.4 87.4 963 83.8 962.6 80.1 962.3 78.8 962.2 77.6 962 76.6 960.5 77.2 960.3 77.7 959.8 78.3 959.9 80.5 960 82.8 960.2 85 960.4 96.8 961.5 108.6 962.6 120.3 963.7 130.5 964.7 140.6 966 150.8 967 152.2 967.1 153.6 967 155.3 967 155.1 965.7 155.1 964.6 154.8 963.6 152.1 954.1 149.3 944.5 146.6 935 145.6 931.5 144.7 927.9 143.7 924.2 142.4 923.8 141.2 923.2 140 923.1 131.3 922 122.5 921 113.8 920 104 918.8 94.1 917.7 84.3 916.6 77.5 915.8 70.6 915.1 63.8 914.3 55.9 913.4 47.9 912.6 40 911.7 32.4 910.9 24.7 910.1 17.1 909.4 13.1 909 9.1 908.9 5.2 908.5 3.6 908.4 2.1 907.9.5 907.6.7 907.4.7 906.8.7 906.1zM380.2 993.5C381.3 990.7 382.3 988 383.4 985.3 387 975.9 390.6 966.5 394.2 957.1 394.6 956.1 394.7 955 395 953.8 393.8 953.5 392.9 953.1 392 953 387.9 952.5 383.7 952.1 379.6 951.6 372.3 950.8 365 949.9 357.7 949.2 350.1 948.4 342.4 947.7 334.8 946.9 327.7 946.1 320.5 945.3 313.4 944.5 312.7 944.4 311.9 944.7 310.9 944.8 310.2 947.4 309.4 949.8 309 952.3 307.6 962.1 305.5 971.8 303.7 981.5 303.5 982.4 303.6 983.3 303.6 984.1 311.1 986.1 374.8 993.9 380.2 993.5zM753.1 991.8C753 993 752.7 994.1 752.7 995.2 752.9 999.7 752.8 1004.2 753.4 1008.6 754.2 1014.2 754.3 1019.7 754.3 1025.3 754.3 1027.2 754.2 1029.1 754.3 1031 754.3 1031.9 754.7 1032.8 754.9 1033.8 759.5 1034.2 764 1034.5 768.4 1035 773 1035.5 777.6 1036.2 782.2 1036.4 786.6 1036.6 790.9 1038.1 795.5 1037.5 795.9 1034.8 795.7 1032.5 795.3 1030.1 794.8 1026.2 794.1 1022.2 793.7 1018.3 793.2 1013.1 792.9 1007.8 792.5 1002.6 792.3 1000.4 792.5 998.1 791.2 995.8 779.4 993.6 767.3 993.1 755.3 991.5 754.8 991.5 754 991.7 753.1 991.8zM251.3 977C251.4 976.7 251.7 976.4 251.6 976.2 248.2 963.6 244.9 950.9 241.5 938.3 241.3 937.6 240.9 936.9 240.6 936.3 233.2 934.6 217.6 932.8 213.7 933.2 211.7 939.5 211.5 946.3 210.1 952.8 208.7 959.5 207.2 966.1 206.9 972.9 214.2 974.8 244.6 977.6 251.3 977zM489.2 955C490.2 952.3 489.3 950.2 488.6 948.1 485.3 938.1 482 928.1 478.7 918.1 476 909.9 473.2 901.7 470.5 893.6 470.1 892.5 469.9 891.3 468.5 890.3 466.7 893.3 465.6 896.3 464.6 899.3 459.7 913 454.9 926.7 450.1 940.4 449.5 942 449.1 943.8 448.9 945.5 448.6 947.9 449.1 948.7 451.4 949.4 453.7 950.1 456 950.7 458.4 951.1 465.8 952.4 473.2 953.7 480.6 954.8 483.2 955.3 486.1 956.1 489.2 955zM583.4 1015.4C583.6 1013.3 582.1 1012.3 581.2 1011.1 578.7 1007.6 576.1 1004.1 574.6 1000 571.4 991.3 567.9 982.7 566.1 973.6 565.9 972.6 565.4 971.6 565 970.6 562.7 970.4 560.6 970.2 558.6 969.9 553.5 969.3 548.4 968.7 543.4 968.2 542.7 968.1 542 968.4 541.1 968.5 541.3 969.5 541.4 970.1 541.6 970.7 542.9 974.6 544.1 978.6 545.8 982.4 547.7 986.8 549.7 991.2 552.2 995.2 553.7 997.6 554.8 999.9 554.6 1002.8 554.4 1005.4 555 1007.9 555.8 1010.3 556.3 1011.8 557.2 1012.7 558.9 1012.9 564.9 1013.5 571 1014.2 577 1014.8 579 1015 581.2 1015.2 583.4 1015.4zM504.6 996.6C504.1 996.3 503.9 996 503.6 995.9 497.8 993.6 491.6 992.9 485.5 991.5 485 991.4 484.5 991.5 484.1 991.4 480.3 991 476.4 990.9 472.7 990.1 464 988.1 455 987.9 446.3 985.9 443.4 985.3 440.3 985.6 437.2 985.6 435.9 985.6 434.6 986.1 434 987.3 432.3 990.7 430.5 994 430.1 998.1 431.1 998.2 431.9 998.3 432.7 998.3 438.8 998.1 444.8 999 450.8 1000 456.8 1001 462.8 1001.5 468.8 1002.3 472.4 1002.7 476.1 1003.1 479.7 1003.5 488.2 1004.6 496.8 1005.7 505.3 1006.7 506.2 1006.8 507.1 1006.6 508.3 1006.5 506.9 1003 505.7 999.7 504.6 996.6zM223.6 876.5C223.2 878.1 222.7 879.5 222.4 881.1 221.5 885.8 220.8 890.5 219.9 895.2 218.6 902.6 217.2 909.9 215.8 917.3 215.3 920.3 214.8 923.3 214.5 926.3 214.4 927.2 214.7 928.1 214.7 928.9 230.7 931.2 235.4 931.6 239.3 930.8 239.3 928.6 238.6 926.5 238 924.4 235.2 914.3 232.5 904.1 229.7 893.9 228.5 889.4 227.4 884.9 226.1 880.5 225.8 879.1 225.8 877.3 223.6 876.5zM117.8.8C118.6 1.7 119.7 1.7 120.9 1.9 126.4 2.8 131.9 3.7 137.4 4.6 137.9 4.7 138.4 4.7 138.8 4.8 142.9 5.7 144.1 7.1 144.4 11.4 144.5 13 144.4 14.6 144.5 16.2 144.7 20.7 145 25.1 145.2 29.6 145.3 32.5 145.4 35.4 145.4 38.2 145.4 44.1 145.3 50 145.4 56 145.5 59.2 145.8 62.4 146 65.6 146.1 67.2 146.2 68.8 146.2 70.4 146.3 80 146.4 89.6 146.5 99.2 146.5 100.2 146.6 101.1 146.6 101.9 147.7 103.4 149.1 103.4 150.6 103.6 155 104.2 159.5 104.7 163.9 105.4 173.2 106.8 182.5 108.3 191.8 109.7 198.4 110.7 205.1 111.4 211.8 112.3 215.3 112.8 218.7 113.5 222.2 114 224.6 114.3 227 114.4 229.3 114.7 242.8 116.5 256.2 118.4 269.7 120.2 272.7 120.6 275.7 121.1 278.7 121.5 279.6 121.6 280.5 121.5 281.4 121.5 282.5 119.9 282.1 118.3 282.1 116.7L282.1 83.6C282.2 72.6 282.3 61.5 282.4 50.5 282.5 44.7 282.6 39 282.7 33.2L282.7 32.2C283 27 284.6 25.4 289.6 26.3 297.6 27.6 305.7 29.1 313.6 30.8 319.9 32.2 320.9 33.5 320.9 40 321 53.8 321.5 67.5 320.7 81.3 319.9 94.7 320.3 108.1 320 121.6 320 122.9 320.1 124.2 320.1 125.4 320.1 125.7 320.3 126 320.6 126.5 323.2 127.3 326.1 127.4 328.9 127.7 332.4 128.1 335.9 128.4 339.4 128.9 347.6 130.1 355.8 131.4 364 132.6 374.3 134.1 384.6 135.5 394.8 137 399.9 137.7 404.9 138.5 410 139.2 410.4 139.3 410.9 139.1 411.5 139 411.9 137.7 411.3 136.5 410.9 135.4 406.7 123.7 402.5 111.9 398.4 100.2 393.2 85.3 388 70.3 382.9 55.4 382.2 53.3 381.8 51.1 381.6 48.9 381.4 46.6 382.5 45.7 384.7 45.5 385.7 45.4 386.6 45.4 387.6 45.6 394.2 46.8 400.8 48.1 407.4 49.4 410.4 50 412.6 51.6 413.8 54.6 415 57.6 416.3 60.5 417.3 63.5 423.6 81.3 429.8 99.1 436 116.9 438.7 124.7 441.4 132.6 444 140.5 444.4 141.6 444.7 142.7 445.3 143.6 445.6 144 446.4 144.3 447 144.3 447.5 144.3 448.2 143.8 448.5 143.4 448.9 142.7 449 141.9 449.2 141.1 453.8 122.2 458.5 103.2 463.1 84.3 464.3 79.3 465.3 74.3 466.5 69.3 467 67.3 467.6 65.3 468.3 63.3 469.1 61.1 470.9 60 473.1 59.9 474.5 59.8 476 60 477.4 60.3 481.3 61 485.3 61.7 489.2 62.6 490.7 62.9 492.3 63.5 493.7 64.1 497.6 65.8 499.7 68.7 499 73.2 498.8 74.8 498.8 76.4 498.4 77.9 494.9 92.5 491.5 107.1 487.5 121.6 485.5 128.8 483.8 136.2 482 143.5 479.9 151.7 477.9 159.9 475.8 168.1 473.8 176 471.8 183.9 469.8 191.8 469.4 193.2 469.1 194.6 468.6 196 467.8 198.4 466.3 199.8 463.7 199.7 460.8 199.6 457.9 199.6 455.1 199.3 451.6 198.8 448.2 198.1 444.7 197.3 442.2 196.8 439.8 196 437.6 194.6 436.3 193.8 434.7 193.3 433.2 193 428.5 192.3 423.7 191.8 419 191.1 413.6 190.4 408.2 189.5 402.9 188.8 394.5 187.6 386.1 186.5 377.7 185.3 369.9 184.2 362.2 183.1 354.5 182 351 181.5 347.5 181 344 180.7 338.6 180.3 333.3 179.1 328 178 325.7 177.5 323.3 177.1 320.8 176.7 320.5 177.9 320.2 178.8 320 179.7 319.8 181 319.8 182.3 319.6 183.5 319.1 187 318.2 188 314.6 187.9 311.3 187.8 307.9 187.5 304.6 186.8 299.4 185.8 294.3 184.5 289.2 183.4 288.4 183.2 287.7 183 286.9 182.8 284.1 182 282.6 180.1 282.3 177.3 282.1 175.4 282.1 173.5 281.9 171.5 280.5 170.4 278.9 170.3 277.4 170.1 268.7 168.8 260 167.5 251.3 166.2 242.9 165 234.5 163.8 226.1 162.7 225.3 162.6 224.6 162.7 223.8 162.7 222.7 164.2 223.2 165.9 223.1 167.5 222.8 172.8 221.7 174.1 216.4 173.7 211.2 173.4 205.9 172.5 200.7 171.8 192.7 170.6 184.6 169.2 176.6 167.9 168.1 166.6 159.6 165.3 151 164 142.6 162.7 134.3 161.5 125.9 160.2 122.6 159.7 119.3 159.1 116 158.3 112 157.4 110.7 155.9 110.2 151.7 110.1 150.6 110 149.5 109.9 148.2 108.8 147.8 107.8 147.3 106.7 147.2 98.6 146.1 90.5 145.1 82.5 144.1 69.8 142.6 57.1 141.1 44.4 139.5 34.4 138.3 24.4 136.9 14.5 135.6 13.2 135.4 11.9 135.4 10.7 135.3 7.4 135 4 134.8.7 134.5L.7 131.6C4 130.7 7.2 130.8 10.6 131.5 13.9 132.2 17.2 132.3 20.6 132.8 26.4 133.6 32.3 134.4 38.1 135.3 43 136 47.9 136.8 52.8 137.5 61.2 138.6 69.6 139.5 78 140.7 87.5 142 96.9 143.5 106.4 144.9 107.3 145 108.2 144.9 109.3 144.9 109.4 143.7 109.5 142.7 109.5 141.8L109.5 124.5C109.5 117.8 109.4 111.1 109.3 104.4 109.3 103.3 108.9 102.3 108.7 101.2 107.8 101 107.2 100.8 106.6 100.7 100 99.8 93.3 98.9 86.7 98 81 97.3 75.3 96.6 69.6 95.9 62.8 95.1 56 94.3 49.2 93.4 44.3 92.8 39.4 92 34.5 91.3 27.9 90.4 21.2 89.5 14.6 88.7 10 88.2 5.4 87.9.8 87.5L.8 84.6C3 84.2 5.1 83.6 7.4 84 10.2 84.5 13.1 85 15.9 85.3 22.1 86.1 28.2 87.1 34.5 87 37.2 87 39.8 87.8 42.5 88.3 46.3 89 50 89.9 53.8 90.5 61.8 91.8 69.9 92.9 78 94.1 86.4 95.4 94.7 96.7 103.1 97.9 105 98.2 106.9 98.6 109 97.9 109.1 97.2 109.4 96.5 109.4 95.7 109.4 88 109.4 80.4 109.3 72.7 109.3 71.6 109 70.5 109 69.4 108.7 65.4 108.2 61.4 108.1 57.5 108 41.5 108.1 25.5 108.1 9.5 108.1 8.2 108.2 6.9 108.1 5.7 108 3.7 108.9 2.4 110.3 1.2 112.7.8 115.3.8 117.8.8zM147.3 106.7C147 107.5 146.7 108.1 146.7 108.7 146.8 113.5 146.7 118.3 147.2 123.1 148 131.4 148.6 131.3 156.4 132.6 164 133.9 171.5 135 179.1 136.1 188.6 137.5 198.1 138.8 207.5 140.3 211.3 140.9 215 142 218.7 142.8 221.2 143.4 222.5 145.1 222.9 147.5 223.2 149.4 223.1 151.3 223.2 153.2 223.3 155.1 223 157 223.7 159.1 224.8 159.3 225.8 159.7 226.9 159.8 244.8 162.1 262.7 164.4 280.6 166.7 280.9 166.7 281.2 166.5 281.9 166.2 282.4 163 282.1 159.5 282.1 156L282.1 145.9C282.1 142.4 282.2 138.9 282.1 135.3 282 131.8 282.6 128.3 281.7 124.8 280.4 124.5 279.2 124 277.9 123.8 270.5 122.7 263 121.7 255.6 120.7 249.4 119.8 243.3 118.9 237.1 118 230 117 222.9 115.9 215.8 115 204.2 113.5 192.6 112.2 181.1 110.7 172.9 109.7 164.6 108.4 156.4 107.4 153.5 107.1 150.4 107 147.3 106.7zM320.7 171.7C328.2 172.3 335.5 173.3 342.6 174.9 345.7 175.6 348.9 176.1 352 176.6 361.8 178 371.6 179.4 381.4 180.9 396.2 183.2 411 185.7 425.8 188 427.7 188.3 429.6 188.6 431.4 188.1 431.5 187.7 431.7 187.3 431.6 187.1 431.5 186.7 431.3 186.2 431 185.8 428 182.8 426.6 178.8 425.1 174.9 421.5 165 418 155.1 414.4 145.2 414.2 144.8 413.9 144.4 413.6 143.9 412.9 143.7 412.1 143.3 411.4 143.2 405.5 142.4 399.7 141.7 393.8 140.9 387.8 140.1 381.8 139.2 375.8 138.4 366.2 137.1 356.6 135.1 346.8 135.1 345.5 135.1 344.3 134.8 343 134.6 338.5 133.7 334 132.5 329.4 131.8 326.5 131.3 323.6 130.7 320.6 130.9 320.1 134.9 320 166.6 320.7 171.7zM.7 707.4C7.3 706.9 13.7 708.3 20.2 708.9 27.2 709.5 34.2 710.5 41.1 711.4 50.1 712.5 59.2 713.7 68.2 714.8 74.5 715.6 80.9 716.4 87.2 717.1 98 718.3 108.8 719.5 119.6 720.7 128.6 721.7 137.7 722.7 146.7 723.8 154.6 724.8 162.5 725.9 170.5 726.9 174.8 727.4 179.1 727.9 183.3 728.4 195.8 729.9 208.3 731.5 220.9 733 230.3 734.1 239.6 735.1 249 736.3 256.6 737.3 264.2 738.4 271.8 739.4 278.8 740.3 285.8 741.1 292.7 742 298.4 742.7 304.1 743.4 309.8 744.1 316.1 744.9 322.5 745.7 328.8 746.6 334.7 747.4 340.5 748.2 346.4 749 352.9 749.9 359.4 750.7 365.9 751.5 368.9 751.9 371.9 752.3 374.9 752.5 379.2 752.8 383.5 753 387.8 753.2 392.6 753.5 397.3 754.1 402 755.1 407.8 756.3 413.6 757.2 419.5 758.1 425.3 759 431.2 759.8 437.1 760.6 443.4 761.4 449.8 762.2 456.1 763 462 763.8 467.8 764.6 473.7 765.3 480.4 766.1 487 767 493.7 767.7 500.8 768.5 508 769.3 515.1 770.1 519.9 770.6 524.6 771.1 529.4 771.6 535 772.2 540.5 772.9 546.1 773.6 551 774.2 555.9 774.8 560.8 775.4 567.6 776.3 574.4 777.2 581.2 778 588.3 778.8 595.5 779.5 602.6 780.3 609 781 615.3 781.8 621.6 782.5 625.7 783 629.9 783.4 634 783.9 644.2 785.1 654.3 786.3 664.5 787.5 667.2 787.8 669.9 788 672.6 788.4 678.6 789.2 684.6 790.2 690.6 790.9 696 791.6 701.4 791.9 706.8 792.6 715.4 793.7 723.9 795 732.4 796.1 738.3 796.9 744.1 797.6 750 798.3 756.5 799.1 763 799.9 769.5 800.7 776.6 801.6 783.8 802.3 790.9 803.3 798.3 804.3 805.8 805.4 813.2 806.4 820.3 807.3 827.5 808.1 834.6 809 840.5 809.7 846.3 810.5 852.2 811.2 862 812.4 871.9 813.6 881.7 814.8 885.8 815.3 889.9 816 894.1 816.3 897.8 816.6 901.4 816.8 905.1 816.9 909.1 817 913 817.4 917 818.4 924.6 820.3 932.4 821.4 940.1 822.3 946.8 823.1 953.4 823.9 960.1 824.8 970.9 826.2 981.6 827.7 992.4 829.1 1004 830.6 1015.5 832.1 1027.1 833.7 1029.6 834 1032 835 1034.5 835.6L1034.5 838.5C1030.8 839.1 1027.1 838.8 1023.5 838.3 1012.6 836.9 1001.6 835.4 990.7 833.9 985.2 833.2 979.6 832.5 974.1 831.7 963.5 830.3 952.9 828.9 942.3 827.5 935.5 826.6 928.7 825.9 921.8 825 913.7 824 905.6 822.9 897.6 821.8 889.1 820.6 880.5 819.4 872 818.2 863.3 817 854.6 815.8 845.9 814.6 840 813.8 834.2 813.2 828.3 812.4 819.6 811.3 810.9 810 802.2 808.9 796.2 808.1 790.2 807.4 784.1 806.6 767.6 804.6 751.1 802.7 734.7 800.1 725.9 798.7 716.9 797.9 708.1 796.9 699.4 795.8 690.7 794.8 681.9 793.7 675.2 792.9 668.6 792 661.9 791.2 655.2 790.4 648.6 789.6 641.9 788.8 635.7 788 629.5 787.2 623.4 786.5 614.4 785.4 605.3 784.4 596.3 783.2 587.3 782.1 578.2 780.9 569.2 779.7 563.3 778.9 557.5 778 551.6 777.3 542.2 776.1 532.9 775.2 523.5 773.8 514.6 772.5 505.6 772.7 496.7 772.7 490.6 772.7 484.6 771.4 478.6 770.6 472.4 769.8 466.2 768.9 460.1 768.1 451.9 767 443.6 765.8 435.4 764.8 424.3 763.5 413.3 761.3 402 762.3 399.6 762.5 397.2 762 395.1 760.9 392.4 759.5 389.4 758.9 386.4 758.5 376.6 757.2 366.8 756 356.9 754.6 348.7 753.5 340.5 752.2 332.2 751.1 324.1 750 316 749 308 747.9 299.1 746.7 290.3 745.6 281.4 744.4 272.2 743.3 263 742.3 253.8 741.1 240.8 739.4 227.8 737.6 214.8 735.9 207.7 735 200.5 734.2 193.4 733.4 184.8 732.4 176.3 731.3 167.7 730.2 161 729.4 154.4 728.5 147.7 727.7 138 726.5 128.4 725.3 118.7 724.1 110.1 723.1 101.6 722.1 93 721 81.9 719.6 70.8 718.1 59.7 716.7 53.7 715.9 47.7 715.1 41.6 714.4 34.6 713.5 27.7 712.6 20.7 711.8 15.9 711.3 11.2 711 6.4 710.5 4.5 710.3 2.6 709.9.8 709.6.7 709.3.7 708.4.7 707.4zM.7 999.2C5.8 998.5 10.8 999.4 15.9 999.9 22.7 1000.7 29.6 1001.3 36.4 1001.9 46.1 1002.8 55.8 1003.8 65.5 1004.7 73 1005.4 80.4 1006.2 87.9 1007 94.3 1007.7 100.6 1008.5 107 1009.2 112.1 1009.8 117.2 1010.2 122.3 1010.8 129.9 1011.6 137.5 1012.4 145.2 1013.3 149.3 1013.7 153.5 1014.2 157.6 1014.6 165.1 1015.4 172.6 1016 180 1016.9 186.8 1017.7 193.6 1018.7 200.4 1019.5 212.3 1020.9 224.2 1022.1 236.1 1023.5 251 1025.2 265.9 1027.1 280.8 1028.9 287.8 1029.7 294.8 1030.3 301.8 1031.1 308.6 1031.9 315.5 1032.2 322.4 1032.4 327.5 1032.6 332.5 1033.6 337.6 1034.3 343.3 1035.1 349 1036.1 354.7 1036.8 364.7 1038.1 374.7 1039.2 384.7 1040.4 395 1041.6 405.4 1042.6 415.7 1043.7 426.3 1044.9 437 1046.1 447.6 1047.2 453 1047.8 458.4 1048 463.8 1048.5 469.8 1049.1 475.9 1049.8 481.9 1050.5 491.1 1051.6 500.3 1052.7 509.5 1053.7 514.6 1054.3 519.7 1054.5 524.8 1055 532.3 1055.7 539.7 1056.5 547.2 1057.2 552.4 1057.7 557.7 1058.2 562.9 1058.7 571.3 1059.5 579.8 1060.3 588.2 1061.1 592.3 1061.5 596.5 1062 600.6 1062.5 607.1 1063.2 613.6 1064 620.1 1064.7 624.5 1065.2 629 1065.6 633.5 1066 641.3 1066.8 649.1 1067.4 656.9 1068.3 665.9 1069.3 675 1070.6 684 1071.7 690.7 1072.5 697.3 1073.2 704 1073.9 711.8 1074.7 719.6 1075.5 727.4 1076.4 736.9 1077.5 746.4 1078.7 756 1079.8 766.6 1081 777.3 1082.2 787.9 1083.4 798.4 1084.5 808.9 1085.4 819.4 1086.6 826.2 1087.4 833.1 1087.7 840 1087.8 842.4 1087.8 844.8 1088.1 847.1 1088.7 857.2 1091.2 867.6 1092.1 877.9 1093.3 890.3 1094.8 902.6 1096.2 915 1097.7 921.7 1098.5 928.3 1099.2 935 1100 943.1 1100.9 951.2 1101.8 959.3 1102.9 961.3 1103.2 963.3 1104 965.2 1104.7 965.7 1104.9 966.2 1105.6 966.2 1106.1 966.2 1106.5 965.5 1107.2 965 1107.3 963.3 1107.9 961.7 1108.2 959.8 1108 945.8 1106.2 931.9 1104.5 917.9 1102.8 910.9 1102 903.9 1101.4 896.9 1100.6 890.4 1099.9 883.9 1098.9 877.4 1098.2 869.9 1097.4 862.5 1096.6 855 1095.8 851.5 1095.4 848 1095.1 844.5 1094.6 835.8 1093.5 827.1 1092.3 818.3 1091.2 804.5 1089.5 790.7 1087.9 776.9 1086.3 764.4 1084.9 751.8 1083.6 739.3 1082.2 725 1080.6 710.7 1079.1 696.4 1077.4 687.5 1076.4 678.7 1075 669.8 1073.9 663.1 1073.1 656.5 1072.5 649.8 1071.7 641.5 1070.8 633.3 1069.9 625 1069 617.8 1068.2 610.7 1067.6 603.5 1066.8 595.7 1066 587.9 1065.1 580.1 1064.2 573.1 1063.5 566.1 1062.8 559.1 1062 551.2 1061.2 543.2 1060.3 535.3 1059.5 528.3 1058.7 521.3 1058 514.3 1057.2 507.8 1056.5 501.3 1055.7 494.8 1054.9 491 1054.4 487.2 1053.8 483.4 1053.4 473.1 1052.3 462.7 1051.3 452.4 1050.1 445.1 1049.3 437.7 1049.3 430.4 1049.6 427.4 1049.8 424.3 1049.6 421.3 1049.2 407.7 1047.1 394 1046 380.4 1044.4 374.8 1043.8 369.3 1042.9 363.8 1042.2 357 1041.4 350.1 1040.7 343.3 1040.1 341.7 1040 340.1 1040.3 338.5 1040.5 334.8 1040.9 331.3 1040.9 327.8 1039.2 325 1037.9 321.7 1037.4 318.5 1037 309.1 1035.8 299.8 1034.9 290.4 1033.8 281 1032.7 271.7 1031.5 262.3 1030.4 246.7 1028.6 231.2 1026.9 215.6 1025.1 205.8 1024 195.9 1022.7 186.1 1021.6 179.8 1020.9 173.4 1020.3 167 1019.5 160.5 1018.8 154 1017.9 147.5 1017.2 140 1016.3 132.6 1015.5 125.1 1014.7 117 1013.8 108.9 1012.9 100.8 1012.1 93.5 1011.3 86.2 1010.6 78.9 1009.9 71.4 1009.1 64 1008.3 56.5 1007.5 49 1006.7 41.6 1005.9 34.1 1005.1 30.4 1004.7 26.8 1004.2 23.1 1003.9 17.8 1003.4 12.6 1003.1 7.3 1002.7 5.1 1002.5 2.8 1002.5.6 1002.4.7 1001.8.7 1000.5.7 999.2zM.7 178.4C3 177.3 5.4 177.5 7.8 177.9 15.9 179.1 23.9 180.3 32 181.4 43.2 182.9 54.5 184.4 65.7 185.9 74.1 187 82.5 188 90.9 189.1 99.5 190.2 108 191.3 116.6 192.4 128.8 193.9 141 195.3 153.2 196.8 159.1 197.5 164.9 198.3 170.8 199.1 177 199.9 183.2 200.7 189.3 201.5 195.5 202.3 201.6 203.2 207.8 204 214.1 204.8 220.5 205.5 226.8 206.3 235.4 207.4 243.9 208.5 252.5 209.7 261.1 210.8 269.6 211.9 278.2 213 283.4 213.7 288.6 214.6 293.8 215.3 299.8 216.2 305.8 217 311.8 217.8 317.8 218.6 323.9 219.3 329.9 220.1 343.2 221.9 356.5 223.8 369.8 225.7 373.3 226.2 376.8 226.8 380.2 227.1 383.5 227.4 386.9 227.6 390.3 227.6 394.3 227.6 398.3 228.1 402.2 229 412 231.4 422 232.7 431.9 234.1 442.7 235.6 453.4 237.2 464.2 238.6 470.2 239.4 476.3 240.1 482.3 240.8 488.6 241.6 495 242.4 501.3 243.1 505.1 243.6 508.9 243.9 512.7 244.4 524.3 245.9 535.8 247.6 547.4 249.1 550.7 249.5 554.1 249.8 557.4 250.2 567.4 251.4 577.4 252.8 587.4 254 590.9 254.4 594.4 254.6 597.9 255.1 607.6 256.3 617.2 257.5 626.9 258.7 638.2 260.1 649.4 261.5 660.6 263.1 668.2 264.1 675.8 265.4 683.4 266.4 689.1 267.2 694.8 267.9 700.5 268.7 709.4 269.9 718.2 271 727.1 272.2 739.9 273.9 752.7 275.8 765.6 277.5 779.1 279.3 792.5 281.2 806 282.9 814.7 284 823.4 285.6 832.2 285.3 834.4 285.2 836.7 285.8 838.8 286.3 847.5 288.6 856.3 289.8 865.2 290.9 874.7 292.1 884.2 293.6 893.7 294.9 902.4 296.1 911.1 297.3 919.8 298.5 923.9 299.1 928 299.7 932.1 300.4 933.5 300.6 934.8 301.3 936.1 301.8 936.4 301.9 936.8 302.6 936.7 303 936.6 303.5 936.1 304.4 935.7 304.4 933.8 304.6 931.9 304.9 930 304.7 920 303.4 910.1 301.8 900.1 300.4 892.3 299.3 884.6 298.3 876.8 297.3 871.9 296.6 867 295.9 862.1 295.2 856.4 294.4 850.7 293.7 845 292.9 836 291.6 827 290.2 818 288.9 808.4 287.5 798.7 286.1 789.1 284.7 778.3 283.2 767.6 281.7 756.8 280.2 744 278.5 731.1 276.8 718.3 275 706.3 273.3 694.3 271.5 682.2 269.8 673.7 268.6 665.1 267.6 656.5 266.4 650.5 265.6 644.5 264.9 638.4 264.1 629.7 263 621 261.8 612.3 260.7 603.4 259.5 594.6 258.4 585.7 257.2 577.3 256.1 568.9 255.1 560.5 253.9 552.4 252.8 544.4 251.6 536.3 250.4 531.6 249.7 526.8 249 522.1 248.4 515.4 247.6 508.8 246.7 502.1 246.1 497.8 245.7 493.5 245.7 489.2 245.8 482 245.9 474.9 245.1 467.8 243.8 462.6 242.9 457.4 242.3 452.1 241.6 444.2 240.5 436.3 239.3 428.4 238.2 422.4 237.4 416.4 236.6 410.3 235.9 408.6 235.7 406.8 235.8 405 236 401.8 236.3 398.6 236.1 395.6 234.7 391.6 232.8 387.2 232.7 383 232.1 373.4 230.6 363.7 229.2 354.1 227.8 348.2 226.9 342.4 226.2 336.5 225.4 331.1 224.6 325.8 223.8 320.4 223 314.4 222.1 308.4 221.3 302.4 220.5 293.7 219.4 285 218.3 276.2 217.2 270.5 216.5 264.8 215.6 259.1 214.8 253.7 214 248.4 213.2 243 212.5 236.7 211.6 230.3 210.8 224 210 215.6 208.9 207.2 207.8 198.8 206.7 192.6 205.9 186.4 205.1 180.3 204.3 171.4 203.1 162.6 201.9 153.7 200.8 145 199.7 136.3 198.6 127.5 197.4 122.7 196.8 118 196 113.3 195.3 104.6 194.1 95.9 192.9 87.2 191.8 78.2 190.6 69.1 189.4 60.1 188.3 51.9 187.2 43.6 186.1 35.4 185.1 29.4 184.3 23.3 183.6 17.3 182.8 15.6 182.6 13.8 182.3 12.1 182.2 8.3 181.9 4.5 181.6.7 181.4.7 180.4.7 179.4.7 178.4zM.7 661.3C3.6 659.8 6.6 660.2 9.6 660.6 20.2 662 30.8 663.6 41.4 665 49.8 666.1 58.2 667.1 66.6 668.1 68.2 668.3 69.7 668.4 70.9 669.5 70.8 670.5 70.2 670.5 69.5 670.4 66.3 670.1 63.1 670 60 669.6 45.7 667.8 31.5 666 17.2 664.2 14 663.8 10.8 663.5 7.6 663.4 5.2 663.4 2.9 662.8.6 662.2.7 662 .7 661.6.7 661.3zM.7 614.3C3.7 612.7 6.9 613.2 10.1 613.7 21.8 615.4 33.4 617.3 45.1 619 48.6 619.5 52.1 619.8 55.6 620.2 57.2 620.4 58.8 620.5 60.1 621.5 59.6 622.9 58.3 622.7 57.3 622.6 54.4 622.3 51.6 622 48.8 621.6 41.7 620.7 34.6 619.9 27.4 619 23.8 618.6 20.1 618.1 16.5 617.8 13.3 617.5 10.2 617.3 7 616.9 4.9 616.7 2.9 616.4.9 616.2.7 615.6.7 614.9.7 614.3zM.7 953.2C3.3 952.1 6 952.3 8.7 952.6 17 953.5 25.2 954.4 33.5 955.3 40.2 956 46.8 956.8 53.5 957.6 55.4 957.8 57.3 957.9 59.2 958.2 59.9 958.3 60.5 958.7 61.1 958.9 61 960.2 60.2 960.2 59.7 960.1 52.2 959.5 44.7 959 37.2 958.3 28.3 957.4 19.4 956.2 10.5 955.2 9.7 955.1 8.9 955.1 8.1 955.1 5.5 955.2 3 955.1.6 954.1.7 953.8.7 953.5.7 953.2z"/>
    <path d="M535.3 905.1C534.5 905.7 533.9 906.3 533.3 906.5 533.1 906.6 532.2 905.7 532.2 905.3 532.2 904.3 533.1 904.1 533.9 904.2 534.3 904.3 534.6 904.6 535.3 905.1zM307.8 696.9C308 695.7 308.2 694.7 308.2 693.8 308.5 683.5 308 659.3 307.4 655.8 303.9 654.3 300 654.3 296.3 653.7 287.9 652.4 279.5 651.3 271.1 650.2 257.6 648.4 244.2 646.7 230.7 644.9 223.6 644 216.4 643 209.3 642 208.4 641.9 207.3 641.9 207.1 640.3 210.1 639.7 213.1 640.2 216 640.6 230.1 642.3 244.2 644.2 258.3 645.9 271.3 647.5 284.3 649.1 297.3 650.7 300.4 651.1 303.6 651.4 307 651.7 307.1 650.7 307.3 649.9 307.3 649.1 307.3 643.2 307.5 637.2 307.1 631.3 306.4 620.9 306.4 610.5 306.3 600.1 306.2 591.1 306.2 582.2 306.1 573.2 306.1 565.8 306 558.5 306 551.1 306 549.7 306 548.2 306.1 546.8 306.4 543.7 307.5 542.6 310.7 542.4 312.4 542.3 314.2 542.4 316 542.7 324.8 544.2 333.6 545.7 342.4 547.3 343.3 547.5 344.3 547.8 345.2 548.1 347.2 548.7 348.5 550.1 348.9 552.1 349.3 554.4 349.7 556.8 349.7 559.2 349.9 568.8 349.9 578.4 350 588 350 603.4 349.9 618.7 350 634.1 350 641 350.4 647.8 350.6 654.7 350.6 655.3 350.9 655.9 351 656.7 352.1 657 353.1 657.3 354.2 657.5 364.7 658.8 375.1 660 385.6 661.4 393.4 662.4 401.1 663.7 408.8 664.8 416.7 665.9 424.6 666.9 432.5 668 438.4 668.8 444.2 669.7 450 670.5 452.3 670.8 454.7 671.3 457.3 670.6 457.1 669.7 456.9 668.9 456.7 668.2 453.2 658.8 449.7 649.3 446.2 639.9 440.8 625.5 435.5 611.2 430.1 596.8 427.2 589.2 424.4 581.5 421.5 573.9 420.8 572 420.2 569.9 419.7 567.9 419.3 566.1 419.4 564.4 420.7 562.8 422.9 562 425.4 562.1 427.7 562.5 434.8 563.6 441.9 565 448.9 566.1 452.9 566.8 455.5 568.9 456.9 572.7 458.6 577.3 460.6 581.9 462.3 586.5 467.8 601.3 473.2 616.2 478.7 631.1 483.7 644.6 488.7 658.1 493.8 671.5 494.5 673.4 495 675.4 496.3 677 497.6 677.1 497.7 676.2 497.9 675.5 499.2 670.2 500.5 664.9 501.7 659.6 505.7 641.7 509.7 623.7 513.7 605.8 515.2 599.1 516.5 592.3 517.9 585.6 518.2 584.2 518.6 582.8 518.9 581.4 519.7 578.3 521.7 576.9 524.8 576.9 526.9 576.9 529 576.9 531 577.2 535.6 577.9 540.1 578.7 544.7 579.6 546.2 579.9 547.8 580.5 549.2 581.2 554 583.8 555.5 586.4 554.6 591.8 553.5 598.3 552.2 604.7 550.8 611.1 546.9 629.2 542.2 647.2 538 665.2 537 669.7 536.1 674.2 535.2 679 561.5 682.4 587.3 686.1 613.6 689 613.7 687.9 614 687 613.9 686.1 613.3 676.5 612.7 667 612.1 657.4 611.3 645.8 610.6 634.1 609.8 622.5 609.8 622 609.8 621.5 609.7 621.1 608.3 613.5 608.3 605.8 607.9 598.2 607.8 596.5 607.8 594.7 608 592.9 608.2 591.1 609 590.2 610.8 590.1 613.3 590 615.9 589.9 618.4 590.3 624.9 591.4 631.3 592.7 637.7 594.1 641.6 594.9 642.8 596.2 643.5 600.1 644.4 605.6 645 611.2 645.2 616.8 645.5 624.3 646 631.8 646.9 639.3 647.7 645.5 647.7 651.7 648.1 658 648.3 660.2 648.6 662.4 648.8 664.7 649.2 668.4 649.6 672 649.9 675.7 650.3 681.3 650.6 686.9 651 692.5 651 693.1 651.3 693.7 651.5 694.4 654.9 696 659.1 695 662.4 697.1 662 697.6 661.8 698 661.6 698 658.6 697.9 655.6 697.8 652.4 697.6 652.3 698.7 652.1 699.6 652 700.5 651.8 706.8 652.6 713 653.3 719.2 653.9 724.6 654 730 653.4 735.5 653.2 737.2 652.8 739 653.4 740.9 663.1 743.2 672.9 744 683 744.8 683.1 743.7 683.4 742.8 683.2 741.9 682.1 732.2 682.1 722.4 682.1 712.7 682.1 710.5 682 708.2 681.9 706 681.9 705.2 681.6 704.4 681.8 703.6 682.2 701.6 678.9 700.3 681 698.1 681 696.2 681.1 694.3 681 692.4 680.6 683.9 680.1 675.5 679.7 667 679.6 665.4 679.5 663.8 679.5 662.2 679.2 652.9 678.8 643.7 678.5 634.4 678.5 633.1 678.4 631.8 678.3 630.6 678.2 626.3 678 622 677.5 617.7 677 613 677 608.1 677.1 603.3 677.2 599.2 678.6 598 682.8 598 684.4 598 686 598.2 687.6 598.4 694.4 599.4 701.2 600.5 708 601.4 712.9 602 716.2 604.5 718.6 608.7 724.2 618.4 730 628 735.7 637.6 739.2 643.5 742.7 649.4 746.2 655.4 754.7 669.9 763.2 684.4 771.7 698.8 773.6 702 775.5 705.1 777.4 708.2 779.2 711.1 779.2 711.1 783.5 711.2 783.6 710.2 784 709.1 783.8 708.1 782.5 699.8 783 691.5 782.7 683.2 782.6 679.7 782.1 676.2 781.8 672.7 781.5 668.6 781.1 664.4 780.9 660.3 780.5 651.8 780.3 643.4 780 634.9 779.9 631.7 779.4 628.5 779.2 625.3 779.1 623.2 779 621.1 779 619.1 779.2 615.2 780.4 613.8 784.3 613.9 787.8 614 791.3 614.5 794.8 614.9 798.6 615.4 802.4 616 806.2 616.6 812.1 617.6 814.2 617.6 815.3 625.5 815.5 626.9 815.9 628.4 815.9 629.8 815.9 637.2 816.7 644.5 817.1 651.8 817.5 659.5 817.6 667.1 818.4 674.8 818.6 677 818.6 679.3 818.6 681.5 818.6 687.4 819 693.3 819.6 699.2 820 703 819.8 706.9 820 710.7 820.1 712.4 819.7 714.2 820.6 716.1 830.5 717.9 840.7 718.9 850.8 720.1 854.7 720.6 858.6 721.6 862.4 721.2 863.4 720 862.8 719.1 862.7 718.2 861.7 711.4 860.2 704.7 860.7 697.7 860.7 697.2 860.8 696.7 860.6 696.3 859.4 691.7 860.2 687.1 860.7 682.5 861.5 676.2 861.7 669.7 865.1 664.1 866.4 659 868.6 654.2 871 649.5 871.6 648.4 872.1 647.2 872.9 646.2 880 637.2 888.1 629.3 899.2 625.3 904.2 623.5 909.3 622.4 914.6 622.2 920 622 925.4 621.7 930.9 622.2 942.7 623.3 953.7 626.8 963.8 633.1 965.7 634.3 967.6 635.5 969.5 636.7 974.8 640.1 979.5 644.1 983.4 649.1 987.3 654 991.4 658.7 994.1 664.4 996.1 668.5 997.8 672.6 999 676.9 1000.1 681.1 1000.5 685.4 999.1 689.5 997.6 690.7 995.9 690.7 994.4 690.7 988.1 690.7 982 689.7 975.9 688.2 973.5 687.6 971.6 686.1 970.3 683.9 969.5 682.5 968.8 681.1 968.1 679.6 964.5 672.1 959.7 665.5 952.5 661.2 941.6 654.6 930.2 653.4 918.9 659.9 913.5 663 909.1 667.6 906.5 673.5 906.1 674.4 905.8 675.3 905.4 676.1 899.2 687.3 899 699.3 900.4 711.6 900.8 714.6 901.1 717.6 901.6 720.6 901.8 721.9 902.2 723.1 902.5 724.3 902.9 725.9 904 726.6 905.6 726.8 912 727.4 918.3 728.1 924.7 728.8 926.3 729 927.9 729.3 929.4 729.5 934.6 730.2 939.9 730.9 945.1 731.5 945.6 731.6 946 731.4 946.6 731.4 943.9 724.9 943.1 718.2 943.2 711.4 943.2 710.3 943.3 709.1 943.5 708.1 944.3 704.6 945.9 703.2 949.5 703 951.6 702.9 953.7 703 955.7 703.2 962 704 968.4 704.6 974.7 705.7 982.6 707.1 990.6 707.3 998.3 709.5 1002.2 710.6 1004.8 711.9 1005.2 717.4 1005.6 722.3 1005.8 727.3 1006.1 732.2 1006.2 734.4 1006.1 736.7 1006.1 739.1 1007.3 739.5 1008.3 740.1 1009.4 740.2 1014.1 740.9 1018.9 741.5 1023.6 742.2 1025.3 742.5 1027 743 1028.7 743.5 1029.2 743.7 1029.5 744.3 1029.9 744.7 1028.9 746.2 1027.5 746.1 1026.3 746 1022.6 745.9 1019 745.6 1015.3 745.3 1012.6 745.1 1010 744.5 1007 745 1006.8 749.6 1007.4 754 1007.7 758.4 1008 763 1008 767.7 1008.2 772.3 1008.4 776.7 1007.9 781.2 1008.6 785.9 1011.7 786.4 1014.5 786.9 1017.3 787.3 1020.8 787.9 1024.2 788.4 1027.7 789 1028.6 789.2 1029.6 789.4 1030.4 789.9 1031 790.2 1031.7 790.9 1031.8 791.6 1031.9 792.6 1031 792.9 1030.2 792.9 1028.6 793 1027 793 1025.4 792.9 1021.3 792.5 1017.1 791.9 1013 791.4 1011.7 791.2 1010.5 791.1 1009.3 791 1008.1 792.1 1007.1 793.6 1005.7 794.2 1004.2 794.9 1002.3 795 1000.6 795.1 998.5 795.2 996.4 795.1 994.4 795.1 991.1 795 988.6 793.6 987.1 790.5 986.5 789.2 985.8 787.8 984.1 787.7 982.1 787.5 980 787.5 977.9 787.5 977.4 787.5 976.9 788.2 976.4 788.6 969.8 793.2 962.6 795.9 954.5 795.9L945.4 795.9C935.3 796.1 925.8 793.7 916.6 789.7 909.1 786.5 901.9 782.6 895.9 776.9 894.3 775.4 892.6 774.6 890.4 774.4 879.3 773 868.2 771.4 857.2 769.9 852.1 769.2 847.1 768.4 842 767.6 836.5 766.8 830.9 766 825.4 765.2 824.8 765.1 824.1 765.2 823.3 765.2 823.1 766.2 822.8 767.1 822.8 768 822.9 770.9 823.2 773.7 823.2 776.6 823.2 779.3 823.1 782 823 784.7 822.9 786.1 822 787.1 820.5 787.2 819.1 787.4 817.6 787.6 816.2 787.4 807.6 786.4 799.1 785.2 790.5 784.1 787.7 783.7 785.4 782.3 783.7 780 782.6 778.4 781.5 776.8 780.6 775.2 777.8 770.4 774.9 765.6 772.2 760.7 771.1 758.7 769.6 757.7 767.3 757.5 763.3 757.2 759.3 756.8 755.4 756.4 753.2 756.2 751 756.1 749 754.6 751.7 753.6 751.7 753.6 755.1 753.9 757.3 754.1 759.5 754.5 761.8 754.7 763.8 754.9 765.9 755.1 768.3 755.3 768 754.3 768 753.7 767.7 753.2 763.5 745.9 759.3 738.5 755 731.2 748.3 719.9 741.5 708.7 734.8 697.4 732.3 693.1 729.9 688.8 727.3 684.5 724.5 679.8 721.6 675.3 718.7 670.7 718.4 670.2 717.8 669.9 717.5 669.7 716.3 670 716.4 670.8 716.4 671.3 716.3 672.7 716.3 674.2 716.5 675.6 717.6 683.2 717 690.9 717.5 698.6 717.7 702.3 718.3 705.9 718.4 709.6 718.8 718.5 719 727.5 719.4 736.4 719.6 740.7 719.9 745 720.1 749.3 722.8 750.8 726 749.9 728.7 752 726.1 753.4 723.5 752 720.9 752.9 720.7 753.7 720.4 754.6 720.4 755.5 720.3 759 720.4 762.5 720.4 766.1 720.4 767.2 720.4 768.4 720.2 769.4 719.9 771.5 718.7 772.5 716.7 772.8 715.4 772.9 714.1 773 712.9 772.9 705.4 772.2 697.9 771.4 690.6 769.8 686.4 768.9 684.9 767.2 684.4 762.9 684.2 760.7 684.2 758.4 684.2 756.2 684.2 754.1 684.2 752 684.1 750 684.1 749.5 683.9 749.1 683.8 748.3 682.7 748 681.6 747.4 680.4 747.2 672 746.2 663.6 745.2 655.2 744.2 654.7 744.1 654.3 744.3 653.5 744.3 653.2 745.3 652.8 746.3 652.7 747.3 652.5 749.4 652.5 751.5 652.3 753.5 651.9 757.7 650.4 759.1 646.1 759.3 644.8 759.3 643.5 759.3 642.3 759.1 637.3 758.3 632.2 757.4 627.2 756.5 626.4 756.4 625.6 756.2 624.9 756 622.2 755.3 620.4 753.7 619.9 750.8 619.5 748.3 619.3 745.7 618.9 743.2 618.8 742.3 618.7 741.3 618.5 740.3 617.7 740 617 739.5 616.2 739.4 585.5 736.6 555 732 524.2 728.7 523.6 730.6 523.1 732.2 522.6 733.8 521.9 736.3 520.3 737.6 517.7 737.5 514.2 737.4 510.6 737.4 507.2 737 502.3 736.3 497.4 735.4 492.6 734.4 487.7 733.4 484.4 730.3 482.1 726 481.4 724.6 481 723 479.2 722.1 477.9 724.6 475.6 724.7 473.1 724.4 466.3 723.4 459.5 722.5 452.7 721.6 443.7 720.4 434.6 719.3 425.6 718.1 417.4 717 409.1 715.9 400.9 714.8 394.6 714 388.2 713.1 381.9 712.3 372.6 711.1 363.2 709.9 353.8 708.8 353.3 708.7 352.9 708.8 352.2 708.9 352.1 709.8 351.9 710.8 351.9 711.7 351.9 714.3 352 716.8 352 719.4 352 720.5 352 721.7 351.8 722.7 351.2 726.2 349.9 727.5 346.3 727.4 342.6 727.3 339 726.9 335.3 726.3 329.2 725.3 323.1 723.9 316.9 722.8 310.6 721.6 308.7 720.1 308.3 712.9 308.2 710.8 308.4 708.7 308.4 706.7 308.4 705.3 308.3 703.9 308.3 702.3 296.9 700 285.7 698.9 274.5 697.2 263.3 695.5 252.1 694 240.6 692.4 240.3 693.5 239.9 694.3 239.9 695.2 239.8 699.2 239.9 703.2 239.8 707.2 239.7 712.8 238.9 713.7 233.2 713.3 226.7 712.8 220.2 712 213.7 711.1 204.8 709.8 196 708.3 187.1 707.5 185.5 707.4 183.9 707 182.4 706.8 171.6 705.4 160.8 704.1 150.1 702.7 146 702.2 141.9 701.4 137.8 700.8 131.3 699.9 124.8 699 118.3 698.1 117.2 697.9 116.1 697.6 115.1 697.3 113 696.5 111.6 695.1 111.3 692.8 111.1 691.1 110.8 689.3 110.6 687.6 110.1 683.8 109.7 680 109.2 676.1 102.1 674.5 94.9 674.9 88.2 672.3 91.7 670.6 95 672.3 98.4 672.3 101.9 672.3 105.3 673.6 109 673.2 109.2 672.2 109.4 671.5 109.4 670.7 109.3 664.6 109.2 658.5 109 652.5 108.9 647.2 108.7 641.9 108.5 636.7 108.5 635.4 108.4 634.1 108.3 632.9 108.1 630 108.1 630 105.3 628.3 105.4 626.9 106.9 627.5 107.8 626.3 107.8 625.4 108 624 107.9 622.6 107.4 612.1 106.9 601.5 106.5 591 106.4 587.6 106.4 584.3 106.3 580.9 106.1 574.2 106.4 567.4 105.5 560.8 103.9 549 104.8 537.2 104.5 525.3 104.5 524.2 104.5 523.1 104.6 521.9 104.8 519.3 105.8 518.1 108.4 517.9 110.3 517.8 112.3 517.8 114.1 518 118.5 518.6 122.9 519.3 127.4 520 131 520.5 134.7 521 138.3 521.6 145.1 522.7 146.1 524.1 146.4 531.1 146.7 539.2 147.3 547.4 147.8 555.5 147.9 557.9 148 560.3 148.1 562.7 148.5 573.7 148.8 584.8 149.2 595.8 149.3 598 149.4 600.3 149.4 602.5 149.4 607 149.3 611.4 150.2 615.9 150.6 617.8 150.5 619.7 150.6 621.6 150.8 631.3 151.1 641.1 151.2 650.8 151.3 655 152.1 659 153 663.1 153.5 665.5 154.9 666.7 157.1 667.2 159 667.7 160.9 668 162.8 668.3 169.4 669.2 176.1 670 182.8 670.9 192.8 672.3 202.7 673.9 212.7 675 219.5 675.7 226.3 676.6 233.1 678.1 233.9 678.3 234.7 678.4 235.4 678.6 237.4 679.2 238.8 680.4 239.2 682.5 239.6 684.4 239.8 686.3 240.2 688.4 240.9 688.7 241.8 689.2 242.7 689.3 248.4 690 254.1 690.7 259.8 691.4 266.3 692.2 272.8 693 279.3 693.9 286 694.7 292.6 695.5 299.3 696.3 300.6 696.5 301.8 696.7 303.1 696.8 304.4 696.7 306 696.8 307.8 696.9zM477.8 720.5C477.5 719.8 477.2 719.2 477 718.7 475.4 715.2 473.5 711.8 472.4 708.2 469.3 697.6 464.1 687.8 460.6 677.4 460 675.7 458.9 674.9 457.1 674.7 453.3 674.3 449.5 673.8 445.7 673.4 439.4 672.6 433 671.7 426.7 671 417.7 669.9 408.6 669 399.6 667.8 386.6 666.1 373.7 664.3 360.7 662.5 359.1 662.3 357.5 662.2 355.9 662 354.4 661.8 352.8 661.2 351.1 661.9 350.4 665.3 351.1 668.6 351.1 671.9 351.1 675.4 351.2 678.9 351.3 682.4 351.4 685.8 351.4 689.1 351.6 692.5 351.8 695.9 351 699.5 352.3 703.1 355.6 703.6 358.9 704.2 362.2 704.7 368.4 705.6 374.5 706.4 380.7 707.3 388 708.3 395.2 709.4 402.5 710.5 410.7 711.7 418.9 712.8 427.2 713.9 435.7 715 444.3 716.2 452.8 717.2 460.7 718.1 468.7 718.7 476.4 720.9 476.7 720.9 477.2 720.6 477.8 720.5zM525.8 724.4C555.8 728.4 585.6 732.4 615.5 736.3 616.2 736.4 617 736.2 618.1 736.2 618.4 732.5 617.6 729 617.4 725.6 617.1 721.9 616.6 718.3 616.3 714.7 616 711.2 616.1 707.7 615.7 704.2 615.2 700.6 615.9 696.9 614.7 693.1 610.3 692.5 605.9 691.8 601.4 691.2 589.4 689.7 577.3 688.3 565.3 686.9 556.6 685.8 547.9 684.6 539.2 683.5 537.8 683.3 536.4 683.5 534.8 683.5 531.3 696.6 528.6 709.5 525.6 722.4 525.5 722.8 525.7 723.5 525.8 724.4zM887.4 768.8C883.4 763.6 879.6 758.7 875.7 753.8 873.8 751.4 872.4 748.8 871.4 745.8 869.3 739.1 866.9 732.5 864.7 725.8 864.6 725.5 864.4 725.3 864 724.8 859.5 723.6 854.8 723.2 850 722.5 845.1 721.9 840.2 721.2 835.3 720.7 830.6 720.2 826 719 821 719.4 821.1 723 821.2 726.4 821.3 729.7 821.4 731.8 821.3 733.9 821.5 735.9 822.4 743.4 823.3 750.8 823.1 758.4 823.1 759.3 823.3 760.3 823.4 761.2 824 761.5 824.4 761.8 824.8 761.9 845.3 763.6 865.6 767.2 886.1 769.4 886.5 769.3 886.8 769.1 887.4 768.8zM975.6 740.3C970.2 739.5 965.5 738.8 960.8 738 955.9 737.2 951 737 946 736.9 942.8 736.8 939.6 736.6 936.5 735.8 929.1 733.9 921.4 732.9 913.9 731.6 911.4 731.2 908.9 730.8 906 731.1 906.5 732.4 906.7 733.5 907.2 734.4 909.9 739.5 913.1 744.3 916.9 748.6 922.3 754.6 928.2 759.7 936.1 762.5 942.5 764.7 948.9 764.9 955.5 763.8 957.4 763.5 959.2 762.8 960.9 761.8 967.7 757.7 972.7 752.1 975 744.3 975.2 743.2 975.3 741.9 975.6 740.3zM783.7 717.6C784.3 714 784.2 713.9 781.8 714.6 782.3 715.4 782.7 716.1 783.7 717.6zM695.7 185.9C696 183.9 696.2 183 696.2 182.1 696.1 172.2 696 162.3 695.7 152.4 695.4 141.1 694.9 129.7 694.5 118.4 694.3 113.6 694 108.8 693.8 104 693.7 102.7 693.8 101.4 693.8 100.2 693.9 98 694.7 97 696.9 96.5 698.1 96.2 699.5 96.1 700.7 96.3 706.5 97.2 712.4 98.2 718.2 99.1 718.8 99.2 719.4 99.5 720 99.6 723.3 100.3 724.9 102.4 725.3 105.6 725.6 107.8 725.8 110.1 725.8 112.3 726 120.6 726.2 128.9 726.3 137.2 726.3 138.2 726.3 139.1 726.4 140.1 727.7 148 727.3 156 727.5 164 727.7 173 728 181.9 728.2 190.8 728.3 193.4 728.4 195.9 728.4 198.5 728.4 202.8 728.6 207.1 729.2 211.4 729.7 214.5 729.7 217.8 729.8 221 729.9 222.7 729.9 224.5 730 226.2 731 226.6 731.7 227 732.5 227.2 740.8 228.7 781 233.1 784.6 232.9 784.3 232.3 784.2 231.7 783.8 231.3 780.7 227.1 777.4 222.9 774.4 218.6 773.2 216.8 772.3 214.7 771.6 212.6 769.1 204.9 766.8 197.1 764.2 188.8 763.5 188.6 762.3 188.2 761.1 188 755.9 187.3 750.6 186.6 745.4 185.9 744.5 185.8 743.6 185.4 742.8 185.1 742.7 183.7 743.5 183.6 744.3 183.7 749.9 184.4 755.4 185.1 761 185.8 761.8 185.9 762.6 186 763.7 186.1 763.8 184.9 764.2 183.8 764 182.9 763.2 178.6 762.8 174.4 763.3 170 763.4 169.2 763.2 168.4 763.1 167.6 763 166.5 762.9 165.3 763 164.2 763.5 159.3 764.1 154.4 764.7 149.5 764.8 148.7 765 147.9 765.3 147.2 767.5 142 769.3 136.7 771.9 131.8 778.9 118.5 789.8 109.9 804.6 106.7 811.5 105.2 818.6 105.6 825.6 106.2 840.4 107.4 852.8 114.1 864 123.2 866.5 125.2 868.6 127.6 870.7 130.1 875.3 135.6 879.5 141.4 882.1 148.3 883.4 151.8 884.7 155.2 885.1 158.9 885.3 161.5 885.4 164 884.1 166.4 882.3 167.6 880.1 167.6 878.1 167.3 873.7 166.7 869.3 165.9 864.9 165 861.9 164.4 859.8 162.5 858.4 159.8 857.6 158.2 856.9 156.6 856.1 155 853.8 150.5 850.9 146.6 847.1 143.2 841.7 138.4 835.3 136.3 828.3 135.7 826 135.5 823.5 135.8 821.2 136.5 813.3 138.8 807.3 143.6 803.7 151 803.3 151.7 803 152.5 802.6 153.1 798.4 160.3 797.6 168.2 797.9 176.3 798 179.2 798 182.1 798.1 184.9 798.2 186.8 798.1 188.7 799.1 190.4 805.7 192 830.8 195.1 835 194.7 835.1 193.8 835.2 192.9 835.2 192.1 835.1 189.4 834.8 186.7 834.9 184 835.3 178.2 836.8 176.7 842.8 177 847.1 177.2 851.4 178.1 855.6 178.7 863.5 179.9 871.4 181.1 879.3 182.4 881 182.7 882.7 183.2 884.4 183.8 887.4 184.9 889.1 187.1 889.2 190.3 889.3 193 889.3 195.7 889.4 198.5 889.4 199.8 889.5 201 889.6 202.1 890.7 203.5 892.1 203.4 893.3 203.5 904.2 205.1 915.1 206.7 926 208.3 927.4 208.5 928.8 209.1 930.1 209.5 930.3 209.6 930.6 210.1 930.5 210.3 930.4 210.7 930.1 211.3 929.8 211.4 927.9 211.6 926 212 924.1 211.7 916.3 210.7 908.6 209.6 900.8 208.5 897.8 208.1 894.8 207.6 891.8 207.3 891.2 207.2 890.6 207.4 890 207.4 889.8 207.8 889.5 208.1 889.4 208.3 889.3 209.1 889.1 209.9 889.2 210.7 890.8 223.1 889.6 235.6 890.2 248.3 892 248.7 893.7 249.1 895.4 249.4 906.1 251.1 916.9 252.7 927.6 254.4 929.2 254.6 930.7 255.1 932.2 255.7 932.7 255.9 932.9 256.6 933.2 256.9 932.5 258.4 931.2 258.4 930.2 258.3 927.5 258.2 924.8 258.1 922.1 257.7 912.3 256.3 902.5 254.8 892.7 253.4 892.1 253.3 891.5 253.4 890.7 253.4 890.2 254.5 889.8 255.4 889.3 256.7 888.4 256.9 887.5 257.2 886.6 257.2 883.7 257.3 880.8 257.2 878 257.3 874.7 257.4 872.5 256.1 871.2 253.1 870.8 252.2 870.3 251.4 869.8 250.5 868.4 250.2 867 249.8 865.5 249.5 864.6 250.2 863.7 250.9 862.8 251.6 858.6 255 853.7 257.1 848.3 257.2 841.7 257.4 835.2 257.3 828.6 257.2 823.1 257.1 817.9 255.3 812.9 253.2 805.2 249.9 797.9 246 791.9 240 790.5 238.6 788.9 237.9 786.9 237.6 779.3 236.5 771.7 235.2 764.2 234.1 756.5 232.9 748.7 231.8 741 230.7 737.8 230.2 734.7 229.8 731.5 229.4 731.1 229.3 730.6 229.6 729.9 229.7 729.8 230.9 729.5 232.1 729.5 233.4 729.5 235.6 729.7 237.9 729.7 240.1 729.7 241.5 729.8 243 729.6 244.4 729.2 247.3 728.1 248.3 725.2 248.4 723.4 248.5 721.7 248.5 719.9 248.2 714.7 247.4 709.5 246.3 704.3 245.7 698.5 245 694.8 242 692 237 685.9 225.8 679.6 214.6 673.3 203.5 666.4 191.2 659.4 179 652.5 166.8 650.8 163.9 649.3 160.9 647.7 158 645.5 154.1 643.2 150.3 640.9 146.4 640.5 145.8 639.9 145.3 639.5 144.8 638.3 145.3 638.3 146.2 638.3 146.9 638.6 157.9 639 169 639.2 180 639.4 187.5 639.4 195 639.5 202.6 639.6 206.6 639.7 210.6 639.7 214.8 641 215.2 642.2 215.7 643.4 215.8 646.9 216.3 650.4 216.6 653.9 217.1 656.6 217.4 656.8 217.5 659 218.9 656.7 219.7 656.1 219.8 653.2 219.4 651 219.1 648.8 218.8 646.6 218.5 644.6 218.2 642.5 218 640.3 217.7 640 218.9 639.7 219.8 639.7 220.7 639.6 223.7 639.7 226.8 639.5 229.8 639.3 232.7 638.2 233.7 635.3 233.9 634.2 234 633 234 631.9 233.8 626.5 233 621.2 232.1 615.8 231.2 615.5 231.1 615.2 231.1 614.9 231.1 610.3 230.1 608.7 228.3 608.2 223.6 608 221.2 608 218.8 607.9 216.4 607.9 215.6 607.7 214.8 607.6 214 605 212.3 601.9 212.9 599.2 212.3 596.3 211.6 593.2 211.3 590.2 211.1 587.4 210.9 584.6 210 581.5 210.5 581 212.6 580.7 214.6 580.2 216.6 579.5 219.3 578.7 220.1 576 220.4 575.1 220.5 574.1 220.6 573.1 220.4 567.9 219.5 562.7 218.6 557.5 217.7 557 217.6 556.6 217.5 556.1 217.3 554 216.6 552.6 215.2 552.2 212.9 551.9 210.9 551.5 208.8 551.1 206.6 548.6 206.2 546.3 205.7 544 205.4 535.3 204.3 526.6 203.2 517.8 202.1 508.1 200.9 498.5 199.6 488.8 198.2 487.2 198 485.7 197.5 484.1 197.1 483.4 196.9 482.9 196.3 482 195.7 483.9 194.3 485.6 194.1 487.3 194.2 490.8 194.4 494.3 194.8 497.8 195.3 507.3 196.7 516.8 198.1 526.2 199.5 533.6 200.6 541.1 201.7 548.5 202.7 549.2 202.8 550 202.7 551.1 202.7 551.9 199 550.2 195.7 550.3 192.2 550.4 188.5 550 184.9 549.8 181.2 549.6 177.7 549.5 174.2 549.3 170.7 549.1 167.2 548.9 163.7 548.7 160 547.7 159.7 546.8 159.2 545.9 159.1 537.7 158 529.4 156.9 521.2 155.9 513.6 155 506 154.1 498.4 153.1 496.1 152.8 493.6 152.7 491.6 150.4 492.3 150.1 492.8 149.6 493.3 149.6 495.1 149.6 496.8 149.5 498.6 149.7 506.7 150.6 514.8 151.4 522.9 152.5 528 153.1 533 154.1 538.1 154.8 541.2 155.3 544.4 155.6 547.3 156 548.6 154.7 548.3 153.3 548.3 152.1 548 144.1 547.8 136.1 547.4 128.1 547 120.6 546.3 113.1 545.9 105.6 545.4 96.5 545.2 87.4 544.8 78.3 544.8 77.5 544.8 76.7 544.9 75.9 545.2 73.7 546.1 72.9 548.4 72.7 552 72.4 555.4 73.3 558.8 73.9 562.6 74.6 566.3 75.6 570 76.4 574.5 77.4 575.9 78.9 576.2 83.6 576.7 90.5 576.8 97.3 577.2 104.2 577.5 109.6 578 115 578.5 120.4 578.6 122 578.9 123.6 578.9 125.2 579.3 134.6 579.7 144 580.2 153.5 580.3 155.7 580.1 158 581.3 160.4 589.3 161.8 597.4 163.5 605.9 164.3 606.2 163.3 606.5 162.4 606.6 161.5 606.7 159.7 606.5 158 606.5 156.2 606.4 148.5 606.3 140.8 606.2 133.2 605.9 121.7 605.6 110.2 605.2 98.7 605.1 95.2 604.6 91.7 604.4 88.2 604.3 86.6 604.7 85 605 83.5 605.2 82.1 606.2 81.1 607.6 81 609.6 80.8 611.7 80.6 613.8 80.8 617 81.1 620.1 81.8 623.3 82.3 626.4 82.8 629.6 83.5 632.7 84 636.5 84.6 639.1 86.6 640.9 89.9 642.8 93.4 644.9 96.8 646.9 100.3 654.4 113.8 661.9 127.4 669.5 141 677.3 154.9 685.2 168.8 693.1 182.7 693.9 183.7 694.4 184.3 695.7 185.9zM800.3 193.7C800.4 195.1 800.2 196.1 800.6 196.9 801.8 200 803 203.2 804.6 206.1 808 212.5 812.7 218 818 222.9 819.2 224 820.5 225 821.9 225.6 825.2 227.1 828.5 228.8 832 229.8 845.5 233.5 858.3 225.9 862.1 212.4 862.4 211.5 862.3 210.5 862.3 209.6 862.3 208 861.6 206.8 860.1 206.3 858 205.6 855.8 204.9 853.7 204.5 849.6 203.7 845.5 203.2 841.5 202.4 840.3 202.2 838.9 201.8 838.1 201 836.5 199.3 834.5 199.1 832.5 198.7 831.1 198.4 829.7 198.3 828.2 198.1 819 196.6 810 195.2 800.3 193.7zM606.9 167.6C600.3 166.1 585.4 164.7 582 165.2 582.2 171.4 582.3 177.6 582.8 183.8 583.2 189.6 583.4 195.3 582.7 201 582.5 203 582.1 205.1 582.6 207.2 583.2 207.5 583.8 207.9 584.4 208 592.1 209 599.9 210 607.6 211 608.9 208.8 608.4 206.7 608.3 204.7 608.1 200.7 607.7 196.7 607.6 192.8 607.5 187.2 607.6 181.6 607.5 176 607.4 173.2 607.1 170.5 606.9 167.6zM362.7 422C361.7 424.3 362.1 426.1 362.1 427.8 362.2 431.6 362.4 435.5 362.5 439.3 362.5 442.7 362.8 446 364.7 449 365.3 450 365.4 451.4 365.4 452.7 365.3 457 362.7 459.1 358.5 458.6 358.2 458.6 357.8 458.6 357.6 458.4 351.5 456.1 345.1 456.1 338.8 454.8 336.3 454.3 333.7 454.1 331.2 453.7 328.8 453.3 327.9 452.4 327.5 450 326.5 443 325.3 436.1 325.2 429.1 325.1 424.7 324.5 420.2 324.1 415.9 323.5 415.5 323.1 415.1 322.7 415 319 414.3 253 402.7 246.8 402.6 246.4 403.3 245.9 404 245.5 404.9 245 406.1 244.6 407.3 244.1 408.5 240.1 419.5 232.2 426.5 221.5 430.5 217 432.2 212.4 433.7 207.7 434.4 203.2 435.1 198.5 435.7 193.9 435.2 182.9 434 172.2 431.8 161.5 428.8 149.4 425.4 138.8 419.4 129.1 411.7 120.5 404.8 113.7 396.4 109 386.4 108.4 385.1 107.7 383.8 107 382.5 102.9 380.9 98.5 380.9 94.3 380.3 82.8 378.6 71.2 377.2 59.6 375.6 47.3 373.9 34.9 372.2 22.6 370.4 19.6 370 16.6 369.3 13.7 368.5 12.9 368.3 12.3 367.5 11.8 367.1 12.2 365.9 12.9 366 13.5 366 15.9 366 18.3 366 20.7 366.3 28.8 367.5 36.8 368.8 44.9 370 52.5 371.2 60 372.4 67.6 373.6 79 375.4 90.3 377.2 101.7 379 102.9 379.2 104.2 379.7 105.5 378.8 104.4 374.3 103.2 369.9 102.1 365.4 101.7 363.4 101.5 361.3 101.5 359.2 101.5 357.3 102.6 356.4 104.6 356.3 105.7 356.3 106.9 356.3 107.9 356.5 116.6 358 125.2 359.6 133.9 361.1 134.2 361.2 134.5 361.2 134.8 361.2 137.5 361.5 138.5 363.1 139 365.7 139.6 368.8 140.8 371.8 141.6 374.9 142.7 378.9 145.6 381.7 148.1 384.8 148.7 385.6 150 385.8 151.1 386.1 152.3 386.5 153.6 386.6 154.8 386.9 155.2 387 155.6 387.3 156.1 387.7 155.4 389.6 153.4 388.2 152.4 389.3 153 391 154.6 391.9 156 392.9 163.6 398.3 172 401.4 181.3 402.5 182.3 402.6 183.2 402.7 184.2 402.9 187.2 403.6 190.2 403.6 193.2 402.8 196.3 402 199.4 401.4 202.5 400.5 204.3 399.9 206.1 399.2 207.1 397 204.7 395.5 201.9 395.9 199.4 395.3 196.8 394.7 193.9 395.1 191.1 393.2 192.3 392.7 193.2 392.1 193.9 392.2 197.4 392.5 200.9 393 204.4 393.4 206 393.6 207.5 393.7 209 393.9 210.7 391.6 211.3 389.2 211.2 386.9 211 381.9 209.6 377.1 206.2 373.2 201.9 368.4 197 364.4 191.1 361.5 178 355.2 164.9 348.8 151.8 342.6 150.4 341.9 148.8 341.3 147.3 341.2 139 340.7 130.9 338.7 122.6 337.6 114 336.5 105.5 335.3 97 334.1 86.9 332.7 76.8 331.2 66.6 329.7 61.2 328.9 55.8 328.3 50.5 327.5 39.9 325.9 29.3 324.3 18.8 322.7 17.1 322.4 15.4 322 13.7 321.5 13 321.3 12.5 320.6 11.5 319.8 12.5 319.4 13.1 319 13.6 319 16.5 319.1 19.4 319.1 22.2 319.6 29.5 320.7 36.7 322.2 44.1 321.9 46 321.8 47.9 322.3 49.7 323 53.6 324.4 57.7 325.3 61.8 325.7 72.4 326.9 82.9 329.1 93.5 330.9 100.3 332.1 107 333.2 113.8 334.2 122.2 335.5 130.6 336.6 139 337.8 139.3 337.8 139.6 337.7 140.2 337.6 139.7 337.1 139.3 336.5 138.8 336.2 137.4 335.4 136 334.7 134.6 333.9 126.5 329.7 120.1 323.5 114.5 316.3 110.6 311.2 107.7 305.5 106.2 299.2 105.9 298.1 105.7 297 105.3 296 102.9 291 103.2 285.7 103.3 280.5L103.3 280C105.2 271.4 107.1 262.8 113.4 256.1 118 251.3 123.1 247.2 129.4 245.1 132.4 244.1 135.4 243 138.5 242.2 140.3 241.7 142.3 241.7 144.2 241.4 146.4 241.1 148.6 240.9 150.8 240.7 152.5 240.5 154.3 240.2 156 240.4 166.3 241.6 176.5 243.3 186.4 246.6 202.2 251.9 216 260.1 226.3 273.6 231 279.8 234.5 286.5 236.6 294 237.5 297.1 238.1 300.2 239.6 303.1 240.6 305 240.7 307.1 240 309.2 239.4 311 238.4 311.9 236.6 311.9 235.7 311.9 234.6 311.8 233.8 311.5 229.5 309.6 224.8 309.3 220.3 308.4 215.8 307.5 211.2 306.9 206.6 306.3 203.9 305.9 202.3 304.6 201.6 301.9 201.1 299.9 200.5 297.9 199.8 295.9 197.7 289.8 194.2 284.9 188.7 281.3 181.3 276.4 173.1 274.1 164.6 272.6 160 271.8 155.7 272.1 151.4 273.7 150.5 274 149.6 274.4 148.8 274.8 144.5 276.8 142.1 280.1 141.5 284.8 140.8 290.8 142 296.1 146.8 300.4 150.5 303.8 154.6 306.5 159.1 308.6 172.3 314.7 185.5 320.7 198.7 327 204.9 329.9 211.1 333 217.1 336.4 226.3 341.6 233.4 349.2 239.2 358 243.5 364.5 245.8 371.8 246.6 379.6 246.8 381.3 247.2 383.1 247.4 384.8 247.8 388.9 248.2 393.1 247.5 397.2 247.4 397.8 247.5 398.4 247.5 399.2 251.3 400.9 255.4 400.9 259.3 401.6 264.8 402.5 270.4 403.2 275.9 403.9 284 405.1 292 406.2 300.1 407.4 305.8 408.2 311.5 409 317.2 409.9 319.2 410.2 321.2 410.6 323.6 410.2 324 405.5 323.7 400.9 323.2 396.3 322.7 391.9 322.9 387.3 322.4 382.9 321.9 378.3 322.4 373.6 321.1 368.9 319.6 368.6 318.3 368.2 316.9 367.9 304.3 365.7 291.7 363.6 279.1 361.5 274.1 360.7 269 360 263.9 359.3 257.3 358.3 250.6 357.3 244 356.4 242.7 356.2 241.5 356 240.7 354.9 241 353.8 241.8 353.8 242.6 353.9 245.3 354.2 248 354.5 250.7 354.9 266.2 357.1 281.7 359.4 297.2 361.6 304.2 362.6 311.1 363.7 318.1 364.7 318.9 364.8 319.6 364.8 320.6 364.8 321.5 361.8 320.9 359 320.8 356.1 320.6 352.3 320.2 348.5 320 344.6 319.4 336.3 318.9 328 318.3 319.7 318.2 317.5 318.1 315.2 317.9 313 317.8 312.2 317.7 311.4 317.6 310.6 317.3 307.7 315.8 306 312.9 305.4 307.9 304.4 302.9 303.3 297.8 302.5 290.7 301.3 283.6 300.3 276.5 299.1 274.1 298.7 271.8 298.2 269.4 297.8 267.4 297.5 266.2 296.3 265.8 294.4 265.5 292.9 265.3 291.2 265.3 289.7 265.3 286.8 265.3 283.9 263.7 281.3 262.9 280 262.8 278.5 263.4 277.1 264.4 274.9 264.2 272.8 263.7 270.5 263.6 269.9 263.4 269.2 263.4 268.6 263.3 266 264.8 264.4 267.4 264.2 268.3 264.1 269.4 264.1 270.3 264.4 276.3 266.2 282.6 266.5 288.7 267.6 295.8 268.9 302.8 270.3 310 271.2 318.3 272.2 326.4 274.1 334.6 275.3 345.8 277 357 278.7 368.2 280.5 374.8 281.5 381.4 282.7 388.1 283.8 391.4 284.3 394.7 284.7 398.1 285.2 401.7 285.8 402.1 286.3 402.5 289.7 402.8 292.6 403.2 295.4 403.5 298.3 403.6 299.6 403.8 300.8 403.8 302.1 403.8 305.6 403.7 309.1 404.7 312.6 404.9 313.3 404.9 314.2 404.8 315 404.6 317.1 403.1 318.6 401.1 318.7 399.7 318.8 398.2 318.7 396.8 318.5 384.7 316.6 372.5 314.6 360.4 312.6 358.8 312.3 357.2 312.1 355.8 313.2 354.8 314.4 355.1 315.8 355 317.3 354.7 322.8 356 328.1 356.6 333.5 356.7 334.3 357.1 335.1 357 335.8 356.1 340.9 357.4 346 357.3 351.1 357.2 356.2 357.9 361.3 358.4 366.4 358.5 367.5 358.8 368.6 359.1 369.7 361.8 371.2 364.7 371.2 367.5 371.6 379.3 373.6 391.2 375.3 403 377.2 413.9 378.9 424.8 380.6 435.7 382.4 439.2 383 442.6 383.7 446.1 384.2 454.8 385.5 463.5 386.7 472.2 388 474.1 388.3 476 388.7 477.8 389.3 478.6 389.6 479.4 390.2 480 390.6 479.9 392 479.2 392.3 478.4 392.4 477 392.4 475.5 392.4 474.1 392.2 464.3 390.6 454.6 388.9 444.8 387.4 436.9 386.2 429 385.2 421.1 384 413.2 382.9 405.3 381.7 397.4 380.5 386.8 378.9 376.2 377.2 365.7 375.5 363.8 375.2 361.9 375.2 359.8 375.1 359.6 376.3 359.3 377.2 359.3 378.1 359.5 382.6 359.8 387 360.1 391.5 360.6 398.2 361.1 404.9 361.8 411.6 362.3 416.5 362.4 416.6 367.4 417.5 372.9 418.5 378.4 419.3 383.9 420.3 390.2 421.4 396.5 422.5 402.8 423.6 410.5 424.9 418.2 426.2 426 427.4 436.9 429.1 447.8 430.6 458.7 432.3 462 432.8 465.3 433.5 468.6 434.3 470 434.7 471.8 434.9 472.4 436.8 471.9 438.2 470.6 438.1 469.6 438.1 467.5 438.1 465.5 437.8 463.4 437.5 455 436.3 446.7 435 438.3 433.7 428 432.1 417.8 430.3 407.6 428.7 399.6 427.4 391.5 426.4 383.4 425.2 378.3 424.5 373.3 423.6 368.3 422.8 366 422.3 364.4 422.2 362.7 422zM845.7 442.7C845.6 440 845.5 438.1 845.4 436.2 844.6 425.5 843.8 414.8 843 404.2 842.7 400.2 842.4 396.2 842 392.3 841.5 387.1 840.8 381.8 840.3 376.6 840.1 374.7 840.1 372.8 840.1 370.9 840.1 367.8 839.9 364.9 838.8 362 838.2 360.4 838.2 358.5 838.4 356.8 838.6 354.5 839.9 353.5 842.3 353.4 843.4 353.4 844.5 353.4 845.6 353.6 860 356.3 874.5 359.1 888.9 361.7 901.9 364.1 915 366.4 928.1 368.7 932.3 369.4 936.6 370.1 940.9 370.9 942 371.1 943 371.5 944.3 371.9 944.6 373.1 945 374.3 945.2 375.5 945.9 382.3 946.6 389.2 947.3 396 947.7 400.6 945.7 402.6 941.1 401.7 936.4 400.9 931.7 399.7 927 398.8 912.1 396 897.1 393.4 882.2 390.7 881.9 390.6 881.6 390.6 881.3 390.6 875.9 389.9 875 390.6 875.3 396 875.6 401.4 876.2 406.8 876.7 412.2 876.9 414.7 877.3 417.3 877.4 419.8 877.5 422.4 877.9 424.9 879 427.4 881.5 429.2 884.6 429.3 887.5 429.8 899.6 431.9 911.8 433.7 923.9 435.8 928.9 436.7 933.9 437.8 938.9 438.9 940.7 439.3 941.4 440.3 941.6 442.4 941.9 445.9 942.1 449.4 942.4 452.9 942.6 455.9 942.9 458.9 943.8 461.9 944.7 465 942.8 467.1 939.5 467.2 938.9 467.2 938.2 467.1 937.6 467 926.6 465 915.6 463 904.6 460.9L888.1 457.9C887.2 457.7 886.2 457.6 885.3 457.5 881.9 457.3 880.6 458.4 880.7 461.9 880.8 463.8 881.2 465.7 881.4 467.6 882 475.2 882.6 482.9 883.3 490.6 883.4 491.4 883.5 492.2 883.5 493.1 884.4 493.5 885.2 494 886.1 494.1 897.9 496.1 909.7 498.1 921.5 500.1 925.4 500.8 929.4 501.3 933.3 502.2 935.5 502.7 937.7 503 939.5 504.4 939.8 505.8 938.9 506.3 937.9 506.3 936.3 506.4 934.7 506.5 933.1 506.3 921.9 504.6 910.7 502.8 899.5 501.1 894.9 500.4 890.3 499.7 885.8 499 885.4 498.9 884.9 499.1 884.2 499.2 883.6 500.9 884.1 502.6 884.1 504.3 884.2 506.1 884.4 507.8 884.6 509.5 885 513.1 885.6 516.8 885.9 520.4 886.2 524.1 884.3 525.8 880.6 525.1 873.8 523.9 867.1 522.6 860.3 521.3 858.7 521 857.1 520.9 855.6 520.6 852.6 520.1 851.7 519.2 851.8 516.1 852.2 509.3 850.8 502.7 850.5 496 850.5 495.2 850.2 494.4 850 493.5 847 491.8 843.6 491.6 840.4 491 831.1 489.2 821.9 487.7 812.6 486.1 798.4 483.8 784.2 481.5 770 479.2 761.5 477.8 753 476.4 744.5 475 737.4 473.9 730.3 472.8 723.2 471.7 722 471.5 720.7 471.7 719.6 471.7 719.3 472.1 719 472.4 719 472.7 719.3 478 719.5 483.2 719.8 488.5 719.9 489.8 720.2 491 720.2 492.3 720.2 493.2 720 494.2 719.9 495 718.3 496.2 716.7 496.6 714.8 496.1 707.3 493.9 699.4 493.2 691.8 491.6 686.5 490.5 686.7 490.1 686.5 485.4 686.3 481.6 685.8 477.8 685.5 473.9 685.2 469.9 684.9 465.9 684.6 462 684.3 458.3 684.2 454.7 683.7 451 682.6 442.6 682.6 434.1 681.1 425.8 681 425.2 681 424.5 681 423.9 680.9 411.4 679.4 399 678.5 386.6 677.7 375.8 676.9 364.9 676 354.1 675.9 353 675.9 351.8 675.6 350.8 674.9 347.8 674.8 344.8 675 341.7 675.2 338.8 675 335.9 673.8 333.2 672.8 330.9 672.9 328.5 673.3 326.1 673.5 324.9 674.3 324 675.6 324 677.3 323.9 679.1 323.9 680.8 324.2 696.4 327 711.9 329.8 727.5 332.7 740.5 335.1 753.6 337.5 766.6 339.9 769.4 340.4 772.3 340.9 775.1 341.4 778.7 342 779.2 342.5 779.5 345.9 780.1 352.6 780.8 359.3 781.4 365.9 781.5 366.7 781.6 367.5 781.6 368.3 781.6 371 780.2 372.5 777.6 372.6 776.7 372.6 775.7 372.4 774.8 372.2 770 371.2 765.1 370.1 760.3 369.1 748.7 366.9 737.1 364.7 725.4 362.6 721.8 361.9 718.1 361.5 714.5 361 713.7 360.9 712.9 360.9 712.1 361 710.8 361.1 710 361.9 709.9 363.1 709.8 364.2 709.8 365.3 709.9 366.4 710.5 374.4 711.1 382.3 711.7 390.3 711.8 391.4 712 392.5 712.2 393.6 713 398.2 713.5 398.8 718.2 399.6 727 401.2 735.8 403.1 744.6 404.1 753.5 405.1 762.1 407.5 771 408.7 771.5 408.8 771.9 408.9 772.4 409 775 409.7 775.6 410.3 775.8 412.9 776.1 416.9 776.4 420.9 776.7 424.8 776.9 427.2 777.1 429.6 778.2 432.1 800.1 436.3 822.6 439.1 845.7 442.7zM778.3 435.3C776.5 437.6 774.3 438.5 771.5 438 764.4 436.7 757.3 435.5 750.3 434.3 740.7 432.6 731.1 430.8 721.5 429.1 720.1 428.9 718.6 428.9 717.2 428.9 716.1 428.9 715.3 429.6 715.2 430.6 715 432.5 714.8 434.4 715 436.3 715.5 442.3 716.2 448.4 716.7 454.4 717.1 458.9 717.4 463.3 717.8 467.8 717.8 468.2 718.2 468.7 718.5 469.3 724.7 470.3 731 471.4 737.3 472.3 747.9 473.8 758.5 475 769.1 476.5 779.1 477.9 789 479.5 798.9 481 807.1 482.2 815.3 483.5 823.5 484.7 830.9 485.8 838.3 487.1 845.9 486.8 846.8 486.8 847.7 486.6 848.6 486.5 848.6 485.3 848.7 484.3 848.6 483.4 848.3 479.9 847.6 476.4 847.7 472.9 847.9 464.9 845.9 457 846.2 449 846.3 447.4 845.5 446.7 843.9 446.4 837.9 445.3 831.9 444.3 826 443.3 815.5 441.5 804.9 439.7 794.4 437.9 789.1 436.9 783.8 436.2 778.3 435.3zM590 403.8C602.5 406.8 614.8 408.1 627 410.4 626.5 412.1 625.6 412 624.9 411.9 620.3 411.4 615.7 410.8 611.1 410.2 605.2 409.5 599.4 408.7 593.5 408 593.2 408 592.9 408.1 592.3 408.3 592.4 409 592.5 409.7 592.7 410.4 598 423.2 603.4 436.1 608.7 448.9 609.4 450.5 610.2 452 610.9 453.4 615 455.4 619.6 454.4 623.8 457.3 619.8 458.6 616.5 455.9 612.9 457.1 613 457.9 613 458.7 613.3 459.4 614.9 463.6 616.6 467.7 618.3 471.9 620.4 477.1 622.5 482.2 624.7 487.4 625.5 489.4 626 491.4 625.3 493.5 623.8 494.9 622.1 494.6 620.3 494.4 614.8 493.6 609.2 492.8 603.7 492 601.8 491.7 599.9 491.6 598 491.3 596.4 491.1 594.9 490.7 593.3 490.4 591.8 490.1 590.8 489.1 590.1 487.7 589.5 486.4 588.9 485.1 588.4 483.7 584.8 474.5 581.2 465.3 577.5 456 577.2 455.3 576.9 454.5 576.6 453.8 576 452.2 574.8 451.3 573.1 451 566.1 450.1 559.2 449.1 552.2 448.1 542.1 446.6 532 445.1 521.9 443.7 519.7 443.4 517.5 443.2 515.6 443.1 513.8 444.3 513.5 445.9 513.1 447.5 510.9 456.7 508.5 465.8 506.7 475 505.7 479.8 504.3 480.2 499.7 479.8 499.5 479.8 499.4 479.8 499.2 479.7 492.1 477.1 484.5 477.1 477.1 475.9 475.1 475.6 473 475.2 471.4 474.9 469.9 473.2 470.1 471.5 470.2 470 470.3 468.4 470.7 466.8 471.1 465.3 475.4 448.9 479.7 432.5 484 416.2 489 397.2 494.1 378.2 499.1 359.2 503.4 343 507.7 326.8 511.9 310.6 513.2 305.8 514.4 305 519.4 305.9 522.7 306.4 526 307.1 529.3 307.6 535.1 308.5 541 309.3 546.9 310 549.3 310.3 550.7 311.2 551.6 313.4 554.4 319.9 557.2 326.3 560 332.8 564.5 343.5 568.7 354.5 573.6 365 576.8 372 579.1 379.3 582.3 386.2 585 391.8 587.4 397.7 590 403.8zM526 393.9C528.6 394.3 530.6 394.5 532.6 394.9 538.7 396 544.8 397.1 550.9 398.1 551.7 398.2 552.6 398 553.8 397.9 553.4 396.6 553.1 395.7 552.8 394.9 550.2 388.2 547.7 381.5 545 374.9 542.9 369.6 540.6 364.3 538.4 359 538 358 537.6 356.7 536.2 356.9 535.1 357 535 358.2 534.6 359.1 534.4 359.7 534.3 360.3 534.1 361 531.7 370.2 529.3 379.5 527 388.8 526.6 390.2 526.4 391.7 526 393.9zM555.7 402.4C544 400 528.8 398 524.7 398.4 523.6 403.1 521.3 407.8 522.2 413 524 414 525.7 414.4 527.4 414.6 533.4 415.5 539.4 416.4 545.4 417.2 549.7 417.7 554 418.1 558.2 418.4 560.3 418.5 561.2 417.4 560.6 415.4 559.4 411.1 557.9 406.7 555.7 402.4zM843.6 534.5C842.2 534.8 841.4 535.1 840.5 535.1 827.8 535.6 815.3 534.5 802.8 532.2 795.6 530.9 788.3 529.9 781 528.7 771.7 527.3 762.4 525.9 753 524.4 743.5 522.9 734.1 521.5 724.6 520 713.4 518.3 702.2 516.5 691 514.8 683.3 513.6 675.5 512.5 667.8 511.4 660.1 510.3 652.3 509.2 644.5 508.1 633.9 506.6 623.3 505 612.7 503.5 603.2 502.1 593.7 500.7 584.2 499.3 574.1 497.8 564 496.4 553.8 494.9 549.7 494.3 545.6 493.5 541.5 492.9 531.1 491.3 520.6 489.8 510.2 488.1 505.1 487.3 500 487 494.9 487.2 487.5 487.5 480.2 486.5 473 485.2 465.6 483.9 458.2 482.8 450.8 481.6 443.5 480.4 436.3 479.2 429 478.1 423.9 477.3 418.9 476.7 413.8 476.1 412.4 475.9 410.9 476.2 409.5 476.4 407.2 476.7 404.9 476.6 402.9 475.6 396.7 472.6 390 472.2 383.4 471.1 376.8 470 370.1 469 363.5 468 355.9 466.8 348.4 465.6 340.8 464.4 336.2 463.7 331.7 462.8 327.1 462.1 318.9 460.9 310.7 459.7 302.4 458.5 292.8 457.1 283.1 455.6 273.5 454.2 257.5 451.8 241.6 449.4 225.6 447 211.1 444.8 196.5 442.7 182 440.6 170 438.9 157.9 437.3 145.9 435.5 137.1 434.2 128.3 432.6 119.4 431.2 111.8 430 104.2 429 96.6 427.9 89 426.8 81.4 425.8 73.8 424.7 66.1 423.6 58.3 422.3 50.6 421.2 39.9 419.6 29.1 418.1 18.3 416.5 16.6 416.2 14.9 416 13.3 414.3 14.2 413.8 14.8 413.2 15.4 413.2 16.8 413.1 18.3 413.3 19.7 413.5 31.7 415.2 43.7 416.9 55.8 418.7 65.4 420.1 75.1 421.6 84.7 423 94.8 424.5 105 425.8 115.1 427.3 124.4 428.6 133.8 430 143.1 431.4 149.6 432.3 156.1 433.1 162.6 434 170.2 435 177.8 436 185.4 437.1 193.3 438.2 201.2 439.6 209.1 440.7 221 442.4 232.8 443.9 244.7 445.7 254.2 447.1 263.6 448.7 273.1 450.1 278.5 450.9 283.9 451.5 289.2 452.3 298.5 453.7 307.8 455.4 317.1 456.8 326.3 458.2 335.4 459.4 344.6 460.8 353.8 462.2 362.9 463.7 372.1 465.1 380 466.3 387.8 467.8 395.9 467.8 400.2 467.8 404.4 469 408.7 469.8 418.6 471.6 428.5 473.6 438.4 475.2 448.3 476.9 458.3 478.3 468.2 479.8 473.4 480.6 478.6 481.2 483.9 482 491.8 483.1 499.7 484.2 507.6 485.3 511.6 485.8 515.5 486.2 519.5 486.7 529 488.1 538.5 489.6 547.9 490.9 554.1 491.8 560.2 492.6 566.4 493.4 572.6 494.2 578.7 495.1 584.9 495.9 591.2 496.7 597.6 497.5 603.9 498.3 608.8 498.9 613.7 499.6 618.6 500.3 626.7 501.5 634.7 502.8 642.8 503.9 653.9 505.5 664.9 507 676 508.7 683 509.7 689.9 511 696.8 512 706.9 513.5 717 514.9 727.1 516.5 735.6 517.8 744.1 519.2 752.7 520.5 760.4 521.7 768.2 522.9 775.9 524 783.6 525.2 791.4 526.3 799.1 527.4 808.8 528.7 818.4 530.1 828.1 531.3 830.6 531.6 833.2 531.4 835.8 531.7 837.7 531.9 839.5 532.5 841.4 533 842.3 533.2 842.7 533.8 843.6 534.5z"/>
    <path d="M156.2 634C159.1 632.9 161.3 633.4 163.4 633.7 172.8 635.2 182.4 635.3 191.7 637.7 191.9 637.7 192 638.2 192.1 638.5 191.8 639.3 191.1 639.2 190.6 639.1 179.7 637.8 168.8 636.4 158 635.1 157.6 635.1 157.2 634.7 156.2 634zM667.8 462.8C666.8 464.6 665.6 464.2 664.6 464.1 659.7 463.4 654.8 462.6 649.9 461.9 647.4 461.5 644.9 461.1 642.3 460.6 641.8 460.5 641.3 460.1 640.6 459.6 641.8 458.5 642.9 458.6 643.9 458.8 651.5 459.9 659 461.1 666.6 462.3 667.1 462.3 667.5 462.7 667.8 462.8zM99.7 627.3C99 627.4 98.2 627.6 97.5 627.5 89.9 626.5 82.4 625.5 74.8 624.4 74.6 624.4 74.5 623.9 74.3 623.7 74.5 623.5 74.6 623.1 74.8 623.1 75.7 623 76.7 622.9 77.6 623 84.1 623.8 90.5 624.6 97 625.4 97.9 625.5 98.8 626 99.6 626.3 99.7 626.6 99.7 627 99.7 627.3zM80.7 671.7C79.1 671.5 77.5 671.3 76 671 75.8 671 75.5 670.5 75.5 670.3 75.7 669.9 76.1 669.4 76.3 669.4 78 669.5 79.7 669.8 81.4 670.1 81.6 670.1 82 670.6 81.9 670.7 81.7 671 81.4 671.3 81.1 671.6 81 671.7 80.8 671.7 80.7 671.7zM66.7 621.5C67 621.6 67.3 621.6 67.6 621.7 67.8 621.9 68.1 622.1 68.1 622.4 68.1 622.6 67.9 623.1 67.7 623.1 67.1 623.3 66.5 623.4 65.9 623.3 65.6 623.2 65.3 622.7 65.2 622.3 65.2 622.1 65.5 621.8 65.7 621.6 66.1 621.5 66.4 621.6 66.7 621.5zM201.7 639.7C200.7 640 200.2 640.3 199.7 640.2 199.4 640.2 198.9 639.6 198.9 639.4 199 638.6 199.7 638.5 200.3 638.6 200.6 638.7 200.9 639.1 201.7 639.7zM783.7 717.6C782.7 716.1 782.3 715.4 781.8 714.6 784.2 713.9 784.3 714 783.7 717.6z"/>
  </g>
</svg>
